<?xml version="1.0" encoding="UTF-8"?>
<svg version="1.1" xmlns="http://www.w3.org/2000/svg" width="300" height="300">
<path d="M0 0 C3.87395302 0.16363211 6.04264133 1.90586227 9.07421875 4.21484375 C13.00372045 7.15584498 16.95450486 10.03705566 20.9921875 12.828125 C21.971875 13.50617187 22.9515625 14.18421875 23.9609375 14.8828125 C25.9684912 16.26860416 27.97630967 17.65401231 29.984375 19.0390625 C31.44230469 20.04839844 31.44230469 20.04839844 32.9296875 21.078125 C33.79706543 21.67657227 34.66444336 22.27501953 35.55810547 22.89160156 C38.13458236 24.73919018 40.60435031 26.68595038 43.0625 28.6875 C41.52226574 32.95276411 38.31648178 35.07679215 34.8125 37.6875 C29.63078484 41.64367268 24.60622275 45.72110019 19.6875 50 C14.95079305 54.11100515 10.15686585 58.01955659 5.0625 61.6875 C12.69015236 57.067226 19.8942566 51.97427483 27.09765625 46.72753906 C31.9978672 43.16393366 36.93381006 39.66670583 41.9375 36.25 C47.92253255 32.16245996 53.87762986 28.03509527 59.8125 23.875 C60.64048096 23.29468018 61.46846191 22.71436035 62.3215332 22.11645508 C64.02227097 20.92402144 65.72287139 19.73139189 67.42333984 18.53857422 C71.98913532 15.33618187 76.55696808 12.13670097 81.125 8.9375 C81.97610352 8.34090576 82.82720703 7.74431152 83.70410156 7.12963867 C84.88891113 6.2997644 84.88891113 6.2997644 86.09765625 5.453125 C86.7925415 4.96618164 87.48742676 4.47923828 88.20336914 3.97753906 C92.5575109 0.95622783 94.74134282 0.48670162 100.0625 0.6875 C101.47380972 3.51011944 101.1975646 5.87653011 101.20776367 9.03320312 C101.21112228 9.68377182 101.2144809 10.33434052 101.21794128 11.00462341 C101.22745576 13.15935159 101.2293945 15.31400212 101.23046875 17.46875 C101.23368051 18.96325717 101.23704452 20.45776401 101.24055481 21.95227051 C101.24654698 25.08618906 101.24839457 28.22008003 101.24780273 31.35400391 C101.247701 35.37598052 101.26136462 39.39778105 101.27857494 43.41971588 C101.28967456 46.50629494 101.29172259 49.59283112 101.29119301 52.6794281 C101.29237577 54.16263945 101.29681405 55.64585181 101.30452538 57.12904358 C101.31428631 59.20008822 101.3114632 61.27074645 101.30541992 63.34179688 C101.30684494 64.52157104 101.30826996 65.70134521 101.30973816 66.91687012 C101.0625 69.6875 101.0625 69.6875 99.0625 71.6875 C97.24463654 71.93638897 97.24463654 71.93638897 95.00109863 71.93473816 C94.15141006 71.93893265 93.3017215 71.94312714 92.42628479 71.94744873 C91.02514687 71.93901947 91.02514687 71.93901947 89.59570312 71.93041992 C88.12241798 71.93326744 88.12241798 71.93326744 86.61936951 71.93617249 C83.36074942 71.93988833 80.1023504 71.92916451 76.84375 71.91796875 C74.58695502 71.91677729 72.33015954 71.91632372 70.07336426 71.9165802 C65.33875433 71.91501393 60.60421986 71.90671334 55.86962891 71.89331055 C49.78954281 71.87632053 43.70953973 71.87249613 37.62943268 71.87325573 C32.96786705 71.87298427 28.3063197 71.86750689 23.64476013 71.86025429 C21.40238076 71.85706387 19.15999931 71.85509935 16.9176178 71.85436058 C13.78814132 71.85220097 10.65875426 71.84346489 7.52929688 71.83276367 C6.12815895 71.83344345 6.12815895 71.83344345 4.69871521 71.83413696 C3.84902664 71.82987198 2.99933807 71.82560699 2.12390137 71.82121277 C1.01335011 71.818699 1.01335011 71.818699 -0.11963654 71.81613445 C-1.9375 71.6875 -1.9375 71.6875 -3.9375 70.6875 C-5.03159175 67.40522475 -5.07101574 64.97519126 -5.08276367 61.51953125 C-5.08914352 60.24811279 -5.09552338 58.97669434 -5.10209656 57.66674805 C-5.10362505 56.27783242 -5.10473911 54.88891628 -5.10546875 53.5 C-5.10868193 52.07657843 -5.11204605 50.6531572 -5.11555481 49.22973633 C-5.12154127 46.24722528 -5.12339514 43.26474319 -5.12280273 40.28222656 C-5.122701 36.458791 -5.13636702 32.63554067 -5.15357494 28.81214905 C-5.16468623 25.87307886 -5.16672223 22.93405364 -5.16619301 19.9949646 C-5.16737391 18.58514771 -5.17180186 17.17532968 -5.17952538 15.76553345 C-5.18930954 13.79553616 -5.18518705 11.82548457 -5.18041992 9.85546875 C-5.18184494 8.73422607 -5.18326996 7.6129834 -5.18473816 6.45776367 C-4.8247704 2.42438299 -4.00375653 0.9370494 0 0 Z " fill="#7856FF" transform="translate(102.9375,38.3125)"/>
<path d="M0 0 C4.4381536 0.53257843 5.86118599 2.77331354 8.56787109 6.20361328 C10.18982999 8.33013685 11.78617325 10.47362215 13.375 12.625 C13.92929687 13.37007812 14.48359375 14.11515625 15.0546875 14.8828125 C16.41439903 16.71139007 17.77105873 18.54214818 19.125 20.375 C19.53862793 19.80467041 19.95225586 19.23434082 20.37841797 18.64672852 C22.24802034 16.07385955 24.12391429 13.50564473 26 10.9375 C26.97646484 9.59075195 26.97646484 9.59075195 27.97265625 8.21679688 C28.59785156 7.36279297 29.22304687 6.50878906 29.8671875 5.62890625 C30.4432373 4.83814697 31.01928711 4.0473877 31.61279297 3.23266602 C33.125 1.375 33.125 1.375 35.125 0.375 C38.125 0.1875 38.125 0.1875 41.125 0.375 C43.125 2.375 43.125 2.375 43.37223816 4.3104248 C43.37081314 5.09937134 43.36938812 5.88831787 43.36791992 6.70117188 C43.37253487 8.04266296 43.37253487 8.04266296 43.37724304 9.41125488 C43.37005753 10.37897827 43.36287201 11.34670166 43.35546875 12.34375 C43.35501053 13.33499878 43.35455231 14.32624756 43.3540802 15.34753418 C43.35105582 17.44573156 43.34316401 19.54392665 43.33081055 21.64208984 C43.31257513 24.86173417 43.31030068 28.08109072 43.31054688 31.30078125 C43.30563098 33.33594 43.29980236 35.37109679 43.29296875 37.40625 C43.29185593 38.37397339 43.2907431 39.34169678 43.28959656 40.33874512 C43.28321671 41.23307251 43.27683685 42.1273999 43.27026367 43.04882812 C43.26454597 44.23224792 43.26454597 44.23224792 43.25871277 45.4395752 C43.125 47.375 43.125 47.375 42.125 49.375 C35.97265625 49.47265625 35.97265625 49.47265625 34.125 49.375 C32.32105125 47.57105125 32.88794211 44.80822201 32.80859375 42.37109375 C32.76669922 41.15615234 32.72480469 39.94121094 32.68164062 38.68945312 C32.64232422 37.41005859 32.60300781 36.13066406 32.5625 34.8125 C32.51931641 33.52923828 32.47613281 32.24597656 32.43164062 30.92382812 C32.32515281 27.74102555 32.22453579 24.55802757 32.125 21.375 C26.68 28.305 26.68 28.305 21.125 35.375 C15.34414495 34.21882899 14.01452316 32.31430737 10.8125 27.8125 C10.1309082 26.88920898 10.1309082 26.88920898 9.43554688 25.94726562 C8.31975681 24.43214017 7.22069629 22.90471967 6.125 21.375 C6.09994385 22.18767334 6.0748877 23.00034668 6.04907227 23.83764648 C5.93350882 27.49610752 5.81060416 31.15428528 5.6875 34.8125 C5.62852539 36.7315918 5.62852539 36.7315918 5.56835938 38.68945312 C5.52646484 39.90439453 5.48457031 41.11933594 5.44140625 42.37109375 C5.38641968 44.05996704 5.38641968 44.05996704 5.33032227 45.78295898 C5.125 48.375 5.125 48.375 4.125 49.375 C2.3125 49.5078125 2.3125 49.5078125 0.125 49.5 C-0.596875 49.50257813 -1.31875 49.50515625 -2.0625 49.5078125 C-3.875 49.375 -3.875 49.375 -4.875 48.375 C-4.97831927 46.94309139 -5.01349886 45.50617197 -5.02026367 44.07055664 C-5.02664352 43.15613297 -5.03302338 42.24170929 -5.03959656 41.29957581 C-5.04070938 40.30481735 -5.0418222 39.3100589 -5.04296875 38.28515625 C-5.04629715 37.27029648 -5.04962555 36.25543671 -5.05305481 35.20982361 C-5.0581285 33.0585882 -5.060463 30.9073449 -5.06030273 28.75610352 C-5.06248834 25.45510964 -5.08063707 22.15445025 -5.09960938 18.85351562 C-5.10254331 16.76823032 -5.1045281 14.68294341 -5.10546875 12.59765625 C-5.11265427 11.60492203 -5.11983978 10.61218781 -5.12724304 9.58937073 C-5.1226281 8.21300697 -5.1226281 8.21300697 -5.11791992 6.80883789 C-5.11934494 5.99911026 -5.12076996 5.18938263 -5.12223816 4.3551178 C-4.69293047 0.91681444 -3.26679749 0.42610402 0 0 Z " fill="#2A2941" transform="translate(41.875,211.625)"/>
<path d="M0 0 C0.639375 0.495 1.27875 0.99 1.9375 1.5 C2.5975 0.51 3.2575 -0.48 3.9375 -1.5 C7.5 -1.75 7.5 -1.75 10.9375 -1.5 C12.99075803 0.55325803 12.14982635 4.8388179 12.17578125 7.6640625 C12.183853 8.48949554 12.19192474 9.31492859 12.20024109 10.16537476 C12.21410317 11.91898487 12.22481578 13.6726222 12.23266602 15.42626953 C12.24979643 18.09330618 12.2936515 20.75907654 12.33789062 23.42578125 C12.34802463 25.13019922 12.35653852 26.83462774 12.36328125 28.5390625 C12.38078934 29.33100006 12.39829742 30.12293762 12.41633606 30.93887329 C12.39040747 37.6482642 10.38975791 41.7504987 5.875 46.8125 C0.79274336 49.73209424 -4.75789796 50.9880643 -10.6015625 50.125 C-15.49496488 48.6848013 -18.9707262 46.68885482 -22.0625 42.5 C-22.375 39.6875 -22.375 39.6875 -22.0625 37.5 C-19.3125 36.75 -19.3125 36.75 -16.0625 36.5 C-15.1653125 37.4590625 -15.1653125 37.4590625 -14.25 38.4375 C-11.71588155 40.82681169 -10.93674578 40.87339698 -7.5625 41 C-4.3475768 40.85194433 -3.26715002 40.64325501 -0.5625 38.75 C0.87805033 36.5891745 1.57265574 35.05390984 1.9375 32.5 C1.091875 32.995 0.24625 33.49 -0.625 34 C-5.09271574 35.94954869 -8.46572221 36.40619262 -13.14453125 34.7734375 C-17.53513901 32.76956086 -20.40711872 30.6423948 -23.0625 26.5 C-25.22353225 20.01690325 -25.25402216 12.05956612 -22.375 5.875 C-16.02133118 -0.65038959 -8.78721797 -4.3039435 0 0 Z M-13.0625 9.5 C-15.44622607 13.12740924 -15.28336213 16.48339694 -14.59375 20.62890625 C-13.74921269 23.60341635 -12.6662184 24.85554627 -10.0625 26.5 C-6.60545504 27.33345815 -6.60545504 27.33345815 -3.0625 26.5 C0.64794655 23.26322748 1.75360302 21.81026595 2.4375 16.9375 C1.89935653 13.23776364 1.36753511 11.33504096 -1.0625 8.5 C-5.94009878 5.89861398 -8.58042544 6.34217475 -13.0625 9.5 Z " fill="#2A2941" transform="translate(254.0625,151.5)"/>
<path d="M0 0 C1.175625 0.0825 2.35125 0.165 3.5625 0.25 C4.2225 1.24 4.8825 2.23 5.5625 3.25 C6.2225 2.755 6.8825 2.26 7.5625 1.75 C11.35927777 -0.14838889 14.38534825 -0.43059499 18.5625 0.25 C19.449375 0.78625 20.33625 1.3225 21.25 1.875 C22.013125 2.32875 22.77625 2.7825 23.5625 3.25 C26.21495602 2.58903214 26.21495602 2.58903214 28.5625 1.25 C33.38700176 -0.35816725 37.7518338 -0.55474053 42.375 1.5 C45.6259946 4.10079568 47.24607282 6.30071845 48.5625 10.25 C48.65669688 12.1570425 48.69321199 14.06719619 48.6953125 15.9765625 C48.69660156 17.0903125 48.69789063 18.2040625 48.69921875 19.3515625 C48.69535156 20.51429688 48.69148438 21.67703125 48.6875 22.875 C48.69330078 24.63070312 48.69330078 24.63070312 48.69921875 26.421875 C48.69792969 27.53304687 48.69664062 28.64421875 48.6953125 29.7890625 C48.69418457 30.81209473 48.69305664 31.83512695 48.69189453 32.88916016 C48.5625 35.25 48.5625 35.25 47.5625 36.25 C45.75 36.3828125 45.75 36.3828125 43.5625 36.375 C42.840625 36.37757813 42.11875 36.38015625 41.375 36.3828125 C39.5625 36.25 39.5625 36.25 38.5625 35.25 C38.40463692 33.39825294 38.31142644 31.5409089 38.24609375 29.68359375 C38.20419922 28.55888672 38.16230469 27.43417969 38.11914062 26.27539062 C38.07982422 25.09138672 38.04050781 23.90738281 38 22.6875 C37.95681641 21.49962891 37.91363281 20.31175781 37.86914062 19.08789062 C37.76266454 16.14205216 37.66065159 13.1961257 37.5625 10.25 C36.28375 10.188125 35.005 10.12625 33.6875 10.0625 C32.96820313 10.02769531 32.24890625 9.99289063 31.5078125 9.95703125 C30.86585937 10.05371094 30.22390625 10.15039062 29.5625 10.25 C27.40284599 13.48948102 27.28835067 14.55916872 27.18359375 18.3203125 C27.14943359 19.29871094 27.11527344 20.27710938 27.08007812 21.28515625 C27.05365234 22.30480469 27.02722656 23.32445312 27 24.375 C26.94033407 26.39856369 26.87674968 28.42201697 26.80859375 30.4453125 C26.78466553 31.34266113 26.7607373 32.24000977 26.73608398 33.16455078 C26.5625 35.25 26.5625 35.25 25.5625 36.25 C23.75 36.3828125 23.75 36.3828125 21.5625 36.375 C20.840625 36.37757813 20.11875 36.38015625 19.375 36.3828125 C17.5625 36.25 17.5625 36.25 16.5625 35.25 C16.41715348 33.56746416 16.33532378 31.87934242 16.28125 30.19140625 C16.24386719 29.16595703 16.20648438 28.14050781 16.16796875 27.08398438 C16.11576172 25.46459961 16.11576172 25.46459961 16.0625 23.8125 C15.99378385 21.68866202 15.92106667 19.56494853 15.84375 17.44140625 C15.81345703 16.49467041 15.78316406 15.54793457 15.75195312 14.57250977 C15.70588498 12.22592506 15.70588498 12.22592506 14.5625 10.25 C12.2525 10.25 9.9425 10.25 7.5625 10.25 C5.72934492 13.40174031 5.27497748 15.82564571 5.1484375 19.453125 C5.09042969 20.92265625 5.09042969 20.92265625 5.03125 22.421875 C4.98484375 23.94554687 4.98484375 23.94554687 4.9375 25.5 C4.87949219 27.046875 4.87949219 27.046875 4.8203125 28.625 C4.72618326 31.1664894 4.64055021 33.70797433 4.5625 36.25 C1.5925 36.25 -1.3775 36.25 -4.4375 36.25 C-4.46215098 31.28377651 -4.48033649 26.31758834 -4.49243164 21.35131836 C-4.4974719 19.66055684 -4.50430405 17.96979971 -4.51293945 16.27905273 C-4.52501857 13.85399293 -4.53073123 11.42899056 -4.53515625 9.00390625 C-4.54031754 8.24348526 -4.54547882 7.48306427 -4.55079651 6.69960022 C-4.55099238 4.8826743 -4.49947277 3.06586873 -4.4375 1.25 C-3.4375 0.25 -3.4375 0.25 0 0 Z " fill="#2A2941" transform="translate(86.4375,149.75)"/>
<path d="M0 0 C3 0.1875 3 0.1875 5 1.1875 C5 1.8475 5 2.5075 5 3.1875 C5.804375 2.6925 6.60875 2.1975 7.4375 1.6875 C12.36591339 -0.38762143 16.86176037 -0.90165375 21.9921875 0.87890625 C27.33562294 3.61942357 30.1361748 7.59602441 32 13.1875 C32.69531531 20.24324064 32.45001237 26.41745338 28 32.1875 C22.73420218 36.37864521 18.70117072 37.64181666 12 37.1875 C9.97565576 36.2377472 7.97084247 35.24380485 6 34.1875 C5.93941406 35.25871094 5.87882813 36.32992187 5.81640625 37.43359375 C5.73201463 38.83074391 5.64736594 40.22787857 5.5625 41.625 C5.52318359 42.33205078 5.48386719 43.03910156 5.44335938 43.76757812 C5.11328125 49.07421875 5.11328125 49.07421875 4 50.1875 C2.1875 50.3203125 2.1875 50.3203125 0 50.3125 C-0.721875 50.31507813 -1.44375 50.31765625 -2.1875 50.3203125 C-4 50.1875 -4 50.1875 -5 49.1875 C-5.1034125 47.72493823 -5.13850321 46.25745736 -5.14526367 44.79125977 C-5.15164352 43.85681534 -5.15802338 42.92237091 -5.16459656 41.95960999 C-5.16570938 40.94297775 -5.1668222 39.92634552 -5.16796875 38.87890625 C-5.17296135 37.32332253 -5.17296135 37.32332253 -5.17805481 35.73631287 C-5.1831286 33.53799891 -5.185463 31.33967723 -5.18530273 29.14135742 C-5.18748838 25.76793799 -5.20563714 22.39484583 -5.22460938 19.02148438 C-5.2275433 16.89062612 -5.2295281 14.75976631 -5.23046875 12.62890625 C-5.23765427 11.61429825 -5.24483978 10.59969025 -5.25224304 9.55433655 C-5.24916641 8.61673996 -5.24608978 7.67914337 -5.24291992 6.71313477 C-5.24434494 5.88564224 -5.24576996 5.05814972 -5.24723816 4.20558167 C-4.810256 0.63871444 -3.4099341 0.21312088 0 0 Z M8 11.1875 C5.30523336 15.22964995 5.34352324 18.44258571 6 23.1875 C7.34978302 26.35571233 7.34978302 26.35571233 10 28.1875 C14.3495345 28.97832445 16.23780272 28.69022587 19.9375 26.25 C22.3571246 22.65722407 22.67653795 20.58813248 22.421875 16.34375 C21.77667355 13.04605369 20.51880479 11.36592577 18 9.1875 C13.7259676 7.43405081 11.58469663 8.4747566 8 11.1875 Z " fill="#2A2941" transform="translate(143,149.8125)"/>
<path d="M0 0 C0.66 -0.66 1.32 -1.32 2 -2 C7.33333333 -2.33333333 7.33333333 -2.33333333 10 -1 C10 8.24 10 17.48 10 27 C10.99 27.33 11.98 27.66 13 28 C13 29.98 13 31.96 13 34 C5.54530341 34.25270158 5.54530341 34.25270158 2.4375 32.8125 C-0.77467608 31.74177464 -2.05935364 32.89186058 -4.98046875 34.3046875 C-9.03157406 35.69945877 -12.94372445 35.16544675 -17 34 C-22.37870047 30.99395992 -25.29258855 26.92572207 -27 21 C-27.75829586 14.9870342 -26.99335517 10.36739548 -24 5 C-17.14316131 -2.91173694 -9.62169383 -3.94736157 0 0 Z M-15 9 C-17.56632517 12.42176689 -17.36435051 15.84640421 -17 20 C-15.25271222 23.72803465 -15.25271222 23.72803465 -12 26 C-8.58428147 26.50031206 -8.58428147 26.50031206 -5 26 C-2.1903876 23.48613627 -1.17701652 21.60691377 -0.125 18 C0.0441857 13.93954314 -0.89230786 11.47692285 -3.3125 8.25 C-7.68283737 5.01271306 -10.88692648 5.77623968 -15 9 Z " fill="#2A2941" transform="translate(67,152)"/>
<path d="M0 0 C0.639375 0.495 1.27875 0.99 1.9375 1.5 C2.5975 0.51 3.2575 -0.48 3.9375 -1.5 C7.5 -1.75 7.5 -1.75 10.9375 -1.5 C11.9375 -0.5 11.9375 -0.5 12.05102539 2.18383789 C12.04578857 3.35164795 12.04055176 4.51945801 12.03515625 5.72265625 C12.03193359 6.98271484 12.02871094 8.24277344 12.02539062 9.54101562 C12.01703403 10.88151109 12.00856907 12.22200588 12 13.5625 C11.9949866 14.90689942 11.99042342 16.2513006 11.98632812 17.59570312 C11.97449488 20.89717941 11.95800971 24.19856803 11.9375 27.5 C12.9275 27.83 13.9175 28.16 14.9375 28.5 C14.9375 30.48 14.9375 32.46 14.9375 34.5 C7.55288462 34.86923077 7.55288462 34.86923077 4.4375 33 C3.9425 32.505 3.4475 32.01 2.9375 31.5 C2.339375 31.974375 1.74125 32.44875 1.125 32.9375 C-2.86083839 35.78452742 -6.27569101 35.89236139 -11.0625 35.5 C-16.33489347 33.69007388 -20.00770757 31.26547618 -23.0625 26.5 C-25.22353225 20.01690325 -25.25402216 12.05956612 -22.375 5.875 C-16.02133118 -0.65038959 -8.78721797 -4.3039435 0 0 Z M-13.0625 9.5 C-15.44622607 13.12740924 -15.28336213 16.48339694 -14.59375 20.62890625 C-13.74921269 23.60341635 -12.6662184 24.85554627 -10.0625 26.5 C-6.60545504 27.33345815 -6.60545504 27.33345815 -3.0625 26.5 C0.64794655 23.26322748 1.75360302 21.81026595 2.4375 16.9375 C1.89935653 13.23776364 1.36753511 11.33504096 -1.0625 8.5 C-5.94009878 5.89861398 -8.58042544 6.34217475 -13.0625 9.5 Z " fill="#2A2941" transform="translate(201.0625,151.5)"/>
<path d="M0 0 C0.59425781 0.3609375 1.18851563 0.721875 1.80078125 1.09375 C2.01171875 5.859375 2.01171875 5.859375 0.11328125 7.96875 C-2.80695165 9.38940384 -4.14991385 9.05668839 -7.19921875 8.09375 C-7.85921875 7.76375 -8.51921875 7.43375 -9.19921875 7.09375 C-13.7251186 6.67720701 -17.86563766 6.58301682 -22.13671875 8.21875 C-25.83669697 11.58236656 -27.35353958 15.15699311 -27.63671875 20.09375 C-27.45809784 24.34005623 -25.98653535 26.85443611 -23.19921875 30.09375 C-19.43629509 33.31911313 -16.13909749 33.41926063 -11.3828125 33.39453125 C-8.96985424 33.06215596 -7.35208166 32.19469646 -5.19921875 31.09375 C-1.84944812 31.41277577 -0.60742236 31.68554639 1.80078125 34.09375 C1.92578125 36.71875 1.92578125 36.71875 1.80078125 39.09375 C0.55342558 39.7446759 -0.69723707 40.38926669 -1.94921875 41.03125 C-2.6453125 41.39089844 -3.34140625 41.75054687 -4.05859375 42.12109375 C-10.43180511 45.01695074 -16.73263527 44.84961294 -23.26171875 42.59375 C-29.94395981 39.67412468 -34.29609167 34.77448407 -37.13671875 28.09375 C-39.09322036 21.87183182 -38.84154319 16.12189334 -36.296875 10.109375 C-32.89281869 3.85851003 -28.34853422 -0.7406348 -21.6484375 -3.27734375 C-13.43650142 -5.38599081 -7.31444571 -4.09517956 0 0 Z " fill="#2A2941" transform="translate(38.19921875,142.90625)"/>
<path d="M0 0 C3.9488304 3.60886487 7.54345535 7.87850867 8.3359375 13.296875 C8.44515867 20.1559644 7.34783399 25.48608547 2.50390625 30.5703125 C-3.18151337 35.53264883 -8.35707293 35.3444947 -15.609375 35.27734375 C-21.405808 34.80321156 -24.1403568 32.0738186 -27.8125 27.9375 C-31.76951166 22.62379863 -31.48722628 17.39829233 -31 11 C-29.23820547 5.50734647 -25.6548046 2.20952265 -21 -1 C-13.99008753 -4.21287655 -6.65258463 -3.85930873 0 0 Z M-19 9 C-21.56632517 12.42176689 -21.36435051 15.84640421 -21 20 C-19.74360091 22.82689795 -18.67448232 24.47004961 -16.25 26.375 C-12.85887913 27.31697802 -10.39008797 26.84752199 -7 26 C-4.6818638 24.10888889 -3.33085985 22.66171969 -2 20 C-1.6248545 15.02932218 -1.84121201 11.94848498 -5 8 C-9.93599137 4.54480604 -14.37928503 5.50324272 -19 9 Z " fill="#2A2941" transform="translate(118,226)"/>
<path d="M0 0 C4.49827544 3.8706091 8.38337546 7.58697433 8.890625 13.80078125 C9.05397913 23.64286766 9.05397913 23.64286766 5.6875 28.3125 C-0.77720225 34.65748554 -4.6896119 35.66848322 -13.81640625 35.59375 C-19.69159449 35.12110916 -22.55857507 33.16123169 -26.625 28.875 C-30.19428786 23.45497029 -31.17057735 18.73735416 -30.3125 12.3125 C-28.45912608 6.42593171 -25.40134729 2.70506486 -20.3125 -0.6875 C-13.50276323 -3.56854248 -6.56280451 -3.34331551 0 0 Z M-18.3125 9.3125 C-20.87882517 12.73426689 -20.67685051 16.15890421 -20.3125 20.3125 C-19.05610091 23.13939795 -17.98698232 24.78254961 -15.5625 26.6875 C-12.17137913 27.62947802 -9.70258797 27.16002199 -6.3125 26.3125 C-3.9943638 24.42138889 -2.64335985 22.97421969 -1.3125 20.3125 C-0.91817812 16.21155247 -1.12907403 13.72520843 -2.8125 9.9375 C-5.721675 6.88286626 -7.24553609 6.35451581 -11.34765625 6.140625 C-14.34188901 6.40254596 -16.04537484 7.3787756 -18.3125 9.3125 Z " fill="#2A2941" transform="translate(232.3125,225.6875)"/>
<path d="M0 0 C4.29448057 2.70393221 6.36035692 4.88109203 7.63378906 9.80175781 C8.40636544 14.43927628 8.24326667 19.12516466 8.1875 23.8125 C8.18685547 24.86115234 8.18621094 25.90980469 8.18554688 26.99023438 C8.14070144 34.71859711 8.14070144 34.71859711 7 37 C0.84765625 37.09765625 0.84765625 37.09765625 -1 37 C-2.63194992 35.36805008 -2.18564559 33.48129788 -2.24609375 31.23046875 C-2.27896484 30.25916016 -2.31183594 29.28785156 -2.34570312 28.28710938 C-2.40655096 26.23252411 -2.46388394 24.17783153 -2.51757812 22.12304688 C-2.56881836 20.6602832 -2.56881836 20.6602832 -2.62109375 19.16796875 C-2.6461499 18.27360107 -2.67120605 17.3792334 -2.69702148 16.45776367 C-3.01968199 13.84033953 -3.54252932 12.1931317 -5 10 C-7.8596006 8.82889551 -7.8596006 8.82889551 -11 9 C-13.63612932 11.03051996 -14.84580904 12.25830669 -15.5300293 15.54956055 C-15.54461182 16.48582275 -15.55919434 17.42208496 -15.57421875 18.38671875 C-15.60193359 19.40701172 -15.62964844 20.42730469 -15.65820312 21.47851562 C-15.66787109 22.53748047 -15.67753906 23.59644531 -15.6875 24.6875 C-15.72938376 26.79564944 -15.77476063 28.90373341 -15.82421875 31.01171875 C-15.83541748 31.94459717 -15.84661621 32.87747559 -15.8581543 33.83862305 C-16 36 -16 36 -17 37 C-18.8125 37.1328125 -18.8125 37.1328125 -21 37.125 C-21.721875 37.12757813 -22.44375 37.13015625 -23.1875 37.1328125 C-25 37 -25 37 -26 36 C-26.10091475 33.41810554 -26.13971499 30.863535 -26.1328125 28.28125 C-26.13376923 27.50817505 -26.13472595 26.7351001 -26.13571167 25.93859863 C-26.13639341 24.30102456 -26.13453957 22.66344781 -26.13037109 21.02587891 C-26.12502271 18.51068079 -26.13031626 15.99566127 -26.13671875 13.48046875 C-26.13605797 11.89322877 -26.1347768 10.3059889 -26.1328125 8.71875 C-26.13483673 7.96146606 -26.13686096 7.20418213 -26.13894653 6.4239502 C-26.11495132 1.11495132 -26.11495132 1.11495132 -25 0 C-19.26388889 -0.27314815 -19.26388889 -0.27314815 -17 0 C-16.34 0.66 -15.68 1.32 -15 2 C-13.515 1.2265625 -13.515 1.2265625 -12 0.4375 C-7.77822517 -1.34502715 -4.35567863 -1.43127777 0 0 Z " fill="#2A2941" transform="translate(154,224)"/>
<path d="M0 0 C0.66 0.99 1.32 1.98 2 3 C2.66 2.505 3.32 2.01 4 1.5 C7.81858891 -0.40929446 10.80348467 -0.64561774 15 0 C17.91927604 1.3961755 19.72202996 2.72202996 22 5 C22.22705078 8.07275391 22.22705078 8.07275391 22.1953125 11.9765625 C22.1924826 12.66181 22.18965271 13.3470575 22.18673706 14.05307007 C22.17553281 16.24389027 22.15042859 18.43430316 22.125 20.625 C22.11497048 22.1093691 22.10584458 23.5937446 22.09765625 25.078125 C22.07559294 28.71888261 22.04106176 32.35940156 22 36 C19.69 36 17.38 36 15 36 C13.71394339 33.42788678 13.78956059 31.43093034 13.68359375 28.5546875 C13.64169922 27.47832031 13.59980469 26.40195313 13.55664062 25.29296875 C13.51732422 24.16503906 13.47800781 23.03710938 13.4375 21.875 C13.39431641 20.73933594 13.35113281 19.60367188 13.30664062 18.43359375 C13.2003396 15.62252232 13.09830595 12.81136055 13 10 C8.81403245 9.08738363 8.81403245 9.08738363 4.6875 9.75 C2.68716985 10.98166743 2.68716985 10.98166743 2 14 C1.85222064 15.69867188 1.75252934 17.40177489 1.68359375 19.10546875 C1.64169922 20.08837891 1.59980469 21.07128906 1.55664062 22.08398438 C1.51732422 23.10814453 1.47800781 24.13230469 1.4375 25.1875 C1.39431641 26.22326172 1.35113281 27.25902344 1.30664062 28.32617188 C1.20055634 30.8839819 1.09849854 33.44188845 1 36 C-5.15234375 36.09765625 -5.15234375 36.09765625 -7 36 C-8 35 -8 35 -8.11352539 31.76538086 C-8.11336631 30.33185874 -8.10767407 28.89833088 -8.09765625 27.46484375 C-8.0962413 26.71159317 -8.09482635 25.95834259 -8.09336853 25.18226624 C-8.08775376 22.7673044 -8.07519883 20.35243399 -8.0625 17.9375 C-8.0574869 16.30403779 -8.05292366 14.67057414 -8.04882812 13.03710938 C-8.03777954 9.02470415 -8.02050506 5.01236759 -8 1 C-5.21136993 -0.39431504 -3.07921132 -0.25660094 0 0 Z " fill="#2A2941" transform="translate(278,150)"/>
<path d="M0 0 C0.99 0.33 1.98 0.66 3 1 C3 4.63 3 8.26 3 12 C5.1965625 11.9690625 5.1965625 11.9690625 7.4375 11.9375 C8.95832518 11.91607993 10.48071962 11.92820036 12 12 C13 13 13 13 13.125 16 C13 19 13 19 12 20 C9.03 20 6.06 20 3 20 C3.33 26.27 3.66 32.54 4 39 C5.65 39.33 7.3 39.66 9 40 C10.485 40.495 10.485 40.495 12 41 C12.04241723 43.33294775 12.04092937 45.66702567 12 48 C10.13414046 49.86585954 7.18763629 49.25966063 4.6875 49.3125 C2.96080078 49.36857422 2.96080078 49.36857422 1.19921875 49.42578125 C-2 49 -2 49 -4.35546875 47.23046875 C-7.00545381 43.63630849 -7.12437984 40.39829344 -7.09765625 36.015625 C-7.09282227 34.61376953 -7.09282227 34.61376953 -7.08789062 33.18359375 C-7.07951172 32.21550781 -7.07113281 31.24742187 -7.0625 30.25 C-7.05798828 29.26644531 -7.05347656 28.28289062 -7.04882812 27.26953125 C-7.03706483 24.84629209 -7.02062684 22.42317727 -7 20 C-8.32 19.67 -9.64 19.34 -11 19 C-11 16.69 -11 14.38 -11 12 C-9.68 12 -8.36 12 -7 12 C-7.103125 11.113125 -7.20625 10.22625 -7.3125 9.3125 C-6.90194499 4.96061694 -5.28831975 3.74026646 -2 1 C-1.34 0.67 -0.68 0.34 0 0 Z " fill="#2A2941" transform="translate(189,212)"/>
<path d="M0 0 C1.10844919 3.32534757 0.84454356 5.62182575 0 9 C-0.62648438 9.10957031 -1.25296875 9.21914062 -1.8984375 9.33203125 C-2.71570313 9.49058594 -3.53296875 9.64914063 -4.375 9.8125 C-5.59316406 10.03873047 -5.59316406 10.03873047 -6.8359375 10.26953125 C-9.35820641 10.87544942 -9.35820641 10.87544942 -11 14 C-12.44801837 19.22048728 -12.36527335 24.73112511 -12.60546875 30.11328125 C-12.89717834 35.89717834 -12.89717834 35.89717834 -14 37 C-17.5 37.125 -17.5 37.125 -21 37 C-22 36 -22 36 -22.11352539 32.58178711 C-22.11336628 31.06363012 -22.10767226 29.54546771 -22.09765625 28.02734375 C-22.0962413 27.22970108 -22.09482635 26.43205841 -22.09336853 25.61024475 C-22.08775316 23.05262565 -22.07519812 20.49509282 -22.0625 17.9375 C-22.05748698 16.20768355 -22.05292373 14.47786574 -22.04882812 12.74804688 C-22.03777875 8.49866447 -22.02050386 4.24934688 -22 0 C-19.03 0 -16.06 0 -13 0 C-12.67 0.66 -12.34 1.32 -12 2 C-10.700625 1.2265625 -10.700625 1.2265625 -9.375 0.4375 C-5.60596507 -1.16782969 -3.89114901 -1.01911045 0 0 Z " fill="#2A2941" transform="translate(266,224)"/>
<path d="M0 0 C0.721875 0.00257813 1.44375 0.00515625 2.1875 0.0078125 C2.909375 0.00523437 3.63125 0.00265625 4.375 0 C6.1875 0.1328125 6.1875 0.1328125 7.1875 1.1328125 C7.28841475 3.71470696 7.32721499 6.2692775 7.3203125 8.8515625 C7.32126923 9.62463745 7.32222595 10.3977124 7.32321167 11.19421387 C7.32389341 12.83178794 7.32203957 14.46936469 7.31787109 16.10693359 C7.31252271 18.62213171 7.31781626 21.13715123 7.32421875 23.65234375 C7.32355797 25.23958373 7.3222768 26.8268236 7.3203125 28.4140625 C7.32233673 29.17134644 7.32436096 29.92863037 7.32644653 30.7088623 C7.30245132 36.01786118 7.30245132 36.01786118 6.1875 37.1328125 C4.375 37.265625 4.375 37.265625 2.1875 37.2578125 C1.465625 37.26039063 0.74375 37.26296875 0 37.265625 C-1.8125 37.1328125 -1.8125 37.1328125 -2.8125 36.1328125 C-2.91341475 33.55091804 -2.95221499 30.9963475 -2.9453125 28.4140625 C-2.94626923 27.64098755 -2.94722595 26.8679126 -2.94821167 26.07141113 C-2.94889341 24.43383706 -2.94703957 22.79626031 -2.94287109 21.15869141 C-2.93752271 18.64349329 -2.94281626 16.12847377 -2.94921875 13.61328125 C-2.94855797 12.02604127 -2.9472768 10.4388014 -2.9453125 8.8515625 C-2.94733673 8.09427856 -2.94936096 7.33699463 -2.95144653 6.5567627 C-2.92277975 0.21416921 -2.92277975 0.21416921 0 0 Z " fill="#2A2941" transform="translate(167.8125,223.8671875)"/>
<path d="M0 0 C2.46906968 2.46906968 2.23647118 3.86273769 2.25224304 7.23231506 C2.24505753 7.94069016 2.23787201 8.64906525 2.23046875 9.37890625 C2.22978142 10.46980812 2.22978142 10.46980812 2.2290802 11.58274841 C2.22605836 13.12020499 2.21817405 14.65765852 2.20581055 16.19506836 C2.18754573 18.55658735 2.1853009 20.91771461 2.18554688 23.27929688 C2.18063203 24.77083674 2.17480386 26.26237394 2.16796875 27.75390625 C2.16685593 28.46430557 2.1657431 29.1747049 2.16459656 29.90663147 C2.11605365 34.88394635 2.11605365 34.88394635 1 36 C-0.8125 36.1328125 -0.8125 36.1328125 -3 36.125 C-3.721875 36.12757813 -4.44375 36.13015625 -5.1875 36.1328125 C-7 36 -7 36 -8 35 C-8.08847743 32.47905924 -8.11527301 29.98569107 -8.09765625 27.46484375 C-8.0962413 26.71159317 -8.09482635 25.95834259 -8.09336853 25.18226624 C-8.08775376 22.7673044 -8.07519883 20.35243399 -8.0625 17.9375 C-8.0574869 16.30403779 -8.05292366 14.67057414 -8.04882812 13.03710938 C-8.03777954 9.02470415 -8.02050506 5.01236759 -8 1 C-5.23749964 -0.38125018 -3.05268901 -0.19079306 0 0 Z " fill="#2A2941" transform="translate(226,150)"/>
<path d="M0 0 C1.91015625 0.23046875 1.91015625 0.23046875 3.91015625 2.23046875 C4.22265625 5.23046875 4.22265625 5.23046875 3.91015625 8.23046875 C0.91015625 10.23046875 0.91015625 10.23046875 -2.71484375 9.91796875 C-6.08984375 9.23046875 -6.08984375 9.23046875 -7.08984375 8.23046875 C-7.21484375 4.73046875 -7.21484375 4.73046875 -7.08984375 1.23046875 C-5.19495423 -0.66442077 -2.51845229 0.05027763 0 0 Z " fill="#2A2941" transform="translate(172.08984375,210.76953125)"/>
<path d="M0 0 C0.721875 0.00257813 1.44375 0.00515625 2.1875 0.0078125 C2.909375 0.00523437 3.63125 0.00265625 4.375 0 C6.1875 0.1328125 6.1875 0.1328125 7.1875 1.1328125 C7.22842937 3.46578683 7.22991723 5.79986475 7.1875 8.1328125 C1.77211538 10.34819712 1.77211538 10.34819712 -1.1875 9.2578125 C-1.72375 8.8865625 -2.26 8.5153125 -2.8125 8.1328125 C-2.85491723 5.79986475 -2.85342937 3.46578683 -2.8125 1.1328125 C-1.8125 0.1328125 -1.8125 0.1328125 0 0 Z " fill="#2A2941" transform="translate(220.8125,137.8671875)"/>
</svg>
