<?xml version="1.0" encoding="UTF-8"?>
<svg version="1.1" xmlns="http://www.w3.org/2000/svg" width="141" height="141">
<path d="M0 0 C0.79742615 -0.0049649 1.59485229 -0.00992981 2.41644287 -0.01504517 C5.04545974 -0.02960861 7.67441627 -0.03645896 10.3034668 -0.04199219 C12.1380361 -0.0477483 13.97260539 -0.05350598 15.80717468 -0.05926514 C19.65123778 -0.06975849 23.49528007 -0.07561209 27.33935547 -0.07910156 C32.25190073 -0.08458363 37.16416847 -0.1086126 42.07662678 -0.13707352 C45.86601045 -0.15574653 49.65532786 -0.16090797 53.44475365 -0.16243744 C55.25515447 -0.16545382 57.06555441 -0.1734479 58.87590981 -0.18662262 C61.41488073 -0.20378147 63.95318126 -0.20177915 66.4921875 -0.1953125 C67.23168137 -0.20452728 67.97117523 -0.21374207 68.733078 -0.22323608 C76.85661069 -0.15880337 83.19890599 2.41985325 88.94018555 8.16113281 C89.98192787 10.13971133 90.98847767 12.13770698 91.94018555 14.16113281 C92.56062744 13.85820312 93.18106934 13.55527344 93.8203125 13.24316406 C96.62819476 11.8764143 99.44034673 10.5186871 102.25268555 9.16113281 C103.22915039 8.68417969 104.20561523 8.20722656 105.21166992 7.71582031 C106.14946289 7.26464844 107.08725586 6.81347656 108.0534668 6.34863281 C109.34957886 5.72021484 109.34957886 5.72021484 110.671875 5.07910156 C112.94018555 4.16113281 112.94018555 4.16113281 115.94018555 4.16113281 C115.94018555 9.77113281 115.94018555 15.38113281 115.94018555 21.16113281 C102.31262756 28.4119515 88.57181771 35.40838591 74.75268555 42.28613281 C72.81574136 43.25208771 70.87889196 44.2182327 68.94213867 45.18457031 C64.2759048 47.51227203 59.60841674 49.83743952 54.94018555 52.16113281 C54.94018555 52.82113281 54.94018555 53.48113281 54.94018555 54.16113281 C55.4379248 54.39485596 55.93566406 54.6285791 56.44848633 54.86938477 C76.44991725 64.28957198 96.18546119 74.2374946 115.94018555 84.16113281 C115.94018555 89.77113281 115.94018555 95.38113281 115.94018555 101.16113281 C110.31549789 101.16113281 110.31549789 101.16113281 107.0925293 99.48144531 C106.40481445 99.12953125 105.71709961 98.77761719 105.00854492 98.41503906 C104.30536133 98.0425 103.60217773 97.66996094 102.87768555 97.28613281 C102.17063477 96.92132813 101.46358398 96.55652344 100.73510742 96.18066406 C99.41558684 95.49922151 98.09817394 94.81366943 96.78369141 94.12255859 C94.8468909 93.11247776 92.89633538 92.13312937 90.94018555 91.16113281 C90.71331055 92.04800781 90.48643555 92.93488281 90.25268555 93.84863281 C88.36337291 98.61689804 85.64128991 101.1124225 81.31356812 103.78041077 C77.11253081 105.49989105 73.70539933 105.59050821 69.21606445 105.56518555 C68.35997086 105.5720488 67.50387726 105.57891205 66.62184143 105.58598328 C63.80330628 105.60422326 60.98532933 105.60041734 58.16674805 105.59472656 C56.19908468 105.59929014 54.2314229 105.60459624 52.26376343 105.61061096 C48.14314289 105.6195369 44.02271621 105.61712529 39.90209961 105.60717773 C34.63409354 105.59569661 29.36675863 105.61588919 24.09884071 105.64509487 C20.03577455 105.66348548 15.97286832 105.66315856 11.90977097 105.65745735 C9.96819493 105.65730445 8.02660784 105.66332331 6.08507156 105.67574883 C3.36399119 105.69070883 0.64413896 105.67994485 -2.0769043 105.6628418 C-2.87093155 105.67250977 -3.6649588 105.68217773 -4.48304749 105.69213867 C-10.82319594 105.60913675 -16.26979177 103.86230127 -20.8996582 99.37988281 C-21.44299805 98.52910156 -21.44299805 98.52910156 -21.99731445 97.66113281 C-22.56772461 96.81035156 -22.56772461 96.81035156 -23.1496582 95.94238281 C-24.80044632 92.71165585 -25.18471038 89.64739552 -25.1574707 86.05175781 C-25.15424805 85.29765625 -25.15102539 84.54355469 -25.14770508 83.76660156 C-25.13932617 82.98929687 -25.13094727 82.21199219 -25.12231445 81.41113281 C-25.11780273 80.61835937 -25.11329102 79.82558594 -25.10864258 79.00878906 C-25.0969001 77.05953773 -25.07896591 75.11032543 -25.05981445 73.16113281 C-20.24027899 70.35723782 -15.37026533 67.74811581 -10.3762207 65.27050781 C-9.6758519 64.92103088 -8.97548309 64.57155396 -8.25389099 64.21148682 C-6.04430779 63.10946586 -3.8333416 62.01025335 -1.62231445 60.91113281 C-0.112456 60.15871489 1.3973105 59.40611242 2.90698242 58.65332031 C6.58365821 56.82045792 10.26157595 54.99011068 13.94018555 53.16113281 C3.63275977 47.5965091 -6.75252734 42.31236952 -17.36523438 37.34912109 C-18.2235083 36.94677246 -19.08178223 36.54442383 -19.96606445 36.12988281 C-20.73241211 35.77345703 -21.49875977 35.41703125 -22.28833008 35.04980469 C-24.05981445 34.16113281 -24.05981445 34.16113281 -25.05981445 33.16113281 C-25.24193197 30.29203554 -25.33821126 27.47012187 -25.37231445 24.59863281 C-25.40131836 23.81166016 -25.43032227 23.0246875 -25.46020508 22.21386719 C-25.53344168 15.38032912 -23.87069951 10.10613565 -19.0949707 5.10253906 C-18.44399414 4.6475 -17.79301758 4.19246094 -17.12231445 3.72363281 C-16.47391602 3.25054688 -15.82551758 2.77746094 -15.1574707 2.29003906 C-10.42640823 -0.2561007 -5.24823671 0.0078689 0 0 Z M-8.03236389 17.43440247 C-9.40071424 19.39916606 -9.40071424 19.39916606 -9.05981445 23.16113281 C-3.4822858 26.42332294 2.15287618 29.56214571 7.84082031 32.62768555 C9.7628821 33.6811372 11.67078469 34.7608991 13.5625 35.86791992 C23.89460325 42.27675654 23.89460325 42.27675654 35.5562439 43.80563354 C40.777383 42.16352076 45.2948518 39.4721511 49.85586548 36.4914856 C52.8116304 34.60491829 55.87640116 33.15758278 59.0456543 31.65722656 C61.07406584 30.6398214 63.10144986 29.62036448 65.12768555 28.59863281 C66.18665039 28.06689453 67.24561523 27.53515625 68.33666992 26.98730469 C70.87214677 25.71382989 73.40665316 24.4384703 75.94018555 23.16113281 C75.36565808 19.23037637 75.36565808 19.23037637 72.94018555 16.16113281 C70.42699033 15.95762678 68.02350719 15.87790284 65.50878906 15.88647461 C64.74278381 15.88136368 63.97677856 15.87625275 63.18756104 15.87098694 C60.64799246 15.85705341 58.10869412 15.85805053 55.5690918 15.86035156 C53.80793659 15.85646661 52.04678232 15.85213236 50.28562927 15.84736633 C46.59094203 15.83989598 42.89635033 15.84020122 39.20166016 15.84545898 C34.46226104 15.85125387 29.72325268 15.83432624 24.98391819 15.81111431 C21.34569504 15.7963963 17.70756641 15.79550264 14.06931877 15.79862404 C12.32177901 15.79810982 10.57423409 15.79285335 8.8267231 15.78281212 C6.38454792 15.77050259 3.94313908 15.77720595 1.50097656 15.78881836 C0.77619614 15.78117462 0.05141571 15.77353088 -0.69532776 15.76565552 C-3.55964757 15.79582472 -5.59069458 15.85831856 -8.03236389 17.43440247 Z M25.25268555 65.41113281 C23.83143693 66.14281955 22.40951522 66.87319977 20.98706055 67.60253906 C20.19750977 68.00746582 19.40795898 68.41239258 18.59448242 68.82958984 C15.60994084 70.32680193 12.59848542 71.75926471 9.58081055 73.18847656 C8.49372803 73.71086914 7.40664551 74.23326172 6.28662109 74.77148438 C4.11491944 75.81446948 1.93671461 76.8440311 -0.24804688 77.859375 C-1.24682861 78.34438477 -2.24561035 78.82939453 -3.2746582 79.32910156 C-4.1730542 79.75473389 -5.0714502 80.18036621 -5.99707031 80.61889648 C-8.30995005 82.02862305 -8.30995005 82.02862305 -8.85888672 84.83813477 C-8.92519287 85.60472412 -8.99149902 86.37131348 -9.05981445 87.16113281 C-5.53556992 90.55193848 -2.2534223 90.58971693 2.39916992 90.54931641 C3.51694572 90.55720184 3.51694572 90.55720184 4.65730286 90.56524658 C7.1163947 90.57843223 9.57483731 90.56971391 12.03393555 90.55957031 C13.74499638 90.56159147 15.45605637 90.56450325 17.16711426 90.56826782 C20.75154835 90.57268922 24.33575803 90.56626613 27.92016602 90.55224609 C32.51370863 90.53515422 37.10672539 90.5449964 41.70024872 90.56296349 C45.23301146 90.57380635 48.76564963 90.57035269 52.29841614 90.56258011 C53.99209149 90.56057949 55.68577818 90.56303254 57.37944031 90.57001877 C59.74699851 90.57764164 62.11370628 90.56601808 64.48120117 90.54931641 C65.53021355 90.55842545 65.53021355 90.55842545 66.60041809 90.56771851 C70.66203829 90.514663 72.9811669 90.00811381 75.94018555 87.16113281 C76.1251019 84.80937697 76.1251019 84.80937697 74.94018555 82.16113281 C72.24339946 80.12664133 69.23711778 78.75199243 66.19799805 77.29785156 C65.31868622 76.8610054 64.43937439 76.42415924 63.53341675 75.97407532 C61.67299439 75.05394745 59.80827501 74.14246475 57.93969727 73.23901367 C55.0748874 71.85332553 52.22366675 70.44245269 49.3737793 69.02636719 C47.56592348 68.13619507 45.75735255 67.24747351 43.94799805 66.36035156 C43.09166779 65.93856125 42.23533752 65.51677094 41.35305786 65.0821991 C40.55568207 64.69792252 39.75830627 64.31364594 38.93676758 63.91772461 C38.23584991 63.57750778 37.53493225 63.23729095 36.81277466 62.88676453 C32.33074613 61.14997025 29.17470427 63.37136904 25.25268555 65.41113281 Z " fill="#0090FF" transform="translate(25.059814453125,17.8388671875)"/>
</svg>
