<?xml version="1.0" encoding="UTF-8"?>
<svg version="1.1" xmlns="http://www.w3.org/2000/svg" width="200" height="200">
<path d="M0 0 C3.66301861 3.84170244 4.45112141 5.2841298 4.875 10.625 C4.76241617 14.4176678 3.98857475 16.675821 1.5625 19.6875 C-2.91555355 23.7177482 -6.18332192 24.71712063 -12.13623047 25.28222656 C-31.97862686 27.21237025 -47.40181119 35.05184144 -60.5390625 50.09375 C-71.89774935 65.10523041 -74.91973588 83.3810104 -72.4375 101.6875 C-68.85235007 118.89232275 -59.43425654 133.8166379 -44.75 143.5625 C-29.94790805 152.88671664 -12.5170255 155.85634791 4.625 152.5 C20.73169112 148.62939981 35.57055893 140.33069937 44.62548828 126.00585938 C50.06431245 116.91452712 53.91546027 108.06566142 55.03515625 97.44140625 C55.15431396 96.3119458 55.15431396 96.3119458 55.27587891 95.15966797 C55.42153996 93.67481376 55.54857767 92.18797301 55.65380859 90.69970703 C56.10029513 85.67351087 57.41047177 82.60845877 60.5625 78.6875 C65.05308584 75.37301997 68.87960994 75.31181504 74.22265625 76.04296875 C78.43191582 77.2024476 80.45042904 79.88531408 82.6640625 83.47265625 C87.40208478 95.15291117 81.64933429 112.93305828 77.25 124.0625 C72.4124772 134.72269463 66.30878067 143.92417168 58.5625 152.6875 C58.01078125 153.32300781 57.4590625 153.95851562 56.890625 154.61328125 C43.98725029 168.50676639 22.43366358 179.77173449 3.49487305 180.86450195 C-26.81574923 181.40750147 -50.65181342 176.47999112 -73.43823242 155.13354492 C-90.6786059 138.43715776 -100.29471405 116.61839565 -100.90991211 92.67260742 C-101.12551653 64.9474058 -91.86379137 42.49710595 -72.5625 22.5 C-58.72520922 9.06105547 -19.06807357 -14.74476333 0 0 Z " fill="#0E50F1" transform="translate(100.4375,19.3125)"/>
<path d="M0 0 C3.14159 2.66677412 5.36576661 4.90409519 5.84765625 9.1171875 C6.1556657 17.7888382 6.1556657 17.7888382 3.32421875 21.2890625 C-0.81701417 24.95970077 -3.83851798 25.92051695 -9.30078125 26.6015625 C-15.65153314 27.59821334 -19.33544021 29.40396134 -23.67578125 34.2265625 C-27.9224471 40.29322801 -28.18683418 45.39790464 -27.42578125 52.7265625 C-25.56374828 58.96688922 -22.17075469 62.42132329 -16.66796875 65.80859375 C-10.91761424 68.16283297 -3.45280332 67.5303816 2.19921875 65.2890625 C2.98296875 64.7734375 3.76671875 64.2578125 4.57421875 63.7265625 C5.56421875 63.3965625 6.55421875 63.0665625 7.57421875 62.7265625 C10.8969614 57.24403713 12.45775659 50.74335163 13.44921875 44.4765625 C14.314612 39.87066784 15.72352799 37.59219283 19.57421875 34.7265625 C23.24013485 32.5468286 26.36585245 32.44832002 30.578125 33.1171875 C34.6173569 34.35029939 37.50355775 36.9812384 39.71484375 40.5859375 C43.08034038 48.96908365 39.74423595 58.79658177 36.57421875 66.7265625 C29.98986184 80.71581927 19.32332725 88.01851187 5.390625 93.6015625 C-6.02384845 97.13636718 -18.84507225 95.00546793 -29.42578125 90.1015625 C-41.32188152 83.8285236 -48.88408573 74.69196108 -53.86328125 62.2265625 C-57.89241299 48.84844974 -56.42119241 35.08325231 -49.91796875 22.90234375 C-42.72185166 10.63547439 -32.98369658 4.620528 -20.05078125 -0.6484375 C-5.88704409 -3.09046115 -5.88704409 -3.09046115 0 0 Z " fill="#0E50F1" transform="translate(99.42578125,61.2734375)"/>
<path d="M0 0 C15.04443012 4.52408903 28.07964872 11.33443597 39.7421875 21.9296875 C40.36222656 22.46851562 40.98226562 23.00734375 41.62109375 23.5625 C52.16189359 33.29623164 58.69782129 45.71625046 63.7421875 58.9296875 C64.103125 59.84621094 64.4640625 60.76273438 64.8359375 61.70703125 C67.12470301 68.24484755 67.86548721 75.07399322 66.7421875 81.9296875 C64.55193832 86.0691207 62.18660572 88.44821476 57.7421875 89.9296875 C55.7265625 90.23828125 55.7265625 90.23828125 53.4921875 90.3671875 C52.76515625 90.42777344 52.038125 90.48835938 51.2890625 90.55078125 C47.13225317 89.53708082 44.44068161 87.20184107 41.7421875 83.9296875 C40.29662112 80.83599353 39.52271509 77.68294141 38.7421875 74.3671875 C33.98289284 56.70173943 25.36615409 43.36330164 9.43359375 33.90234375 C2.14080907 29.83963483 -5.80439743 27.59101571 -13.8203125 25.4296875 C-18.07130368 24.19913742 -20.49613819 22.49313822 -23.2578125 18.9296875 C-24.84902704 14.15604388 -25.05660335 9.77951895 -23.0703125 5.1796875 C-16.61685837 -2.83149693 -9.54962076 -2.58893247 0 0 Z " fill="#FF9E1A" transform="translate(133.2578125,1.0703125)"/>
<path d="M0 0 C4.02248688 1.89392091 7.46713105 4.31586834 11 7 C11.73476562 7.52851562 12.46953125 8.05703125 13.2265625 8.6015625 C19.79010817 13.74596316 24.3709418 21.11282539 27 29 C27.54096392 34.73421758 26.57356201 37.50752204 23 42 C20.04671516 45.42581041 17.75137468 45.93841191 13.1875 46.3125 C8.70033604 46.20585808 6.38057233 45.08660952 3 42 C1.4004535 39.51693436 -0.0493837 36.97492109 -1.5 34.40234375 C-4.23355793 30.02437987 -7.87714706 27.7265519 -12.1875 24.9375 C-15.92703813 22.36137373 -17.57229223 20.2831233 -19 16 C-19.39544498 11.80828319 -19.26960901 9.51924698 -17.3125 5.75 C-12.43016487 -0.05602015 -7.40144807 -1.46136546 0 0 Z " fill="#FF9E1A" transform="translate(128,45)"/>
</svg>
