<?xml version="1.0" encoding="UTF-8"?>
<svg version="1.1" xmlns="http://www.w3.org/2000/svg" width="400" height="400">
<path d="M0 0 C3.625 1.125 3.625 1.125 4.79907227 2.67504883 C7.25387898 7.73844075 8.48942592 12.3695418 9.1875 17.9375 C9.30552979 18.78207764 9.42355957 19.62665527 9.54516602 20.49682617 C10.39785956 26.7884743 11.04705569 33.09835011 11.69677734 39.41357422 C13.14637699 53.38121193 14.53552981 66.71842718 21.625 79.125 C24.22256446 78.1725597 25.40579744 77.49965013 26.8203125 75.08203125 C28.13525129 70.24995035 28.33760114 65.32176038 28.66015625 60.33789062 C29.17869968 54.19853209 30.40241563 47.95463384 35.23876953 43.70800781 C39.14789051 41.01783396 42.95500433 40.68326924 47.609375 40.69140625 C49.625 41.125 49.625 41.125 51.390625 42.15234375 C53.69007468 45.8270972 53.02952616 50.1155705 52.20605469 54.20605469 C51.66936019 56.31399948 51.08837701 58.40594322 50.5 60.5 C48.58709838 67.95464245 47.90121971 73.9741937 51.62890625 81.0234375 C52.80510163 82.87236456 54.07174084 84.57174084 55.625 86.125 C62.44162899 86.71170872 67.23104538 85.06574865 73.4375 82.375 C75.20527223 81.63822561 76.97349838 80.90253935 78.7421875 80.16796875 C79.58362305 79.81395996 80.42505859 79.45995117 81.29199219 79.09521484 C84.1910578 77.88959672 87.11459996 76.76786119 90.0625 75.6875 C90.84496094 75.40003906 91.62742188 75.11257812 92.43359375 74.81640625 C97.3637008 73.26091793 102.46789267 72.36956436 107.625 73.125 C113.125 76.125 113.125 76.125 114.625 79.125 C115.30862157 86.07515259 115.30862157 86.07515259 112.875 89.8125 C104.89915527 95.48762029 95.11622026 98.07348046 85.85668945 100.98217773 C78.7836685 103.17109978 78.7836685 103.17109978 73.25 107.875 C72.24800371 111.48218665 72.54000792 113.50835974 73.625 117.125 C75.58614523 119.44534447 77.66433195 121.47890852 79.91015625 123.5234375 C80.47605469 124.05195313 81.04195312 124.58046875 81.625 125.125 C81.625 125.455 81.625 125.785 81.625 126.125 C80.90054688 126.22296875 80.17609375 126.3209375 79.4296875 126.421875 C73.6485091 127.31603059 69.10601336 128.09208798 64.625 132.125 C62.15279366 135.63393803 61.63880368 137.69708591 61.5 142 C62.51202041 147.36677489 65.46364854 150.73705761 69.625 154.125 C77.25676264 158.84300543 85.60939013 161.9390065 93.9375 165.1875 C105.63090115 169.76862206 114.60046597 174.37601297 120.0625 186.25 C120.73231105 189.67347868 120.70957076 191.79898302 119.625 195.125 C116.98990258 197.99260602 115.0590734 199.00214904 111.3125 200.0625 C103.0944192 200.20178951 98.24230626 196.54716746 92.46875 191.12109375 C88.22579616 186.791518 84.48546051 182.01308309 80.6730957 177.30761719 C72.33581559 166.46197953 72.33581559 166.46197953 60.625 160.125 C57.28048521 160.33524563 57.28048521 160.33524563 54.625 162.125 C54.39136119 163.97391946 54.21196365 165.82988031 54.0625 167.6875 C53.97871094 168.69941406 53.89492187 169.71132812 53.80859375 170.75390625 C53.74800781 171.53636719 53.68742188 172.31882813 53.625 173.125 C52.635 172.63128906 51.645 172.13757813 50.625 171.62890625 C49.2919621 170.98116248 47.95861182 170.33406133 46.625 169.6875 C45.97660156 169.36201172 45.32820312 169.03652344 44.66015625 168.70117188 C38.1563469 165.5780555 31.85249423 164.13495753 24.69921875 166.28515625 C16.22914125 169.71466032 11.31035278 174.82485063 7.625 183.125 C4.42499165 191.73523268 2.23508877 200.58566668 0.0625 209.5 C-2.73233833 220.88273108 -5.27139267 231.20181244 -15.21875 238.47265625 C-20.52902111 241.50865141 -26.30358756 242.37242433 -32.375 242.125 C-35.44840993 240.93326962 -36.72894535 240.14715076 -38.46875 237.39453125 C-40.69464861 231.82019034 -40.27924539 224.9347582 -38.46484375 219.296875 C-34.72050907 211.4470158 -29.66724585 206.08234414 -22.9375 200.6875 C-13.86913588 193.40570218 -7.04068916 185.97925951 -5.5625 174.0625 C-5.28189891 169.55885244 -5.36918598 165.53510761 -6.375 161.125 C-9.47006929 158.0083372 -12.00645691 157.66758139 -16.3125 157.625 C-30.38349909 158.07639267 -41.375073 165.84730655 -53.04296875 172.96875 C-69.64580947 182.97843777 -69.64580947 182.97843777 -79.375 182.125 C-82.78418784 180.00372756 -85.15769305 177.99824937 -86.375 174.125 C-86.9191133 169.92755454 -86.70875032 167.74305615 -84.6875 164 C-77.05242962 155.96664739 -63.04402529 154.82504128 -52.625 153.0625 C-42.79476492 151.39119538 -33.80170515 149.74280343 -25.375 144.125 C-23.94631625 139.6852296 -24.19837989 135.75875453 -25.4375 131.3125 C-29.67384334 124.34303193 -37.00560156 122.59020802 -44.375 120.125 C-44.375 119.465 -44.375 118.805 -44.375 118.125 C-42.6734375 117.67060547 -42.6734375 117.67060547 -40.9375 117.20703125 C-27.3026468 113.67509529 -27.3026468 113.67509529 -16.375 105.125 C-15.63603143 98.89655063 -16.50870373 94.14780176 -20.375 89.125 C-28.08201605 83.28640849 -37.30260249 80.23262915 -46.2734375 76.9140625 C-53.78120154 74.03913822 -60.60777104 71.01641573 -65.375 64.3125 C-67.15261034 58.64636705 -67.37236443 54.11972887 -64.6875 48.75 C-60.93792546 44.49372619 -57.38695662 42.45306502 -51.6171875 41.94140625 C-45.19352199 42.46738583 -40.21782977 46.02072637 -36.00390625 50.66015625 C-31.32913593 56.18534431 -27.53118174 62.27040475 -23.625 68.34765625 C-17.12614388 78.95844456 -17.12614388 78.95844456 -7.375 86.125 C-4.83209375 86.70850505 -4.83209375 86.70850505 -2.375 86.125 C-0.60304126 83.83856188 -0.60304126 83.83856188 0.625 81.125 C1.615 79.64 1.615 79.64 2.625 78.125 C3.285 78.785 3.945 79.445 4.625 80.125 C6.69374034 80.7675235 6.69374034 80.7675235 8.625 81.125 C12.18950893 59.89292509 2.87676642 38.26757346 -3.40698242 18.29101562 C-4.64855019 14.23032185 -5.52695455 10.75123621 -5.5625 6.5 C-5.57667969 5.72398438 -5.59085937 4.94796875 -5.60546875 4.1484375 C-5.17095062 0.33351558 -3.60363284 0.13346788 0 0 Z " fill="#A6CE41" transform="translate(86.375,80.875)"/>
<path d="M0 0 C3.0625 2.125 3.0625 2.125 5 5 C5.7066341 9.3968344 5.51930235 11.23727467 3 14.9375 C2.34 15.618125 1.68 16.29875 1 17 C-0.65 16.67 -2.3 16.34 -4 16 C-4 13 -4 13 -3 12 C-2.63239269 9.67182036 -2.29758419 7.3381615 -2 5 C-6.77414502 5.80324957 -6.77414502 5.80324957 -10.23046875 8.796875 C-11.55956375 12.60199978 -11.12432766 16.17025891 -10 20 C-7.62425779 22.58917968 -7.62425779 22.58917968 -5 24 C-5.54269531 24.36351562 -6.08539063 24.72703125 -6.64453125 25.1015625 C-12.27956085 29.06131303 -15.07424432 32.21983096 -16.75 39.0625 C-16.99779367 41.97407559 -16.74422042 44.18850063 -16 47 C-10.9314672 47.36203806 -6.31032381 47.39060725 -1.7578125 44.91796875 C2.42350485 40.35568693 2.91182282 32.92568762 4 27 C5.90280066 18.09719934 5.90280066 18.09719934 7 17 C8.62252492 16.90113647 10.24947273 16.87028833 11.875 16.875 C12.75929687 16.87242187 13.64359375 16.86984375 14.5546875 16.8671875 C17 17 17 17 20 18 C20.66 17.67 21.32 17.34 22 17 C25.94137754 16.74295364 28.64431083 16.84277125 32 19 C32.99 19.99 32.99 19.99 34 21 C34.40476562 20.52433594 34.80953125 20.04867187 35.2265625 19.55859375 C38.34009066 16.82225513 41.98072883 16.8169859 46 17 C49.0625 18.1875 49.0625 18.1875 51 21 C51.96400217 27.98388805 50.88141227 34.2974688 49 41 C48.82987987 43.83423492 48.82987987 43.83423492 49 46 C50.32 46 51.64 46 53 46 C53.21914063 45.03320312 53.43828125 44.06640625 53.6640625 43.0703125 C58.01361515 24.8195708 58.01361515 24.8195708 64.953125 19.50390625 C68.96025366 17.29386773 72.38699324 16.46360387 77 17 C78.485 17.495 78.485 17.495 80 18 C80.495 17.505 80.495 17.505 81 17 C82.68608966 16.92794489 84.37500659 16.91613932 86.0625 16.9375 C86.98160156 16.94652344 87.90070313 16.95554688 88.84765625 16.96484375 C89.55792969 16.97644531 90.26820313 16.98804688 91 17 C92.39366916 19.78733832 91.66948714 21.31463499 91.00390625 24.33984375 C90.66069336 25.9340918 90.66069336 25.9340918 90.31054688 27.56054688 C90.06369141 28.67494141 89.81683594 29.78933594 89.5625 30.9375 C89.08199699 33.13353894 88.60401514 35.33013149 88.12890625 37.52734375 C87.80515015 38.99288696 87.80515015 38.99288696 87.47485352 40.48803711 C86.90712643 43.06522357 86.90712643 43.06522357 87 46 C88.65 45.67 90.3 45.34 92 45 C92.25394531 43.98421875 92.50789063 42.9684375 92.76953125 41.921875 C94.84635417 33.61458333 96.92317708 25.30729167 99 17 C102.63 17 106.26 17 110 17 C109.40071636 24.00215616 108.3786571 30.7502223 106.9375 37.625 C106.75123047 38.53378906 106.56496094 39.44257813 106.37304688 40.37890625 C105.91982704 42.5869003 105.46210307 44.79385124 105 47 C107.97115156 46.68036511 107.97115156 46.68036511 111 45 C115.48726802 37.35439004 116.10190025 26.42274864 117.83789062 17.86523438 C118.08861328 16.65544922 118.33933594 15.44566406 118.59765625 14.19921875 C118.81945557 13.10440186 119.04125488 12.00958496 119.26977539 10.8815918 C120.52184763 5.94069956 120.52184763 5.94069956 122 4 C124.6015625 3.390625 124.6015625 3.390625 127.625 3.25 C128.62789062 3.19328125 129.63078125 3.1365625 130.6640625 3.078125 C131.43492187 3.05234375 132.20578125 3.0265625 133 3 C132.23086611 6.87533928 131.45959358 10.75024933 130.6875 14.625 C130.4603833 15.76606201 130.2332666 16.90712402 129.99926758 18.08276367 C128.57365845 25.21689085 127.09168982 32.33106746 125.48046875 39.42578125 C124.8776814 42.21890359 124.8776814 42.21890359 125 46 C128.24208567 45.64950425 129.61527704 45.43778819 131.8125 42.9375 C132.204375 42.298125 132.59625 41.65875 133 41 C134.32 41.33 135.64 41.66 137 42 C133.82099684 47.57340129 130.92348498 52.03825751 125 55 C118.8125 55.45833333 118.8125 55.45833333 115.5625 53.625 C114 52 114 52 114 50 C113.195625 50.639375 112.39125 51.27875 111.5625 51.9375 C107.70884276 54.50965602 103.60229337 55.25103418 99 55 C96.38816457 53.94576825 95.01001212 53.01001212 93 51 C92.154375 51.66 91.30875 52.32 90.4375 53 C86.46412407 55.31178236 84.51990817 55.65744119 80 55 C77.0625 53 77.0625 53 75 51 C73.5459375 52.0209375 73.5459375 52.0209375 72.0625 53.0625 C68.19160069 55.28234226 65.27007029 55.22940533 60.91796875 54.75 C59 54 59 54 57.73828125 51.9375 C57.49464844 51.298125 57.25101562 50.65875 57 50 C56.01 50.825 55.02 51.65 54 52.5 C49.74889103 55.51191931 47.14415982 55.8297032 42 55 C39 53 39 53 37 50 C36.64617573 44.13662642 37.39446205 38.74680536 38.5 33 C38.64308594 32.22527344 38.78617187 31.45054687 38.93359375 30.65234375 C39.28272329 28.76704421 39.64045316 26.88334061 40 25 C38.03729239 25.24176046 38.03729239 25.24176046 36 26 C33.16311816 32.05201459 31.79509577 38.50524513 30.3125 45 C30.08755859 45.96550781 29.86261719 46.93101562 29.63085938 47.92578125 C29.08245659 50.28274641 28.54055324 52.64122223 28 55 C24.37 55 20.74 55 17 55 C17.66048315 48.22135711 18.74691622 41.61769044 20.0625 34.9375 C20.24876953 33.97650391 20.43503906 33.01550781 20.62695312 32.02539062 C21.08145562 29.68295469 21.53918902 27.34120156 22 25 C20.03819172 25.23636798 20.03819172 25.23636798 18 26 C15.30647605 31.7383771 14.07773837 37.67849191 12.875 43.875 C12.54148869 45.56037776 12.20566412 47.24529991 11.8671875 48.9296875 C11.72394043 49.66429199 11.58069336 50.39889648 11.43310547 51.15576172 C11 53 11 53 10 55 C6.37 55 2.74 55 -1 55 C-1 53.35 -1 51.7 -1 50 C-1.53109375 50.34933594 -2.0621875 50.69867188 -2.609375 51.05859375 C-3.66898438 51.74115234 -3.66898438 51.74115234 -4.75 52.4375 C-5.44609375 52.88996094 -6.1421875 53.34242188 -6.859375 53.80859375 C-11.30319095 56.28188547 -15.98733198 56.52255613 -21 56 C-24.81248738 54.68029283 -26.66857107 53.36631619 -29.375 50.375 C-31.92449812 45.07988853 -32.00020789 40.89847477 -30.08203125 35.33984375 C-27.60889529 29.90534758 -25.331746 26.72787004 -20 24 C-20.33 23.34 -20.66 22.68 -21 22 C-22.54376438 17.36870687 -22.9358313 13.39833974 -21.16015625 8.84765625 C-18.6899445 4.3813138 -15.90607595 1.56219 -11.18359375 -0.4375 C-7.26165684 -1.44780217 -3.84219675 -1.24907917 0 0 Z M74 23 C67.35257542 30.34715348 66.68767686 36.24857754 67 46 C69.34533951 46.76956136 69.34533951 46.76956136 72 47 C74.89810389 44.84006309 75.52550223 42.81021206 76.16796875 39.33203125 C76.33876953 38.43935547 76.50957031 37.54667969 76.68554688 36.62695312 C76.85119141 35.69818359 77.01683594 34.76941406 77.1875 33.8125 C77.36474609 32.87212891 77.54199219 31.93175781 77.72460938 30.96289062 C78.16020076 28.6436608 78.58487885 26.32296592 79 24 C77.35 23.67 75.7 23.34 74 23 Z " fill="#141414" transform="translate(215,182)"/>
<path d="M0 0 C-1.4251931 9.10551833 -3.21785024 18.10938297 -5.125 27.125 C-5.67160758 29.71046016 -6.21542625 32.29645834 -6.7578125 34.8828125 C-6.9964502 36.01090332 -7.23508789 37.13899414 -7.48095703 38.30126953 C-8.06295572 40.86930244 -8.06295572 40.86930244 -8 43 C-5.55519921 42.81171228 -5.55519921 42.81171228 -3 42 C-1.63979849 40.03241727 -1.63979849 40.03241727 -1 38 C0.32 38 1.64 38 3 38 C1.58680587 43.06394565 -0.19510505 47.30167753 -4.8515625 50.12109375 C-8.49660308 51.61224671 -12.12985534 51.48998162 -16 51 C-18.5625 49.5 -18.5625 49.5 -20 48 C-20.474375 48.474375 -20.94875 48.94875 -21.4375 49.4375 C-25.14071567 51.69555834 -28.67111008 52.41120716 -33 52 C-35.52712319 50.6051927 -36.97880174 49.12484945 -39 47 C-39.639375 47.639375 -40.27875 48.27875 -40.9375 48.9375 C-44.88474478 51.59584852 -48.25414963 52.37760835 -53 52 C-56.0625 50.25 -56.0625 50.25 -58 48 C-58 47.01 -58 46.02 -58 45 C-58.60328125 45.42152344 -59.2065625 45.84304688 -59.828125 46.27734375 C-60.62734375 46.82519531 -61.4265625 47.37304688 -62.25 47.9375 C-63.03890625 48.48277344 -63.8278125 49.02804687 -64.640625 49.58984375 C-69.08634146 52.24696899 -73.88299378 52.70850855 -79 52 C-82.44246086 50.27876957 -84.40418623 49.00205044 -86.375 45.6875 C-88.34856976 37.20115002 -85.95140198 29.07104905 -81.75 21.625 C-79.14702663 17.80936545 -76.46196577 15.36171316 -72 14 C-68.60349726 13.5502348 -65.37374658 13.34530442 -62 14 C-59.53990645 15.90173524 -59.0300665 16.90579165 -58.0625 19.9375 C-58 23 -58 23 -59.9375 25.375 C-60.618125 25.91125 -61.29875 26.4475 -62 27 C-62.99 26.67 -63.98 26.34 -65 26 C-65.33 23.69 -65.66 21.38 -66 19 C-71.14106498 23.16843106 -72.78988956 27.54925382 -74 34 C-74.25413578 37.09121524 -74.19759647 39.88785553 -74 43 C-73.67 43.33 -73.34 43.66 -73 44 C-67.81741326 43.82431909 -64.46184077 43.43662213 -60.39819336 39.85449219 C-57.3354761 35.7922606 -56.66946474 30.57022998 -55.625 25.6875 C-55.36589844 24.56537109 -55.10679687 23.44324219 -54.83984375 22.28710938 C-54.20614621 19.52935156 -53.60030168 16.76521946 -53 14 C-49.37 14 -45.74 14 -42 14 C-42.51272702 20.87054207 -43.66128972 27.24864714 -45.37890625 33.921875 C-46.00672011 37.03330472 -46.10896587 39.83525218 -46 43 C-44.04105639 42.88693303 -44.04105639 42.88693303 -42 42 C-40.32798761 39.02753353 -39.81056532 35.99717725 -39.1875 32.6875 C-37.51029339 24.87353744 -33.3462505 19.65391703 -27 15 C-23.85658007 13.42829004 -20.44228549 13.76824217 -17 14 C-16.01 14.33 -15.02 14.66 -14 15 C-13.92652344 14.11248047 -13.92652344 14.11248047 -13.8515625 13.20703125 C-12.98239085 4.02078606 -12.98239085 4.02078606 -11 1 C-7.30568843 -0.06724556 -3.81710097 -0.01944194 0 0 Z M-19 19 C-24.17389314 21.65327853 -25.54713698 25.93531913 -27.27734375 31.16796875 C-28.26243115 35.0284464 -28.43221228 38.03805414 -28 42 C-27.34 42.66 -26.68 43.32 -26 44 C-23.39190709 43.83173594 -22.29073494 43.30266253 -20.4765625 41.4140625 C-18.54877076 38.262276 -17.94932683 35.08432587 -17.3125 31.5 C-17.11817383 30.50419922 -17.11817383 30.50419922 -16.91992188 29.48828125 C-16.30744493 26.24118126 -16 23.31956054 -16 20 C-16.99 19.67 -17.98 19.34 -19 19 Z " fill="#151515" transform="translate(396,248)"/>
<path d="M0 0 C3 1 3 1 4.30273438 3.12963867 C4.72876953 4.0497876 5.15480469 4.96993652 5.59375 5.91796875 C6.06683594 6.92537109 6.53992188 7.93277344 7.02734375 8.97070312 C7.75630859 10.56301758 7.75630859 10.56301758 8.5 12.1875 C9.46847353 14.26445186 10.43721585 16.3412784 11.40625 18.41796875 C11.85613281 19.39556152 12.30601562 20.3731543 12.76953125 21.38037109 C13.73857397 23.44343228 14.77863579 25.47313932 15.84375 27.48828125 C17 30 17 30 17 34 C10.94696895 34.26570232 5.47088194 33.25909363 -0.4375 32 C-1.82098633 31.71382812 -1.82098633 31.71382812 -3.23242188 31.421875 C-5.48963929 30.95405792 -7.7453418 30.47997253 -10 30 C-10 30.66 -10 31.32 -10 32 C-8.31583984 32.18175781 -8.31583984 32.18175781 -6.59765625 32.3671875 C1.04636221 33.21510116 8.53152556 34.09893378 16 36 C16 36.66 16 37.32 16 38 C3.99946429 44.46138629 -5.72256807 48.12415923 -19.44921875 47.21875 C-20.62097656 47.1465625 -21.79273438 47.074375 -23 47 C-23.33 47.33 -23.66 47.66 -24 48 C-26.33297433 48.04092937 -28.66705225 48.04241723 -31 48 C-29.125 42.25 -29.125 42.25 -28 40 C-28.66 40 -29.32 40 -30 40 C-30.309375 40.94875 -30.61875 41.8975 -30.9375 42.875 C-32 46 -32 46 -33 48 C-37.29410766 49.77116013 -41.26001855 50.34245012 -45.875 50.625 C-47.02742188 50.69976562 -48.17984375 50.77453125 -49.3671875 50.8515625 C-50.23601562 50.90054688 -51.10484375 50.94953125 -52 51 C-53.50978518 48.06742967 -55.00610203 45.12819106 -56.5 42.1875 C-56.92925781 41.35412109 -57.35851562 40.52074219 -57.80078125 39.66210938 C-58.20683594 38.85966797 -58.61289063 38.05722656 -59.03125 37.23046875 C-59.40830078 36.49207764 -59.78535156 35.75368652 -60.17382812 34.99291992 C-61 33 -61 33 -61 30 C-55.6035687 30.96048894 -50.21550525 31.95240206 -44.83984375 33.0234375 C-43.92162842 33.20422852 -43.00341309 33.38501953 -42.05737305 33.57128906 C-40.21272989 33.93511641 -38.36909537 34.3041028 -36.52661133 34.67871094 C-27.88226529 36.60842575 -27.88226529 36.60842575 -19.48535156 34.79174805 C-16.65461482 32.75100375 -15.62145324 31.12689298 -14.0625 28.02734375 C-13.55976562 27.04443359 -13.05703125 26.06152344 -12.5390625 25.04882812 C-11.77722656 23.5087207 -11.77722656 23.5087207 -11 21.9375 C-10.23816406 20.43799805 -10.23816406 20.43799805 -9.4609375 18.90820312 C-7.95952076 15.9457924 -6.47753564 12.97438224 -5 10 C-4.04206175 8.08443779 -3.08375767 6.16905846 -2.125 4.25390625 C-1.41653569 2.83600294 -0.70814911 1.41806076 0 0 Z " fill="#FDFDFA" transform="translate(130,170)"/>
<path d="M0 0 C-1.67818739 11.35682766 -4.19350268 22.53641765 -6.625 33.75 C-7.04973489 35.71869485 -7.47421612 37.68744444 -7.8984375 39.65625 C-8.92936821 44.43813618 -9.96372897 49.21926839 -11 54 C-14.96 54 -18.92 54 -23 54 C-21.35 45.42 -19.7 36.84 -18 28 C-20.64 27.67 -23.28 27.34 -26 27 C-31.10850345 39.19293747 -34.14540386 49.70878116 -35 63 C-41.35470441 62.52039967 -41.35470441 62.52039967 -43.9375 60.4375 C-47.58747036 52.0640386 -43.05673962 42.9579142 -40 35 C-38.77219588 32.2423441 -37.45784815 29.64572443 -36 27 C-37.65 27.33 -39.3 27.66 -41 28 C-40.979375 28.804375 -40.95875 29.60875 -40.9375 30.4375 C-41 33 -41 33 -42 34 C-45.5 34.125 -45.5 34.125 -49 34 C-50 33 -50 33 -50.375 29.6875 C-50 26 -50 26 -47.875 23.6875 C-44.38280081 21.63773091 -41.16689288 20.06513706 -37.05078125 19.94140625 C-33.7588105 19.8348091 -31.75739962 19.73966192 -29.33203125 17.37109375 C-27.79954568 15.29495006 -26.38753056 13.17526404 -25 11 C-18.04654297 1.66772872 -11.27398354 -1.47051959 0 0 Z M-15 7 C-21.17869278 13.7973042 -21.17869278 13.7973042 -24 22 C-21.36 22.66 -18.72 23.32 -16 24 C-15.49622232 21.73000175 -14.99709981 19.45896997 -14.5 17.1875 C-14.2215625 15.92292969 -13.943125 14.65835937 -13.65625 13.35546875 C-12.90403008 10.07913666 -12.90403008 10.07913666 -13 7 C-13.66 7 -14.32 7 -15 7 Z " fill="#141414" transform="translate(313,245)"/>
<path d="M0 0 C-1.94342383 6.0981564 -4.56598992 11.72977563 -7.3125 17.5 C-8.0230957 19.02947266 -8.0230957 19.02947266 -8.74804688 20.58984375 C-14.84803438 33.42401719 -14.84803438 33.42401719 -20 36 C-26.90761364 36.5643448 -33.34553561 35.57081601 -40.0625 34.0625 C-46.37777543 32.68027034 -52.56008591 31.61610457 -59 31 C-56.97066405 25.64993251 -52.11900885 23.99723361 -47.25732422 21.56396484 C-46.34643036 21.10694183 -45.4355365 20.64991882 -44.49703979 20.17904663 C-43.52606354 19.69457062 -42.55508728 19.2100946 -41.5546875 18.7109375 C-40.54785919 18.20704498 -39.54103088 17.70315247 -38.50369263 17.18399048 C-36.38104594 16.12232763 -34.25789615 15.06167013 -32.13427734 14.00195312 C-28.87837899 12.37668671 -25.62464108 10.74715429 -22.37109375 9.1171875 C-20.30741992 8.08568087 -18.24362208 7.05442231 -16.1796875 6.0234375 C-15.20466278 5.53491302 -14.22963806 5.04638855 -13.22506714 4.5430603 C-12.3204776 4.09234161 -11.41588806 3.64162292 -10.48388672 3.17724609 C-9.68844452 2.77992279 -8.89300232 2.38259949 -8.07345581 1.97323608 C-5.22799578 0.63763763 -3.16557497 0 0 0 Z " fill="#FDFEFB" transform="translate(128,168)"/>
<path d="M0 0 C0.99 0.33 1.98 0.66 3 1 C2.34 1 1.68 1 1 1 C0.77054688 1.79664063 0.54109375 2.59328125 0.3046875 3.4140625 C-1.35495013 7.9755815 -3.57430495 12.10898819 -5.875 16.375 C-6.74819621 18.00738461 -7.62060038 19.64019317 -8.4921875 21.2734375 C-8.9159668 22.06331055 -9.33974609 22.85318359 -9.77636719 23.66699219 C-11.26598507 26.50713355 -12.65425207 29.39024609 -14.01220703 32.29541016 C-15.87433125 35.50879407 -17.46041884 36.82013961 -21 38 C-25.6959304 38.18759922 -29.98164496 37.78820192 -34.58984375 36.90625 C-35.78544922 36.68066406 -36.98105469 36.45507812 -38.21289062 36.22265625 C-39.44201172 35.98417969 -40.67113281 35.74570313 -41.9375 35.5 C-43.19369141 35.26152344 -44.44988281 35.02304688 -45.74414062 34.77734375 C-48.83055851 34.19057229 -51.91573378 33.59796024 -55 33 C-55 32.01 -55 31.02 -55 30 C-49.19365668 30.38798147 -43.67206138 31.24687964 -38 32.5625 C-29.53412484 34.62065622 -29.53412484 34.62065622 -21 34 C-16.61213299 30.43147236 -14.40952815 26.44094272 -12.0625 21.4375 C-11.72331543 20.73874756 -11.38413086 20.03999512 -11.03466797 19.32006836 C-10.01441347 17.21744231 -9.00648078 15.10924671 -8 13 C-6.88428762 10.68270534 -5.75746582 8.37173349 -4.625 6.0625 C-4.16351563 5.10472656 -3.70203125 4.14695313 -3.2265625 3.16015625 C-2 1 -2 1 0 0 Z " fill="#AFD353" transform="translate(129,169)"/>
<path d="M0 0 C4.89448052 1.45021645 4.89448052 1.45021645 6.375 4 C7.4536114 8.69966397 7.78916021 10.91529468 6.0625 15.4375 C4.375 18 4.375 18 2.375 19 C-1.71143837 19.45404871 -3.78309721 19.66920478 -7.0625 17.0625 C-9.17131562 12.92922139 -9.56125049 9.54984888 -8.625 5 C-5.97395572 0.98326624 -4.85306273 0 0 0 Z M-2.625 4 C-5.00494368 5.94332332 -5.00494368 5.94332332 -4.875 9.5 C-5.00494368 13.05667668 -5.00494368 13.05667668 -2.625 15 C-0.02219432 14.67958603 -0.02219432 14.67958603 2.375 14 C2.41625 12.72125 2.4575 11.4425 2.5 10.125 C2.53480469 9.04605469 2.53480469 9.04605469 2.5703125 7.9453125 C2.55831689 5.76136355 2.55831689 5.76136355 0.375 4 C-0.615 4 -1.605 4 -2.625 4 Z " fill="#B3D55D" transform="translate(227.625,260)"/>
<path d="M0 0 C2.49118953 3.7367843 2.2065226 5.74451819 2.125 10.1875 C2.10695312 11.45980469 2.08890625 12.73210937 2.0703125 14.04296875 C2.03550781 15.50669922 2.03550781 15.50669922 2 17 C0.68 17.33 -0.64 17.66 -2 18 C-2.33 13.05 -2.66 8.1 -3 3 C-4.65 3.66 -6.3 4.32 -8 5 C-8.33 9.29 -8.66 13.58 -9 18 C-10.32 17.67 -11.64 17.34 -13 17 C-13 11.39 -13 5.78 -13 0 C-7.86968697 -0.85505217 -4.92771221 -1.13716436 0 0 Z " fill="#B4D65E" transform="translate(249,261)"/>
<path d="M0 0 C0.3125 3.1875 0.3125 3.1875 0 7 C-2.1727422 9.63016161 -3.94673788 11.47336894 -7 13 C-12.53846154 13.23076923 -12.53846154 13.23076923 -15 12 C-14.49445676 7.57649669 -13.04984798 5.21928398 -10 2 C-6.33585854 -0.81857036 -4.43742538 -1.39461941 0 0 Z " fill="#ADD250" transform="translate(231,134)"/>
<path d="M0 0 C3.4375 0.875 3.4375 0.875 5.4375 3.875 C4.99305556 9.31944444 4.99305556 9.31944444 2.4375 11.875 C-1 12.25 -1 12.25 -4.5625 11.875 C-6.5625 10.1875 -6.5625 10.1875 -7.5625 7.875 C-7.42590503 5.0748031 -6.87403277 3.39422128 -5.4375 1 C-3.5625 -0.125 -3.5625 -0.125 0 0 Z " fill="#1D1D1D" transform="translate(351.5625,247.125)"/>
<path d="M0 0 C3.4375 0.875 3.4375 0.875 5.4375 3.875 C5.375 6.875 5.375 6.875 4.4375 9.875 C2.1875 11.875 2.1875 11.875 -0.5625 12.875 C-4.41554802 11.97894232 -5.33019266 11.22346101 -7.5625 7.875 C-7.35761638 5.14321837 -6.84613 3.34771667 -5.4375 1 C-3.5625 -0.125 -3.5625 -0.125 0 0 Z " fill="#1D1D1D" transform="translate(322.5625,184.125)"/>
<path d="M0 0 C-2.64738916 1.4606285 -3.89448334 2 -7 2 C-6.67 3.32 -6.34 4.64 -6 6 C-8.60391539 6.97983928 -11.20811968 7.95889794 -13.8125 8.9375 C-14.55048828 9.21529297 -15.28847656 9.49308594 -16.04882812 9.77929688 C-17.11713867 10.18051758 -17.11713867 10.18051758 -18.20703125 10.58984375 C-18.8616333 10.83597412 -19.51623535 11.08210449 -20.19067383 11.33569336 C-21.78311815 11.92037033 -23.39066676 12.46355559 -25 13 C-25.33 11.68 -25.66 10.36 -26 9 C-8.04523999 -2.91687611 -8.04523999 -2.91687611 0 0 Z " fill="#B1D458" transform="translate(186,173)"/>
<path d="M0 0 C5.56890517 0.47986031 10.67067568 1.29915181 16 3 C15.67 3.66 15.34 4.32 15 5 C11.89936477 6.03354508 9.68555932 6.13364996 6.4375 6.125 C5.46683594 6.12757813 4.49617188 6.13015625 3.49609375 6.1328125 C1 6 1 6 -1 5 C-0.67 3.35 -0.34 1.7 0 0 Z " fill="#B0D456" transform="translate(20,196)"/>
<path d="M0 0 C4.63828342 2.44798292 7.89240809 5.23102022 9.875 10.1875 C9.936875 11.0846875 9.936875 11.0846875 10 12 C9.34 12.66 8.68 13.32 8 14 C6.015625 13.9296875 6.015625 13.9296875 4 13 C2.734375 10.8203125 2.734375 10.8203125 1.75 8.125 C1.41484375 7.24070312 1.0796875 6.35640625 0.734375 5.4453125 C0 3 0 3 0 0 Z " fill="#B5D762" transform="translate(142,256)"/>
<path d="M0 0 C8.18088206 0.5466488 16.01785939 2.17123868 24 4 C22 6 22 6 19.78515625 6.046875 C13.1251571 5.3206771 6.57101698 4.30911944 0 3 C0 2.01 0 1.02 0 0 Z " fill="#B9D969" transform="translate(74,199)"/>
<path d="M0 0 C-1.0621875 0.38671875 -2.124375 0.7734375 -3.21875 1.171875 C-10.34270543 3.78926775 -17.30806324 6.38635415 -24 10 C-24.99 10.495 -24.99 10.495 -26 11 C-25 8 -25 8 -22.0859375 6.24609375 C-20.85408246 5.63282682 -19.61680769 5.0303548 -18.375 4.4375 C-17.77042969 4.13392578 -17.16585937 3.83035156 -16.54296875 3.51757812 C-5.14712824 -2.05885129 -5.14712824 -2.05885129 0 0 Z " fill="#EDF5DA" transform="translate(186,173)"/>
<path d="M0 0 C-0.1875 1.8125 -0.1875 1.8125 -1 4 C-3.375 5.8125 -3.375 5.8125 -6 7 C-6.99 6.67 -7.98 6.34 -9 6 C-7.01260984 0.46369883 -5.82303895 -0.15323787 0 0 Z " fill="#B4D65E" transform="translate(213,145)"/>
<path d="M0 0 C5.36891879 0.49869404 10.69235173 1.02227532 16 2 C14 4 14 4 11.25 4.01171875 C9.64125 3.85123047 9.64125 3.85123047 8 3.6875 C6.9275 3.58824219 5.855 3.48898438 4.75 3.38671875 C2 3 2 3 0 2 C0 1.34 0 0.68 0 0 Z " fill="#B6D763" transform="translate(120,200)"/>
<path d="M0 0 C0 3 0 3 -2.625 5.91796875 C-3.74249406 7.01550756 -4.86785643 8.10507895 -6 9.1875 C-6.57234375 9.74630859 -7.1446875 10.30511719 -7.734375 10.88085938 C-9.14962788 12.26073093 -10.57397155 13.63126734 -12 15 C-12.66 14.67 -13.32 14.34 -14 14 C-9.67106815 8.81580806 -5.23435005 4.27293882 0 0 Z " fill="#BAD96B" transform="translate(65,280)"/>
<path d="M0 0 C0.62390625 0.18691406 1.2478125 0.37382813 1.890625 0.56640625 C0.91533763 1.90257977 -0.06470819 3.23528135 -1.046875 4.56640625 C-1.59214844 5.30890625 -2.13742188 6.05140625 -2.69921875 6.81640625 C-3.39724609 7.68265625 -3.39724609 7.68265625 -4.109375 8.56640625 C-4.439375 8.56640625 -4.769375 8.56640625 -5.109375 8.56640625 C-5.47191276 3.12833978 -5.47191276 3.12833978 -3.859375 0.62890625 C-2.109375 -0.43359375 -2.109375 -0.43359375 0 0 Z " fill="#F8FBF2" transform="translate(126.109375,126.43359375)"/>
<path d="M0 0 C0.66 0.33 1.32 0.66 2 1 C-1.63 4.63 -5.26 8.26 -9 12 C-9.66 11.67 -10.32 11.34 -11 11 C-9.92173635 9.72486237 -8.83714481 8.45507431 -7.75 7.1875 C-7.14671875 6.47980469 -6.5434375 5.77210938 -5.921875 5.04296875 C-4.07629602 3.08110329 -2.20054668 1.54330375 0 0 Z " fill="#3E3E3E" transform="translate(297,247)"/>
<path d="M0 0 C2 1 2 1 3 3 C1.35 3.33 -0.3 3.66 -2 4 C-2.33 6.31 -2.66 8.62 -3 11 C-3.99 10.01 -4.98 9.02 -6 8 C-4.73058503 4.08597051 -3.48832306 2.20927127 0 0 Z " fill="#BCDA6F" transform="translate(124,123)"/>
<path d="M0 0 C3.63 0 7.26 0 11 0 C10.67 0.99 10.34 1.98 10 3 C8.5199159 2.88637738 7.04089926 2.75877092 5.5625 2.625 C4.73878906 2.55539063 3.91507812 2.48578125 3.06640625 2.4140625 C2.38449219 2.27742187 1.70257813 2.14078125 1 2 C0.67 1.34 0.34 0.68 0 0 Z " fill="#AED353" transform="translate(96,204)"/>
<path d="M0 0 C0.33 0.66 0.66 1.32 1 2 C-1.64 2.66 -4.28 3.32 -7 4 C-6.67 2.68 -6.34 1.36 -6 0 C-3 -1 -3 -1 0 0 Z " fill="#B6D762" transform="translate(179,177)"/>
<path d="M0 0 C0.66 0.33 1.32 0.66 2 1 C-0.31 3.31 -2.62 5.62 -5 8 C-5.33 7.34 -5.66 6.68 -6 6 C-2.25 1.125 -2.25 1.125 0 0 Z " fill="#404040" transform="translate(201,183)"/>
<path d="M0 0 C0.66 0.33 1.32 0.66 2 1 C-0.31 3.31 -2.62 5.62 -5 8 C-5 5 -5 5 -2.5 2.3125 C-1.675 1.549375 -0.85 0.78625 0 0 Z " fill="#3C3C3C" transform="translate(193,207)"/>
<path d="M0 0 C0.66 0.33 1.32 0.66 2 1 C-0.31 3.31 -2.62 5.62 -5 8 C-5 5 -5 5 -2.5 2.3125 C-1.675 1.549375 -0.85 0.78625 0 0 Z " fill="#343434" transform="translate(281,201)"/>
</svg>
