<?xml version="1.0" encoding="UTF-8"?>
<svg version="1.1" xmlns="http://www.w3.org/2000/svg" width="654" height="654">
<path d="M0 0 C1.30198163 0.88206901 2.60240949 1.76643483 3.90145874 2.65281677 C6.77129949 4.61057712 9.6534921 6.54981445 12.53512573 8.49015808 C14.10022926 9.54404171 15.66475001 10.59879128 17.22872925 11.65434265 C26.06845452 17.61463167 34.9769106 23.46979262 43.88595581 29.32572937 C58.34444025 38.83036426 72.7770923 48.3717548 87.16220093 57.98704529 C99.31099509 66.10540513 111.50775441 74.1498722 123.7124939 82.18382263 C136.54627227 90.63424815 149.37845869 99.08692751 162.17221069 107.59788513 C163.54666546 108.5119542 164.9216438 109.42523662 166.29721069 110.33763123 C170.45289143 113.09492046 174.59128587 115.87521844 178.7124939 118.68382263 C179.77838745 119.41004822 180.84428101 120.1362738 181.94247437 120.88450623 C182.92747925 121.57496033 183.91248413 122.26541443 184.92733765 122.97679138 C185.78319458 123.57386902 186.63905151 124.17094666 187.52084351 124.78611755 C190.67878602 127.52051514 192.45153722 130.20941743 193.1812439 134.33226013 C193.19671265 135.68190857 193.19671265 135.68190857 193.2124939 137.05882263 C193.25890015 138.40073669 193.25890015 138.40073669 193.3062439 139.76976013 C192.05898651 145.89116809 187.80744161 150.04253502 182.77580261 153.37374878 C182.17354355 153.75322159 181.57128448 154.1326944 180.95077515 154.52366638 C180.31890793 154.9354866 179.68704071 155.34730682 179.036026 155.77160645 C177.71300976 156.6304323 176.38593808 157.48304084 175.05502319 158.32957458 C173.01166264 159.62980557 170.98153769 160.9489168 168.95272827 162.27171326 C167.66112928 163.10681028 166.36883585 163.94083446 165.07577515 164.77366638 C164.46744339 165.16730881 163.85911163 165.56095123 163.23234558 165.96652222 C158.94669969 168.68382263 158.94669969 168.68382263 156.7124939 168.68382263 C155.43608647 166.9399984 154.24234508 165.13541992 153.0874939 163.30882263 C147.38965682 154.56187274 140.90371439 146.7602394 133.8687439 139.06272888 C131.91633953 136.90871755 130.0297203 134.71354537 128.1499939 132.49632263 C124.63752805 128.48891842 120.83346352 125.05552505 116.7124939 121.68382263 C115.6915564 120.84851013 114.6706189 120.01319763 113.6187439 119.15257263 C105.32256145 112.4605651 96.70935043 106.39429561 87.7124939 100.68382263 C86.75214233 100.06893982 85.79179077 99.45405701 84.80233765 98.82054138 C38.63639277 70.57555401 -19.78385378 63.94415852 -71.9750061 75.93382263 C-96.54595796 81.99931145 -120.59015741 91.99895676 -141.2875061 106.68382263 C-142.21949829 107.32577576 -143.15149048 107.96772888 -144.11172485 108.62913513 C-166.8577502 124.65843117 -186.83274175 144.85971772 -201.2875061 168.68382263 C-207.52334435 166.41348288 -212.72688275 162.64965924 -218.2250061 158.99632263 C-219.29686157 158.30087341 -220.36871704 157.60542419 -221.47305298 156.88890076 C-227.79058751 152.69937786 -233.80257171 148.65369143 -237.2875061 141.68382263 C-237.66126907 136.0773782 -237.54269188 132.46487674 -234.2875061 127.68382263 C-228.6720362 122.06747804 -222.20230956 117.81246304 -215.5375061 113.55882263 C-213.83533431 112.45864451 -212.13320904 111.35839337 -210.43206787 110.25662231 C-209.17213441 109.44063195 -207.91176336 108.62531693 -206.65100098 107.81060791 C-197.36648688 101.80611213 -188.14312044 95.70818849 -178.9125061 89.62132263 C-177.96347412 88.99586548 -177.01444214 88.37040833 -176.03665161 87.72599792 C-162.70467748 78.93895096 -149.40142215 70.11019809 -136.12530518 61.23902893 C-123.48428958 52.79363227 -110.79900512 44.41673629 -98.1000061 36.05882263 C-81.97667588 25.44708986 -65.88791974 14.78558052 -49.83828735 4.06272888 C-49.25885376 3.67575836 -48.67942017 3.28878784 -48.08242798 2.89009094 C-45.55379626 1.20082703 -43.02729454 -0.49143261 -40.5050354 -2.19020081 C-39.70106323 -2.73064026 -38.89709106 -3.27107971 -38.0687561 -3.82789612 C-37.39522095 -4.28253235 -36.72168579 -4.73716858 -36.02774048 -5.20558167 C-23.844946 -12.98048796 -10.69543466 -7.17296428 0 0 Z " fill="#32B55C" transform="translate(337.2875061035156,102.31617736816406)"/>
<path d="M0 0 C40.69212274 -0.86796247 81.26918767 14.17009303 110.81640625 42.1875 C112.77393344 44.15963698 112.77393344 44.15963698 114.92578125 45.12109375 C114.92578125 45.78109375 114.92578125 46.44109375 114.92578125 47.12109375 C115.58578125 47.12109375 116.24578125 47.12109375 116.92578125 47.12109375 C116.92578125 47.78109375 116.92578125 48.44109375 116.92578125 49.12109375 C117.58578125 49.12109375 118.24578125 49.12109375 118.92578125 49.12109375 C122.15517671 52.58945082 125.01166899 56.38591521 127.92578125 60.12109375 C128.3444043 60.65508789 128.76302734 61.18908203 129.19433594 61.73925781 C136.77423631 71.45450756 136.77423631 71.45450756 138.92578125 77.12109375 C132.88721713 81.28719796 126.83542396 85.43349818 120.77392578 89.56616211 C118.71253837 90.97502051 116.65424778 92.38842104 114.59912109 93.80639648 C111.64828749 95.84123326 108.68678221 97.85959256 105.72265625 99.875 C104.80272888 100.51450089 103.88280151 101.15400177 102.93499756 101.81288147 C102.07440735 102.39355881 101.21381714 102.97423615 100.32714844 103.57250977 C99.5721405 104.08991226 98.81713257 104.60731476 98.03924561 105.14039612 C95.92578125 106.12109375 95.92578125 106.12109375 93.76470947 105.91490173 C90.95744883 104.70309483 89.92122546 102.69918961 88.23828125 100.18359375 C72.28026635 77.42428467 49.05436343 62.55817743 21.83032227 57.25244141 C-5.33241682 52.62123166 -32.82128575 58.40167024 -56.07421875 73.12109375 C-59.19545683 75.36260063 -62.10425045 77.81350592 -64.97265625 80.37109375 C-67.07421875 82.12109375 -67.07421875 82.12109375 -70.07421875 83.12109375 C-70.07421875 83.78109375 -70.07421875 84.44109375 -70.07421875 85.12109375 C-70.73421875 85.12109375 -71.39421875 85.12109375 -72.07421875 85.12109375 C-72.45126953 85.97960937 -72.45126953 85.97960937 -72.8359375 86.85546875 C-74.23610224 89.41728436 -75.88786465 91.24611693 -77.88671875 93.37109375 C-81.54030081 97.38404454 -84.34846301 101.43620107 -87.07421875 106.12109375 C-92.11590451 105.61565553 -95.43506829 103.17597279 -99.5 100.38671875 C-100.20642136 99.91167908 -100.91284271 99.4366394 -101.64067078 98.94720459 C-103.89456369 97.42938868 -106.14079179 95.90066615 -108.38671875 94.37109375 C-110.62346313 92.85817967 -112.86173726 91.34755973 -115.10063171 89.83782959 C-116.49026252 88.89964309 -117.8784008 87.9592404 -119.26472473 87.01617432 C-123.80073303 83.93894016 -128.40747286 80.99604212 -133.07421875 78.12109375 C-130.82430172 61.29171436 -107.5422543 42.77262016 -94.80566406 32.95068359 C-82.05665143 23.39060074 -67.9459677 15.81338387 -53.07421875 10.12109375 C-51.93210937 9.68152344 -50.79 9.24195313 -49.61328125 8.7890625 C-33.56455611 3.02753536 -16.96728839 0.668343 0 0 Z " fill="#85C44F" transform="translate(312.07421875,222.87890625)"/>
<path d="M0 0 C6.88838988 5.45860012 13.27696522 11.54179002 18 19 C18.44859375 19.69480469 18.8971875 20.38960938 19.359375 21.10546875 C25.15194462 30.73135651 26.56484874 40.65840347 26.5 51.75 C26.49427979 52.89017578 26.48855957 54.03035156 26.48266602 55.20507812 C26.19495223 68.83709291 22.80197161 79.34594686 14 90 C13.38125 90.77988281 12.7625 91.55976562 12.125 92.36328125 C0.75729913 105.99993854 -14.77540686 112.58444583 -32.21875 114.3203125 C-48.52909135 114.92589448 -64.05170961 109.25940571 -76.375 98.625 C-88.89485875 86.61160803 -96.73751562 72.02625948 -97.40234375 54.50463867 C-97.66721933 37.0467629 -92.40975846 22.02156237 -80.26953125 9.27734375 C-79.52058594 8.52582031 -78.77164063 7.77429688 -78 7 C-77.38511719 6.36191406 -76.77023437 5.72382813 -76.13671875 5.06640625 C-56.27224037 -14.03241771 -22.29866697 -15.6737007 0 0 Z M-61.6875 25.125 C-70.33710565 34.16301626 -72.59295711 43.67400401 -72.33984375 55.8125 C-71.81378984 65.41680371 -67.06948459 73.65449877 -60 80 C-50.15332111 87.91701838 -40.57959906 90.24953607 -28 89 C-16.39419092 86.37981096 -8.45210373 79.80651309 -2 70 C2.8265577 61.14247104 3.4456136 50.49010415 0.875 40.8125 C-2.60317801 30.717695 -9.53146809 22.81137234 -18.875 17.6875 C-33.41216862 10.99350734 -50.16288068 14.35857932 -61.6875 25.125 Z " fill="#181B1E" transform="translate(628,442)"/>
<path d="M0 0 C7.92 0 15.84 0 24 0 C24.33 14.52 24.66 29.04 25 44 C27.31 40.04 29.62 36.08 32 32 C33.77153354 29.19049752 35.55152431 26.39946845 37.375 23.625 C38.31795949 22.17985135 39.26066343 20.73453592 40.203125 19.2890625 C40.66783203 18.57782227 41.13253906 17.86658203 41.61132812 17.13378906 C44.18938797 13.17242426 46.7310016 9.18751433 49.27099609 5.20166016 C51.89081255 1.10918745 51.89081255 1.10918745 53 0 C55.14558827 -0.08775605 57.29404421 -0.10695219 59.44140625 -0.09765625 C60.74658203 -0.09443359 62.05175781 -0.09121094 63.39648438 -0.08789062 C64.7851569 -0.07953401 66.17382877 -0.07106905 67.5625 -0.0625 C68.95507656 -0.05748666 70.34765481 -0.05292347 71.74023438 -0.04882812 C75.1601987 -0.03699434 78.58007844 -0.0205088 82 0 C80.11329776 3.8626475 77.90671402 7.48597916 75.625 11.125 C75.18583252 11.82657227 74.74666504 12.52814453 74.29418945 13.25097656 C71.00581949 18.47222282 67.62098606 23.6232957 64.1875 28.75 C63.69757568 29.48379883 63.20765137 30.21759766 62.70288086 30.97363281 C60.53779324 34.21481118 58.37006496 37.45385574 56.18359375 40.68066406 C54.34006778 43.40457952 52.51283062 46.13886893 50.6875 48.875 C50.10572998 49.72545898 49.52395996 50.57591797 48.92456055 51.45214844 C48.39644775 52.24911133 47.86833496 53.04607422 47.32421875 53.8671875 C46.6139856 54.92075439 46.6139856 54.92075439 45.8894043 55.99560547 C44.81955302 57.95238245 44.81955302 57.95238245 45.22900391 60.05908203 C46.53631849 63.35013679 48.65221976 66.12741419 50.6875 69 C51.17371826 69.69641602 51.65993652 70.39283203 52.16088867 71.11035156 C53.21625769 72.62034875 54.27439331 74.12841521 55.33496094 75.63476562 C57.01282662 78.01822057 58.6831458 80.40679804 60.3515625 82.796875 C65.21652968 89.76103787 70.08885821 96.71949408 75.00390625 103.6484375 C75.65190186 104.5652832 76.29989746 105.48212891 76.9675293 106.42675781 C78.21902572 108.19708143 79.47427634 109.9647583 80.73364258 111.72949219 C81.2933374 112.52258789 81.85303223 113.31568359 82.4296875 114.1328125 C82.92710449 114.83293457 83.42452148 115.53305664 83.93701172 116.25439453 C85 118 85 118 85 120 C75.34399967 122.02543719 63.35938573 124.31480904 54 120 C44.94097795 113.05230716 39.45798801 101.10087909 34.32226562 91.16455078 C31.56944279 86.22787586 28.2413963 81.63056614 25 77 C24.67 91.19 24.34 105.38 24 120 C16.08 120 8.16 120 0 120 C0 80.4 0 40.8 0 0 Z " fill="#181B1E" transform="translate(0,436)"/>
<path d="M0 0 C1.32 0 2.64 0 4 0 C15.41665179 27.92910178 26.82271145 55.86236819 38.11071777 83.84376526 C40.00822598 88.54698947 41.91131362 93.24789384 43.81973267 97.94670105 C44.97118223 100.78434493 46.11839642 103.62368616 47.2644043 106.46353149 C47.78995147 107.76339261 48.31725116 109.06254677 48.84643555 110.3609314 C49.55995522 112.11237935 50.26651285 113.86665886 50.97265625 115.62109375 C51.56445679 117.08180298 51.56445679 117.08180298 52.16821289 118.57202148 C53 121 53 121 53 124 C43.76 124 34.52 124 25 124 C21 114 21 114 21 111 C8.13 111 -4.74 111 -18 111 C-18.33 112.98 -18.66 114.96 -19 117 C-19.99 119.31 -20.98 121.62 -22 124 C-31.24 124 -40.48 124 -50 124 C-49.13952695 119.69763474 -48.0427304 116.34249752 -46.39453125 112.31640625 C-46.12297714 111.64942215 -45.85142303 110.98243805 -45.57164001 110.29524231 C-44.65606636 108.0492803 -43.73423081 105.80594142 -42.8125 103.5625 C-42.15419019 101.95086007 -41.49632563 100.33903821 -40.83886719 98.72705078 C-39.3780158 95.14704485 -37.91462795 91.56808865 -36.44970703 87.98974609 C-33.79084766 81.49237253 -31.14300832 74.99052833 -28.49609375 68.48828125 C-27.53606048 66.13012327 -26.57601813 63.77196899 -25.6159668 61.41381836 C-24.90167007 59.65930862 -24.90167007 59.65930862 -24.17294312 57.86935425 C-21.46581564 51.22139884 -18.75715189 44.57406781 -16.04533386 37.92802429 C-13.92274507 32.72475737 -11.80408224 27.51997262 -9.69700241 22.31040764 C-8.92656992 20.40597202 -8.15512008 18.50195168 -7.38336182 16.59805298 C-6.4042056 14.18155052 -5.42704477 11.76423838 -4.4520874 9.34603882 C-4.01447083 8.26714386 -3.57685425 7.1882489 -3.12597656 6.07666016 C-2.73879456 5.11861481 -2.35161255 4.16056946 -1.95269775 3.17349243 C-1 1 -1 1 0 0 Z M1 60 C-1.97 68.91 -4.94 77.82 -8 87 C-1.73 87 4.54 87 11 87 C8.67674712 77.70698849 5.45657902 68.91551288 2 60 C1.67 60 1.34 60 1 60 Z " fill="#181B1E" transform="translate(230,432)"/>
<path d="M0 0 C9.24 0 18.48 0 28 0 C31.09328995 7.42389588 34.11324087 14.79419745 36.8828125 22.33203125 C37.22375946 23.2528801 37.56470642 24.17372894 37.91598511 25.1224823 C38.98796854 28.01830657 40.05679941 30.91527841 41.125 33.8125 C42.20058094 36.72748374 43.27691694 39.64217885 44.35543823 42.55607605 C45.02169518 44.3562958 45.68628746 46.15713286 46.34890747 47.95869446 C48.10415274 52.70317191 49.96282393 57.36930905 52 62 C59.67800131 41.33751652 67.34789942 20.67209262 75 0 C84.24 0 93.48 0 103 0 C102.30398859 4.17606849 101.78201867 6.98125346 100.27270508 10.73144531 C99.9170195 11.62357727 99.56133392 12.51570923 99.19487 13.43487549 C98.61307732 14.867034 98.61307732 14.867034 98.01953125 16.328125 C97.6150325 17.3371991 97.21053375 18.34627319 96.79377747 19.38592529 C95.47274299 22.67642401 94.1428605 25.96326199 92.8125 29.25 C91.89400752 31.53110469 90.9758784 33.81235572 90.05810547 36.09375 C83.62879494 52.05553048 77.12517841 67.98630021 70.53425598 83.88198853 C67.36923361 91.51597462 64.22584609 99.15885736 61.08123779 106.80126953 C59.57822333 110.45370884 58.07424908 114.10575281 56.5703125 117.7578125 C56.07289551 118.9658252 55.57547852 120.17383789 55.06298828 121.41845703 C54.71220215 122.27036621 54.36141602 123.12227539 54 124 C51.64108276 123.76873779 51.64108276 123.76873779 49 123 C47.7024231 121.15460205 47.7024231 121.15460205 46.74267578 118.70019531 C46.37046906 117.77722656 45.99826233 116.85425781 45.61477661 115.90332031 C45.22885345 114.88850586 44.8429303 113.87369141 44.4453125 112.828125 C44.02692108 111.77560547 43.60852966 110.72308594 43.17745972 109.63867188 C41.80830248 106.18270269 40.46689287 102.7166357 39.125 99.25 C38.18302286 96.85954934 37.2389995 94.46990402 36.29296875 92.08105469 C34.39791468 87.29046124 32.51207506 82.49641043 30.63378906 77.69921875 C27.45594414 69.5961873 24.19183567 61.52944714 20.90475464 53.47024536 C19.71092967 50.5406286 18.523395 47.60847925 17.33561707 44.67640686 C14.94954564 38.78759746 12.55347204 32.90297318 10.14590454 27.0229187 C8.91008562 24.00423629 7.67657481 20.98461291 6.44311523 17.96496582 C5.58380294 15.86457025 4.72068344 13.76576698 3.85742188 11.66699219 C3.34355494 10.4095849 2.82987202 9.1521024 2.31640625 7.89453125 C1.86724854 6.79987549 1.41809082 5.70521973 0.95532227 4.57739258 C0 2 0 2 0 0 Z " fill="#181B1E" transform="translate(264,436)"/>
<path d="M0 0 C25.50025145 -2.49485057 25.50025145 -2.49485057 32.19287109 1.21582031 C35.59784579 4.63033276 37.19288282 8.95080348 38.890625 13.39208984 C41.07425168 18.52534254 44.16449694 23.1838908 47.0625 27.9375 C48.18112457 29.84084072 49.29722466 31.74566861 50.41015625 33.65234375 C51.98104042 36.49693405 51.98104042 36.49693405 54 39 C54.37697021 38.351521 54.75394043 37.70304199 55.14233398 37.03491211 C55.67157471 36.12491455 56.20081543 35.21491699 56.74609375 34.27734375 C57.33003906 33.26994141 57.91398437 32.26253906 58.515625 31.22460938 C59.80424517 29.02059745 61.10785689 26.82528704 62.42578125 24.63867188 C66.65751572 17.59741506 66.65751572 17.59741506 69.87890625 10.06640625 C72.87264161 2.15530131 72.87264161 2.15530131 77 0 C86.85256612 -1.80128809 97.0908292 -0.90336059 107 0 C106.34907907 3.45400822 104.98494685 5.90764627 103.11328125 8.8671875 C102.51153076 9.82431641 101.90978027 10.78144531 101.28979492 11.76757812 C100.6372876 12.79302734 99.98478027 13.81847656 99.3125 14.875 C98.64130127 15.93912109 97.97010254 17.00324219 97.27856445 18.09960938 C95.19195917 21.4037475 93.09725886 24.7026156 91 28 C90.05012207 29.49515137 90.05012207 29.49515137 89.08105469 31.02050781 C86.75641521 34.67845087 84.43156398 38.33622227 82.09692383 41.98779297 C81.0119569 43.68584224 79.94426071 45.39501664 78.89160156 47.11328125 C77.46366551 49.2924134 76.032541 51.22128143 74.39746094 53.23046875 C64.75964464 65.72587333 65.64340879 78.78286016 65.875 94 C65.87694561 96.52864643 65.8743767 99.05730055 65.8671875 101.5859375 C65.85109039 107.72698598 65.92747656 113.85683795 66 120 C57.75 120 49.5 120 41 120 C41.06703125 116.25011719 41.1340625 112.50023437 41.203125 108.63671875 C41.2272149 104.93938757 41.23052012 101.24256759 41.23193359 97.54516602 C41.24381946 95.00721195 41.27676767 92.46925424 41.33251953 89.93188477 C41.68896995 72.89288215 40.15905983 61.4204814 29.45837402 47.87515259 C27.50637723 45.36530822 25.84744669 42.70939554 24.1875 40 C23.12513011 38.33325039 22.0626332 36.66658174 21 35 C19.82801243 33.15762369 18.65613979 31.31517426 17.484375 29.47265625 C15.1675399 25.83071082 12.84367577 22.1933781 10.515625 18.55859375 C9.42695199 16.85164626 8.33840457 15.14461866 7.25 13.4375 C6.74855469 12.65826172 6.24710937 11.87902344 5.73046875 11.07617188 C5.26769531 10.34849609 4.80492187 9.62082031 4.328125 8.87109375 C3.9249707 8.24130615 3.52181641 7.61151855 3.10644531 6.96264648 C1.8385371 4.71359219 0.91286655 2.41231507 0 0 Z " fill="#181B1E" transform="translate(425,436)"/>
<path d="M0 0 C8.25 0 16.5 0 25 0 C25 31.35 25 62.7 25 95 C37.54 95 50.08 95 63 95 C63 103.25 63 111.5 63 120 C42.21 120 21.42 120 0 120 C0 80.4 0 40.8 0 0 Z " fill="#181B1E" transform="translate(101,436)"/>
<path d="M0 0 C7.00998772 4.9262107 13.4570761 11.44700073 17.70703125 18.90234375 C16.29765341 23.13047726 13.24028673 24.29614183 9.58203125 26.46484375 C8.11978954 27.35202063 6.65888341 28.24140198 5.19921875 29.1328125 C4.4525293 29.58833496 3.70583984 30.04385742 2.93652344 30.51318359 C-1.14415586 33.05578819 -5.11086621 35.7706539 -9.06689453 38.50219727 C-14.5795808 42.25035609 -20.44208191 46.19713975 -27.23046875 46.77734375 C-27.98199219 46.85726562 -28.73351562 46.9371875 -29.5078125 47.01953125 C-39.17770069 46.61266358 -45.65624877 42.58967875 -53.60546875 37.27734375 C-54.65669922 36.59027344 -55.70792969 35.90320313 -56.79101562 35.1953125 C-59.96892156 33.11316884 -63.13269049 31.01113148 -66.29296875 28.90234375 C-67.44833199 28.13302844 -68.60376891 27.36382378 -69.75927734 26.59472656 C-72.60511858 24.6991699 -75.4496645 22.80170285 -78.29296875 20.90234375 C-74.33160769 10.23170102 -64.23678651 1.90921683 -54.29296875 -3.09765625 C-35.95097787 -10.89360022 -17.42074289 -10.02394137 0 0 Z " fill="#D4C428" transform="translate(345.29296875,338.09765625)"/>
<path d="M0 0 C8.25 0 16.5 0 25 0 C25 39.6 25 79.2 25 120 C16.75 120 8.5 120 0 120 C0 80.4 0 40.8 0 0 Z " fill="#181B1E" transform="translate(384,436)"/>
</svg>
