<?xml version="1.0" encoding="UTF-8"?>
<svg version="1.1" xmlns="http://www.w3.org/2000/svg" width="200" height="202">
<path d="M0 0 C0 12.21 0 24.42 0 37 C-2.97 37.66 -5.94 38.32 -9 39 C-10.98 39.495 -10.98 39.495 -13 40 C-13.38744385 39.47156494 -13.7748877 38.94312988 -14.17407227 38.39868164 C-15.96889285 35.95231477 -17.76568691 33.50740373 -19.5625 31.0625 C-20.47612305 29.81629883 -20.47612305 29.81629883 -21.40820312 28.54492188 C-25.0829529 23.5480399 -28.8326515 18.63604911 -32.73022461 13.81030273 C-34 12 -34 12 -34 10 C-31.50494359 8.69796813 -29.00462318 7.40839734 -26.5 6.125 C-25.80390625 5.76019531 -25.1078125 5.39539063 -24.390625 5.01953125 C-15.91320177 0.70232498 -9.89653205 0 0 0 Z " fill="#B0A44E" transform="translate(99,13)"/>
<path d="M0 0 C1.875 2.31640625 1.875 2.31640625 4 5.5625 C4.78820854 6.74623015 5.57867623 7.92845831 6.37109375 9.109375 C6.79116699 9.73779297 7.21124023 10.36621094 7.64404297 11.01367188 C10.03041432 14.50944381 12.54805453 17.90827108 15.0625 21.3125 C15.55169922 21.97644775 16.04089844 22.64039551 16.54492188 23.32446289 C17.69507034 24.88411522 18.84729686 26.44223482 20 28 C12.87174349 35.75383099 2.12398573 38.40147594 -8 40 C-9.98 40 -11.96 40 -14 40 C-14 28.12 -14 16.24 -14 4 C-3 0 -3 0 0 0 Z " fill="#94372C" transform="translate(115,95)"/>
<path d="M0 0 C11.3569212 0 22.71112768 1.80788769 32 9 C32.495 10.485 32.495 10.485 33 12 C31.64312929 14.23502523 30.26184039 16.23860382 28.6875 18.3125 C27.76661728 19.56096946 26.84605421 20.80967475 25.92578125 22.05859375 C25.20575928 23.02514893 25.20575928 23.02514893 24.47119141 24.01123047 C22.06205129 27.26792735 19.72148212 30.57303343 17.375 33.875 C16.52897017 35.06012744 15.6826461 36.24504491 14.8359375 37.4296875 C14.23007813 38.27789062 13.62421875 39.12609375 13 40 C6.565 38.515 6.565 38.515 0 37 C0 24.79 0 12.58 0 0 Z " fill="#E3B440" transform="translate(101,13)"/>
<path d="M0 0 C1.375 1.94921875 1.375 1.94921875 3 4.6875 C7.7044251 12.31736591 13.21823656 19.25843976 18.80078125 26.2578125 C20 28 20 28 19.9375 29.9375 C18.70142372 32.65686782 16.88904844 34.69772221 15 37 C14.67 37.99 14.34 38.98 14 40 C6.0764504 38.44435164 -1.42504245 35.97360331 -9.0625 33.375 C-10.30966797 32.95476563 -11.55683594 32.53453125 -12.84179688 32.1015625 C-15.89594465 31.07181153 -18.94860185 30.03786449 -22 29 C-19.50693822 21.31754345 -10.18812852 0 0 0 Z " fill="#A19543" transform="translate(64,25)"/>
<path d="M0 0 C8.01091642 2.08030399 15.84967294 4.53329402 23.6875 7.1875 C24.78255859 7.55552734 25.87761719 7.92355469 27.00585938 8.30273438 C29.67150878 9.19904444 32.33589013 10.09912429 35 11 C35 15.62 35 20.24 35 25 C30.66003431 26.42963576 26.31920016 27.85559147 21.97509766 29.27246094 C20.49816748 29.75537205 19.02192134 30.2403805 17.54638672 30.72753906 C15.42332196 31.42807895 13.2978981 32.12099814 11.171875 32.8125 C10.51443298 33.03123779 9.85699097 33.24997559 9.17962646 33.4753418 C5.89748151 34.53461388 3.50076632 35 0 35 C-1.96679667 29.24790021 -2.30450725 24.11734733 -2.25 18.0625 C-2.25773437 17.20720703 -2.26546875 16.35191406 -2.2734375 15.47070312 C-2.25669992 9.98496019 -1.53797011 5.26693733 0 0 Z " fill="#6C7B56" transform="translate(41,56)"/>
<path d="M0 0 C3.25716314 11.19649831 3.25716314 23.80350169 0 35 C-7.51283447 33.47992438 -14.71163235 31.29798523 -22 28.9375 C-23.14339844 28.57333984 -24.28679687 28.20917969 -25.46484375 27.83398438 C-33.86920054 25.13079946 -33.86920054 25.13079946 -35 24 C-35.07258946 21.81360547 -35.08373783 19.62499611 -35.0625 17.4375 C-35.05347656 16.23996094 -35.04445313 15.04242188 -35.03515625 13.80859375 C-35.02355469 12.88175781 -35.01195313 11.95492187 -35 11 C-30.33818932 9.42960995 -25.67509043 7.86312992 -21.01074219 6.30029297 C-19.42346559 5.76784386 -17.83654931 5.23431935 -16.25 4.69970703 C-13.97228892 3.93240311 -11.69331907 3.16894888 -9.4140625 2.40625 C-8.70255035 2.16563843 -7.99103821 1.92502686 -7.25796509 1.67712402 C-2.22774341 0 -2.22774341 0 0 0 Z " fill="#E67241" transform="translate(159,56)"/>
<path d="M0 0 C9.45420498 4.24602569 15.52878357 14.01296648 20 23 C20.37276047 24.99302803 20.71210569 26.99295541 21 29 C16.33818932 30.57039005 11.67509043 32.13687008 7.01074219 33.69970703 C5.42346559 34.23215614 3.83654931 34.76568065 2.25 35.30029297 C-0.02771108 36.06759689 -2.30668093 36.83105112 -4.5859375 37.59375 C-5.29744965 37.83436157 -6.00896179 38.07497314 -6.74203491 38.32287598 C-11.77225659 40 -11.77225659 40 -14 40 C-14.9765625 38.2421875 -15.953125 36.484375 -16.9296875 34.7265625 C-18.00897274 32.8387386 -18.00897274 32.8387386 -20 31 C-19.77451494 26.85671198 -16.8822034 23.76920998 -14.5 20.5625 C-13.59546238 19.3222645 -12.69183875 18.08136196 -11.7890625 16.83984375 C-11.32790039 16.20804199 -10.86673828 15.57624023 -10.39160156 14.92529297 C-8.17366886 11.85676362 -6.02245877 8.74307882 -3.875 5.625 C-3.12992188 4.54476563 -2.38484375 3.46453125 -1.6171875 2.3515625 C-1.08351562 1.57554688 -0.54984375 0.79953125 0 0 Z " fill="#F3A93B" transform="translate(136,25)"/>
<path d="M0 0 C1.60433809 0.47859241 3.20846416 0.95789558 4.8125 1.4375 C5.70582031 1.70433594 6.59914063 1.97117187 7.51953125 2.24609375 C9.35473055 2.80387873 11.18033726 3.39344575 13 4 C13 15.88 13 27.76 13 40 C0.66232507 40 -9.59579637 36.48910829 -20 30 C-19.38223289 26.72294927 -18.23636472 24.63037075 -16.26953125 21.953125 C-15.71330078 21.19 -15.15707031 20.426875 -14.58398438 19.640625 C-13.99939453 18.85171875 -13.41480469 18.0628125 -12.8125 17.25 C-12.24724609 16.4765625 -11.68199219 15.703125 -11.09960938 14.90625 C-7.43907443 9.90813126 -3.72685736 4.94879171 0 0 Z " fill="#4B565E" transform="translate(86,95)"/>
<path d="M0 0 C1.09765625 1.59375 1.09765625 1.59375 2.0625 3.5 C3.42445528 6.33019068 3.42445528 6.33019068 6 8 C5.38048204 11.42134099 4.09523451 13.53599834 2.015625 16.30078125 C1.40976563 17.11353516 0.80390625 17.92628906 0.1796875 18.76367188 C-0.77550781 20.0253418 -0.77550781 20.0253418 -1.75 21.3125 C-2.99521686 22.97494202 -4.24001549 24.63769739 -5.484375 26.30078125 C-6.08056641 27.09436035 -6.67675781 27.88793945 -7.29101562 28.70556641 C-9.57453233 31.7713507 -11.79288552 34.87887056 -14 38 C-22.88519682 35.12675533 -28.26572209 26.13569697 -32.80859375 18.421875 C-34.15602517 15.68283408 -35.05769259 12.90024872 -36 10 C-31.35907104 8.4036238 -26.71434127 6.81906105 -22.06567383 5.24536133 C-20.48449144 4.70823655 -18.90440066 4.16788719 -17.32543945 3.62426758 C-15.05698737 2.84388585 -12.78487543 2.07514617 -10.51171875 1.30859375 C-9.80536789 1.06282089 -9.09901703 0.81704803 -8.3712616 0.56382751 C-3.34161512 -1.11387171 -3.34161512 -1.11387171 0 0 Z " fill="#4E5D5B" transform="translate(78,84)"/>
<path d="M0 0 C7.54298142 1.51979477 14.75246455 3.73753314 22.0625 6.125 C23.79016602 6.68380859 23.79016602 6.68380859 25.55273438 7.25390625 C28.36969669 8.16562019 31.18538826 9.0810604 34 10 C32.32677638 20.80819489 25.55999589 30.1432774 17.375 37.29296875 C15 39 15 39 13 39 C11.79833984 37.61401367 11.79833984 37.61401367 10.4609375 35.66796875 C9.96625977 34.95632568 9.47158203 34.24468262 8.96191406 33.51147461 C8.43823242 32.74456299 7.91455078 31.97765137 7.375 31.1875 C6.29490382 29.62976925 5.21417293 28.0724784 4.1328125 26.515625 C3.33665527 25.36416992 3.33665527 25.36416992 2.52441406 24.18945312 C-0.57470993 19.738309 -3.78984712 15.3714729 -7 11 C-5.0977988 6.98226663 -2.61240024 3.57486349 0 0 Z " fill="#D65943" transform="translate(123,83)"/>
<path d="M0 0 C3.66666667 0 7.33333333 0 11 0 C12.7325 -0.0928125 12.7325 -0.0928125 14.5 -0.1875 C18.18452995 0.00988553 19.39452026 0.49873945 22 3 C22.598125 2.690625 23.19625 2.38125 23.8125 2.0625 C28.03122853 0.01340328 31.33414357 -0.3217832 36 0 C40.22573891 1.82475089 41.95895178 3.93273307 44 8 C44.34057617 10.77075195 44.34057617 10.77075195 44.29296875 13.73828125 C44.2784668 15.33833008 44.2784668 15.33833008 44.26367188 16.97070312 C44.23853516 18.07349609 44.21339844 19.17628906 44.1875 20.3125 C44.16719727 21.99569336 44.16719727 21.99569336 44.14648438 23.71289062 C44.1112138 26.47575229 44.06192235 29.23762829 44 32 C41.69 32 39.38 32 37 32 C36.97494385 31.37955811 36.9498877 30.75911621 36.92407227 30.11987305 C36.80803279 27.30887603 36.68534241 24.49820759 36.5625 21.6875 C36.52318359 20.71103516 36.48386719 19.73457031 36.44335938 18.72851562 C36.40146484 17.79072266 36.35957031 16.85292969 36.31640625 15.88671875 C36.26141968 14.59060669 36.26141968 14.59060669 36.20532227 13.26831055 C36.07252646 10.8352174 36.07252646 10.8352174 35 8 C32.69 8 30.38 8 28 8 C26.27428639 11.01545747 25.71902341 13.3053913 25.5859375 16.765625 C25.54726562 17.65507812 25.50859375 18.54453125 25.46875 19.4609375 C25.42234375 20.84152344 25.42234375 20.84152344 25.375 22.25 C25.33632812 23.18585938 25.29765625 24.12171875 25.2578125 25.0859375 C25.16375156 27.39043054 25.07810601 29.69492013 25 32 C22.69 32 20.38 32 18 32 C17.97494385 31.30849854 17.9498877 30.61699707 17.92407227 29.90454102 C17.80847839 26.79032134 17.68558758 23.67643211 17.5625 20.5625 C17.52318359 19.47388672 17.48386719 18.38527344 17.44335938 17.26367188 C17.40146484 16.22919922 17.35957031 15.19472656 17.31640625 14.12890625 C17.27974854 13.17056885 17.24309082 12.21223145 17.20532227 11.22485352 C17.24165576 9.02861075 17.24165576 9.02861075 16 8 C13.66702567 7.95907063 11.33294775 7.95758277 9 8 C7.76939579 10.46120841 7.7942277 12.25776866 7.68359375 15.0078125 C7.64169922 15.99394531 7.59980469 16.98007813 7.55664062 17.99609375 C7.51732422 19.02863281 7.47800781 20.06117188 7.4375 21.125 C7.39431641 22.16527344 7.35113281 23.20554688 7.30664062 24.27734375 C7.2003712 26.85142528 7.09833417 29.42560508 7 32 C4.69 32 2.38 32 0 32 C-1.47308269 29.05383462 -1.00294692 26.52237406 -0.87890625 23.2421875 C-0.84348976 22.24761032 -0.84348976 22.24761032 -0.80735779 21.23294067 C-0.73073184 19.11340871 -0.64670357 16.99424315 -0.5625 14.875 C-0.50927819 13.43882006 -0.4565378 12.0026222 -0.40429688 10.56640625 C-0.27511856 7.04404564 -0.1392997 3.52197648 0 0 Z " fill="#2C2C2C" transform="translate(74,162)"/>
<path d="M0 0 C2.31 0 4.62 0 7 0 C7.02505615 0.58491211 7.0501123 1.16982422 7.07592773 1.77246094 C7.19222962 4.43184471 7.31480067 7.09090403 7.4375 9.75 C7.47681641 10.67039063 7.51613281 11.59078125 7.55664062 12.5390625 C7.59853516 13.42851562 7.64042969 14.31796875 7.68359375 15.234375 C7.72025146 16.05131836 7.75690918 16.86826172 7.79467773 17.70996094 C7.99134275 19.9034423 8.40300594 21.88396413 9 24 C11.85078091 24.76716851 11.85078091 24.76716851 15 25 C17.3081428 23.39217524 17.92294494 22.42060487 18.43237305 19.63989258 C18.45855713 18.73392334 18.48474121 17.8279541 18.51171875 16.89453125 C18.54716797 15.91162109 18.58261719 14.92871094 18.61914062 13.91601562 C18.64169922 12.89185547 18.66425781 11.86769531 18.6875 10.8125 C18.72166016 9.77673828 18.75582031 8.74097656 18.79101562 7.67382812 C18.87352642 5.1159934 18.94266572 2.55850277 19 0 C21.31 0 23.62 0 26 0 C26 10.56 26 21.12 26 32 C22.66666667 32 19.33333333 32 16 32 C15.23945313 32.05800781 14.47890625 32.11601562 13.6953125 32.17578125 C6.72387859 32.5466022 6.72387859 32.5466022 2.9375 29.6875 C0.15014772 25.82117264 -0.12222707 23.10091584 -0.09765625 18.45703125 C-0.09443359 17.38388672 -0.09121094 16.31074219 -0.08789062 15.20507812 C-0.07951172 14.08552734 -0.07113281 12.96597656 -0.0625 11.8125 C-0.05798828 10.68134766 -0.05347656 9.55019531 -0.04882812 8.38476562 C-0.03703498 5.58979073 -0.0205765 2.7949218 0 0 Z " fill="#2C2C2C" transform="translate(123,162)"/>
<path d="M0 0 C0.804375 0.495 1.60875 0.99 2.4375 1.5 C1.625 3.4375 1.625 3.4375 0.4375 5.5 C-2.5719871 6.50316237 -3.62096192 6.49412215 -6.625 6 C-10.3405278 5.15721214 -10.3405278 5.15721214 -12.5625 6.5 C-13.21463292 8.52463255 -13.21463292 8.52463255 -13.5625 10.5 C-12.75425781 10.52578125 -11.94601563 10.5515625 -11.11328125 10.578125 C-2.3104855 11.04534214 -2.3104855 11.04534214 1.625 13.4375 C4.61946237 16.84499166 4.70686785 19.01053576 4.4375 23.5 C3.54456309 26.3411629 2.69582508 27.30930912 0.2890625 29.0859375 C-4.99346521 31.70549234 -10.81034479 31.13912836 -16.5625 30.5 C-19.19307723 29.44319419 -20.47820309 28.4616912 -22.5625 26.5 C-21.2425 24.85 -19.9225 23.2 -18.5625 21.5 C-17.758125 21.83 -16.95375 22.16 -16.125 22.5 C-11.82445205 23.70717135 -7.99283819 23.67721353 -3.5625 23.5 C-3.5625 22.18 -3.5625 20.86 -3.5625 19.5 C-5.8184269 18.37203655 -7.37075755 18.30177006 -9.875 18.125 C-13.78079168 17.72876026 -16.40327257 16.96814643 -19.5625 14.5 C-21.17214787 11.28070427 -21.16936242 7.98112288 -20.5625 4.5 C-15.18019931 -2.33697655 -7.81609476 -3.29098727 0 0 Z " fill="#2E2E2E" transform="translate(175.5625,163.5)"/>
<path d="M0 0 C2.64 0 5.28 0 8 0 C8 2.97 8 5.94 8 9 C9.98 9 11.96 9 14 9 C14 10.98 14 12.96 14 15 C12.02 15 10.04 15 8 15 C8.33 20.94 8.66 26.88 9 33 C10.65 33.33 12.3 33.66 14 34 C14 35.98 14 37.96 14 40 C6.79199579 40.48867825 6.79199579 40.48867825 3.0625 38.1875 C0.20271543 35.15439515 -0.12607559 32.77665801 -0.09765625 28.76953125 C-0.09443359 27.96708984 -0.09121094 27.16464844 -0.08789062 26.33789062 C-0.07951172 25.50451172 -0.07113281 24.67113281 -0.0625 23.8125 C-0.05798828 22.96751953 -0.05347656 22.12253906 -0.04882812 21.25195312 C-0.03705403 19.16793845 -0.0191189 17.08396023 0 15 C-0.99 15 -1.98 15 -3 15 C-3 13.02 -3 11.04 -3 9 C-2.01 9 -1.02 9 0 9 C0 6.03 0 3.06 0 0 Z " fill="#2C2C2C" transform="translate(55,154)"/>
<path d="M0 0 C2.31 0 4.62 0 7 0 C7.33 12.21 7.66 24.42 8 37 C9.65 37.33 11.3 37.66 13 38 C13 39.98 13 41.96 13 44 C5.80855764 44.60944427 5.80855764 44.60944427 2.390625 42.03320312 C-0.853594 37.91696775 -0.6469645 35.06734291 -0.48828125 29.98046875 C-0.48120651 29.12189774 -0.47413177 28.26332672 -0.46684265 27.3787384 C-0.43894402 24.64742397 -0.37621691 21.91819042 -0.3125 19.1875 C-0.28741114 17.3314099 -0.26459899 15.47528754 -0.24414062 13.61914062 C-0.18913253 9.07863028 -0.10289364 4.53966743 0 0 Z " fill="#2E2E2E" transform="translate(23,150)"/>
<path d="M0 0 C2.31 0 4.62 0 7 0 C7.16726689 4.39635047 7.32786093 8.79287761 7.48217773 13.18969727 C7.53566434 14.68650938 7.5909987 16.18325663 7.64819336 17.67993164 C7.72991956 19.82684332 7.8050746 21.97389793 7.87890625 24.12109375 C7.9260376 25.4145874 7.97316895 26.70808105 8.02172852 28.04077148 C8 31 8 31 7 32 C4.69 32 2.38 32 0 32 C0 21.44 0 10.88 0 0 Z " fill="#2C2C2C" transform="translate(40,162)"/>
<path d="M0 0 C2.64 0 5.28 0 8 0 C8 2.64 8 5.28 8 8 C5.36 8 2.72 8 0 8 C0 5.36 0 2.72 0 0 Z " fill="#2F2F2F" transform="translate(40,150)"/>
<path d="M0 0 C1.98 0.66 3.96 1.32 6 2 C6 2.33 6 2.66 6 3 C3.69 3.66 1.38 4.32 -1 5 C-1.33 4.34 -1.66 3.68 -2 3 C-1.34 2.01 -0.68 1.02 0 0 Z " fill="#5B666D" transform="translate(86,95)"/>
<path d="M0 0 C2.97 0.495 2.97 0.495 6 1 C3.33333333 2.33333333 0.66666667 3.66666667 -2 5 C-1.34 3.35 -0.68 1.7 0 0 Z " fill="#D9644F" transform="translate(123,83)"/>
</svg>
