<?xml version="1.0" encoding="UTF-8"?>
<svg version="1.1" xmlns="http://www.w3.org/2000/svg" width="1487" height="1487">
<path d="M0 0 C1.23234375 0.20496094 2.4646875 0.40992188 3.734375 0.62109375 C50.39855383 9.43908998 88.48398367 38.918097 114.85620117 77.54980469 C119.96405049 85.14916796 124.57870528 92.98485958 129 101 C136.67991955 98.89965513 143.91567353 96.07890779 151.25 93 C175.7817415 82.88397482 200.65672743 74.20205785 226.06387329 66.58215332 C227.37282687 66.18857801 228.6810594 65.7925979 229.98861694 65.39440918 C241.62647772 61.85067891 253.35180473 58.80908649 265.1875 56 C266.1014151 55.7827829 267.0153302 55.5655658 267.9569397 55.34176636 C284.21406953 51.49849788 300.42694926 48.19309137 317 46 C318.20462891 45.83918945 319.40925781 45.67837891 320.65039062 45.51269531 C373.1405706 38.8097629 434.5757308 39.6284865 478.5078125 73.06640625 C479.33023437 73.70449219 480.15265625 74.34257813 481 75 C482.20269531 75.87978516 482.20269531 75.87978516 483.4296875 76.77734375 C488.69270626 80.68473647 492.87205334 84.92587231 497 90 C497.62519531 90.71542969 498.25039062 91.43085937 498.89453125 92.16796875 C522.30490996 119.73403599 528.12067082 156.61457552 525.7265625 191.6875 C519.09584899 267.9150712 472.03695589 337.50342064 419 390 C420.57559217 393.31737694 422.31444922 395.53784581 424.875 398.1875 C451.3631651 427.18417512 466.41813541 465.46764978 476 503 C476.20189941 503.76860352 476.40379883 504.53720703 476.61181641 505.32910156 C490.15360805 557.15310542 494.20339761 613.63186247 490 667 C491.22589844 667.09796875 492.45179687 667.1959375 493.71484375 667.296875 C499.83274831 667.98049317 505.64305218 669.605757 511.5625 671.25 C512.71782227 671.56718994 513.87314453 671.88437988 515.06347656 672.21118164 C523.77269006 674.6201779 532.43922782 677.10112475 541 680 C541.80260254 680.2686084 542.60520508 680.5372168 543.43212891 680.81396484 C563.61329666 687.63635103 583.16794311 696.2623138 601 708 C601.57476074 708.37415039 602.14952148 708.74830078 602.74169922 709.13378906 C629.00182673 726.42615246 649.17146659 750.84283129 656 782 C660.58423235 810.0637301 655.34898035 838.06752209 642.1640625 863.02172852 C639.67718979 867.78205843 639.67718979 867.78205843 639.02734375 873.01953125 C639.34832031 874.00308594 639.66929688 874.98664062 640 876 C640.20181885 876.66773438 640.4036377 877.33546875 640.61157227 878.0234375 C641.36436609 880.46929635 642.17582352 882.88978216 643 885.3125 C643.30542725 886.21895264 643.61085449 887.12540527 643.92553711 888.05932617 C647.11702299 897.46308199 650.45416125 906.81354369 653.89453125 916.12890625 C655.21017667 919.71518518 656.40933703 923.28949063 657.44921875 926.96484375 C659.51007558 934.47588492 659.51007558 934.47588492 664.87109375 939.83203125 C668.1718877 941.11219259 668.1718877 941.11219259 671.6015625 941.99609375 C677.03460559 943.60102717 681.40437644 946.76234868 686 950 C686.76183594 950.52335938 687.52367187 951.04671875 688.30859375 951.5859375 C688.86675781 952.05257812 689.42492188 952.51921875 690 953 C690 953.66 690 954.32 690 955 C690.66 955 691.32 955 692 955 C710.8177247 973.42731547 715.6862892 1000.98249244 716.25 1026.25 C714.42456722 1111.40107011 670.89316287 1196.50539239 620.171875 1263.14453125 C618.7088558 1265.06803311 617.26116261 1267.00327739 615.828125 1268.94921875 C611.01761619 1275.47411102 605.95725152 1281.69888567 600.68359375 1287.84765625 C598.25207806 1290.68658245 595.9022715 1293.58480549 593.5625 1296.5 C588.78542358 1302.36703326 583.65913634 1307.87350216 578.4921875 1313.39453125 C577.07568428 1314.91857005 575.67515329 1316.45529431 574.28125 1318 C565.347563 1327.8796068 556.153558 1337.6867211 545.9765625 1346.3046875 C543.49139806 1348.4362317 541.09559854 1350.65683599 538.6875 1352.875 C533.28499945 1357.79513443 527.71013746 1362.44257746 522 1367 C521.48630859 1367.41330566 520.97261719 1367.82661133 520.44335938 1368.25244141 C500.7633932 1384.07137431 480.04259595 1398.21154741 458.14160156 1410.77050781 C456.72169456 1411.58567558 455.30433371 1412.40529563 453.88964844 1413.22949219 C432.3221563 1425.77984179 409.36780487 1435.34577651 386 1444 C385.3490033 1444.24147766 384.69800659 1444.48295532 384.02728271 1444.73175049 C351.88578829 1456.60917231 318.70541637 1465.78082188 285 1472 C283.97519531 1472.19754883 282.95039062 1472.39509766 281.89453125 1472.59863281 C197.36235492 1488.8334564 108.68311824 1488.68584884 -12 1464 C-13.1240625 1463.70899414 -14.248125 1463.41798828 -15.40625 1463.11816406 C-69.25165347 1449.04628733 -121.42943432 1428.05585182 -169 1399 C-169.64952637 1398.60635254 -170.29905273 1398.21270508 -170.96826172 1397.80712891 C-192.49196576 1384.73248136 -212.70921166 1369.91198438 -232.41015625 1354.25634766 C-233.96323971 1353.02904921 -235.52837621 1351.81705225 -237.09375 1350.60546875 C-238.0115625 1349.89003906 -238.929375 1349.17460938 -239.875 1348.4375 C-240.67679687 1347.81746094 -241.47859375 1347.19742187 -242.3046875 1346.55859375 C-242.86414063 1346.04425781 -243.42359375 1345.52992187 -244 1345 C-244 1344.34 -244 1343.68 -244 1343 C-244.53496094 1342.78214844 -245.06992187 1342.56429688 -245.62109375 1342.33984375 C-248.85257422 1340.51981452 -251.38635928 1338.09586338 -254.0625 1335.5625 C-254.68447266 1334.97774902 -255.30644531 1334.39299805 -255.94726562 1333.79052734 C-263.07977401 1327.01998208 -270.03753677 1320.06943455 -277 1313.125 C-277.8845134 1312.24450485 -277.8845134 1312.24450485 -278.78689575 1311.34622192 C-285.07952743 1305.07523958 -291.26892502 1298.79620971 -297 1292 C-297.98418017 1290.86978851 -298.96982944 1289.74085441 -299.95703125 1288.61328125 C-306.16263409 1281.45897629 -312.08431545 1274.15590859 -317.78662109 1266.59570312 C-319.40049102 1264.47331805 -321.04977344 1262.37895209 -322.69458008 1260.28051758 C-346.92960463 1229.21912783 -368.02300105 1194.13667176 -384.47558594 1158.36816406 C-385.87184647 1154.94756994 -385.87184647 1154.94756994 -388 1152 C-389.75921085 1151.67731122 -391.52878926 1151.41085817 -393.30078125 1151.16796875 C-394.41275879 1151.01158936 -395.52473633 1150.85520996 -396.67041016 1150.6940918 C-398.47324463 1150.44332886 -398.47324463 1150.44332886 -400.3125 1150.1875 C-427.80250089 1146.2071207 -454.50330072 1140.30504536 -480 1129 C-480.86077148 1128.61972656 -481.72154297 1128.23945312 -482.60839844 1127.84765625 C-499.92977152 1120.10413292 -516.19196448 1110.91568195 -531 1099 C-532.51400391 1097.79150391 -532.51400391 1097.79150391 -534.05859375 1096.55859375 C-547.95410303 1085.25148465 -560.47833501 1072.50501857 -571 1058 C-571.3923584 1057.46310547 -571.7847168 1056.92621094 -572.18896484 1056.37304688 C-581.6343712 1043.35744297 -589.661592 1029.77693262 -596 1015 C-596.32355469 1014.25121582 -596.64710938 1013.50243164 -596.98046875 1012.73095703 C-617.38484431 965.0327975 -626.32327366 903.79908754 -608 854 C-605.93034828 848.8627911 -603.57925565 843.89905956 -601 839 C-602.00417969 838.52691406 -603.00835938 838.05382812 -604.04296875 837.56640625 C-626.5383275 826.77095744 -647.18135316 811.01706329 -661 790 C-661.67804688 788.97003906 -662.35609375 787.94007813 -663.0546875 786.87890625 C-673.09408907 771.09999775 -679.02798477 754.60516832 -682.75 736.375 C-682.96084229 735.35051758 -683.17168457 734.32603516 -683.38891602 733.27050781 C-697.51204807 660.70343487 -668.91916333 584.7469223 -639.75 519.625 C-639.46957855 518.99608856 -639.1891571 518.36717712 -638.90023804 517.71920776 C-635.20439431 509.45466951 -631.20094417 501.44590174 -626.87280273 493.49951172 C-624.92982753 489.86887601 -623.11257804 486.20326438 -621.3125 482.5 C-612.57781092 464.79843142 -602.31613257 447.81575085 -592 431 C-591.55962402 430.28086426 -591.11924805 429.56172852 -590.66552734 428.82080078 C-576.80417764 406.29029536 -562.08372068 384.10770188 -546.35107422 362.84082031 C-544.56036695 360.40100592 -542.81299484 357.93177326 -541.06616211 355.46044922 C-536.74945996 349.35569926 -532.28555973 343.38335628 -527.6953125 337.48046875 C-525.7328849 334.95598664 -523.79479094 332.41445208 -521.8671875 329.86328125 C-515.95723395 322.05165788 -509.93160724 314.40539036 -503.546875 306.9765625 C-501.15611883 304.18245789 -498.81911485 301.3536626 -496.5 298.5 C-492.75055085 293.8935339 -488.92971236 289.35352368 -485.0793457 284.83154297 C-482.22512057 281.47240446 -479.44080201 278.06790456 -476.6875 274.625 C-472.25183245 269.1551513 -467.46050687 264.04815259 -462.6081543 258.94970703 C-462.02590088 258.33595215 -461.44364746 257.72219727 -460.84375 257.08984375 C-460.31974609 256.54191162 -459.79574219 255.99397949 -459.25585938 255.42944336 C-457.89584824 254.00367301 -457.89584824 254.00367301 -457 252 C-456.34 252 -455.68 252 -455 252 C-454.74605469 251.41734375 -454.49210938 250.8346875 -454.23046875 250.234375 C-452.86679667 247.75811967 -451.35774797 246.19479374 -449.3125 244.25 C-446.72764018 241.78428202 -444.33465668 239.24392911 -442.01953125 236.52832031 C-437.35214423 231.17729728 -432.34104171 226.17683499 -427.32421875 221.15625 C-426.3076122 220.13642342 -425.29107806 219.11652466 -424.27461243 218.09655762 C-422.1609905 215.97699434 -420.04535965 213.85946028 -417.9284668 211.74316406 C-415.21195256 209.0267524 -412.50243937 206.30346758 -409.79454327 203.57846832 C-407.70564842 201.47849357 -405.6122637 199.38304034 -403.51755714 197.28886414 C-402.51557644 196.28570186 -401.5152204 195.28091415 -400.51651573 194.27449036 C-399.12861399 192.87684914 -397.73379042 191.48609164 -396.33862305 190.09570312 C-395.54699265 189.30264771 -394.75536224 188.50959229 -393.93974304 187.69250488 C-392 186 -392 186 -390 186 C-389.73832031 185.401875 -389.47664063 184.80375 -389.20703125 184.1875 C-387.91972747 181.85452228 -386.73452539 180.68320717 -384.6875 179 C-380.9848889 175.87112684 -377.41630642 172.62125886 -373.875 169.3125 C-367.65011829 163.52849449 -361.23813421 157.98954453 -354.75732422 152.49560547 C-353.01985354 151.01689674 -351.29166659 149.52808481 -349.56640625 148.03515625 C-335.44938391 135.82784775 -320.89276442 124.24464113 -306 113 C-304.97060303 112.22027832 -304.97060303 112.22027832 -303.92041016 111.42480469 C-291.8682858 102.29917528 -279.71315397 93.35777991 -267.0859375 85.0390625 C-264.95634268 83.6319125 -262.83710322 82.20900816 -260.7265625 80.7734375 C-212.85582481 48.23508447 -160.04663046 21.12546188 -104 6 C-103.18660156 5.77860352 -102.37320313 5.55720703 -101.53515625 5.32910156 C-68.56001187 -3.42911736 -33.6308489 -5.9462203 0 0 Z " fill="#1F1F1D" transform="translate(728,3)"/>
<path d="M0 0 C21.84567407 17.56110315 33.41056545 43.52712766 36.5703125 71.02734375 C36.92875786 73.69883395 37.4281131 76.15797803 38.03710938 78.77197266 C39.3522055 85.31411133 39.33293541 91.77301409 39.328125 98.42578125 C39.33203102 99.77930833 39.33636944 101.13283423 39.34111023 102.48635864 C39.34853779 105.32216348 39.34831281 108.15784389 39.34301758 110.99365234 C39.33844123 113.83821663 39.34509749 116.68234782 39.36352539 119.52685547 C39.47984726 137.63217193 38.65875951 155.26208345 36.39974976 173.25845337 C34.81038719 186.80938754 33.87341307 200.47808029 33.71484375 214.12109375 C33.68837769 215.38554321 33.68837769 215.38554321 33.66137695 216.67553711 C33.66811691 222.68573927 34.48255033 227.63672174 38.68359375 232.25390625 C49.10348168 239.62730152 61.81535385 244.5994916 74.21484375 247.49609375 C78.33221717 248.50856262 82.16963496 249.91013976 86.12109375 251.43359375 C89.0210694 252.43143483 91.93767389 253.16729678 94.91650391 253.88867188 C98.49056816 254.81133107 101.97101149 255.99751432 105.46484375 257.18359375 C106.62947144 257.57720093 106.62947144 257.57720093 107.81762695 257.97875977 C109.42917206 258.52518167 111.04009306 259.07344763 112.65039062 259.62353516 C114.91407701 260.39499278 117.18138703 261.1548982 119.44921875 261.9140625 C149.19764322 271.99385531 182.51010895 288.63738148 197.02734375 317.93359375 C202.04230989 328.42787474 202.73661458 339.72830146 199.52734375 350.99609375 C192.7989197 369.84038627 181.6845492 384.12604519 168.02734375 398.43359375 C167.22683594 399.28695313 166.42632813 400.1403125 165.6015625 401.01953125 C158.95802555 407.91315225 151.64963032 413.68408503 144.02734375 419.43359375 C143.4329248 419.88879395 142.83850586 420.34399414 142.22607422 420.81298828 C132.26161883 428.43732694 121.84884575 435.0943282 111.02734375 441.43359375 C110.33995117 441.83852051 109.65255859 442.24344727 108.94433594 442.66064453 C100.78624662 447.44222421 92.49813558 451.73875944 83.90576172 455.68725586 C80.21014136 457.38792958 76.61653134 459.14705585 73.08984375 461.18359375 C64.11464588 466.30984528 53.99448719 469.25459508 44.26953125 472.64697266 C42.08136281 473.41464238 39.89751362 474.1934102 37.71484375 474.9765625 C20.61194158 481.10493881 3.32111484 486.04718081 -14.23706055 490.6965332 C-16.46853292 491.29776614 -18.68642673 491.92663617 -20.90234375 492.58203125 C-23.78612241 493.3818579 -26.57796034 493.92940731 -29.53515625 494.37109375 C-33.99565605 495.07567519 -38.37971008 495.94187001 -42.78515625 496.93359375 C-48.83390942 498.26071821 -54.86512671 499.16781503 -61.01171875 499.90625 C-64.21301302 500.33245782 -67.36714362 500.84257178 -70.546875 501.3984375 C-77.39131542 502.55429024 -84.25306552 503.26811439 -91.16015625 503.93359375 C-92.91102539 504.10955078 -92.91102539 504.10955078 -94.69726562 504.2890625 C-97.99073639 504.61301044 -101.28483479 504.92075554 -104.5809021 505.21664429 C-106.28390338 505.37111886 -107.98652603 505.52979206 -109.68887329 505.6913147 C-124.81053782 507.11426056 -139.78971438 507.72594364 -154.97680664 507.6394043 C-158.30167287 507.62100234 -161.62625959 507.61889692 -164.95117188 507.61914062 C-184.74132518 507.58859335 -204.30471736 506.54202775 -224.00561523 504.70410156 C-226.95966508 504.42898286 -229.91433187 504.16136399 -232.86914062 503.89453125 C-234.76696676 503.72048419 -236.66475481 503.5460212 -238.5625 503.37109375 C-239.43639877 503.29189697 -240.31029755 503.2127002 -241.2106781 503.13110352 C-245.19987829 502.75573974 -249.04418373 502.2341809 -252.97265625 501.43359375 C-275.2536689 499.98163203 -294.20999513 503.10799632 -311.578125 518.1875 C-323.63626553 529.49815384 -331.41831369 543.64648193 -335.97265625 559.43359375 C-336.1528833 560.05766113 -336.33311035 560.68172852 -336.51879883 561.32470703 C-340.83505979 578.09746066 -339.88777397 598.50551361 -332.97265625 614.43359375 C-332.6885791 615.10632324 -332.40450195 615.77905273 -332.11181641 616.47216797 C-327.7478816 626.56007146 -322.01030405 635.03719216 -314.97265625 643.43359375 C-314.37710938 644.16964844 -313.7815625 644.90570312 -313.16796875 645.6640625 C-290.12096154 673.28738933 -251.73827357 689.12446665 -216.765625 694.0078125 C-213.5820316 694.49314352 -210.48782585 695.219759 -207.34765625 695.93359375 C-188.56660236 699.64087593 -169.41658625 699.61569937 -150.34765625 699.62109375 C-149.3980603 699.62209076 -148.44846436 699.62308777 -147.47009277 699.62411499 C-144.72868183 699.62378896 -141.98747072 699.61471378 -139.24609375 699.6015625 C-138.02087509 699.59974976 -138.02087509 699.59974976 -136.77090454 699.59790039 C-131.75107331 699.5573156 -126.94708041 699.10398073 -121.97265625 698.43359375 C-119.86866645 698.28022958 -117.76300663 698.14801272 -115.65625 698.0390625 C-101.11495816 697.21060198 -87.05287974 695.70881926 -72.76000977 692.9296875 C-69.58988689 692.36546838 -66.41345101 691.92798766 -63.22265625 691.49609375 C-55.87349021 690.47241885 -48.65789387 689.01207677 -41.41015625 687.43359375 C-40.17974609 687.17320312 -38.94933594 686.9128125 -37.68164062 686.64453125 C-32.57219259 685.54309335 -27.81342118 684.41504675 -22.97265625 682.43359375 C-20.94952026 681.97388424 -18.92541028 681.51777562 -16.89526367 681.09008789 C-5.55814205 678.66539846 5.36334395 675.17839894 16.33984375 671.49609375 C17.47379074 671.11701874 17.47379074 671.11701874 18.63064575 670.73028564 C33.68136257 665.68408354 48.5353795 660.30871456 63.02734375 653.80859375 C64.17090332 653.2971582 65.31446289 652.78572266 66.49267578 652.25878906 C82.81704884 644.89200789 99.02422803 637.26253241 114.02734375 627.43359375 C115.18089832 626.70741732 116.33591229 625.9835553 117.4921875 625.26171875 C125.3047666 620.35999996 132.74161992 615.09913564 140.02734375 609.43359375 C140.85621094 608.799375 141.68507813 608.16515625 142.5390625 607.51171875 C158.23380523 595.27942329 178.52156278 577.95093667 185.02734375 558.43359375 C184.02058594 559.160625 183.01382813 559.88765625 181.9765625 560.63671875 C171.24797856 568.32915478 160.28770599 575.54451217 149.02734375 582.43359375 C148.2895166 582.88508789 147.55168945 583.33658203 146.79150391 583.80175781 C136.7827648 589.88897037 126.58308186 595.36190007 116.02734375 600.43359375 C115.11549316 600.87380859 114.20364258 601.31402344 113.26416016 601.76757812 C91.76237427 612.14165023 70.33078102 621.77770247 47.73095703 629.50244141 C44.89591703 630.47885847 42.06857313 631.47538406 39.2421875 632.4765625 C23.27883032 638.11939904 7.24676317 642.93683016 -9.140625 647.17578125 C-12.37856746 648.01362099 -15.60922205 648.87383403 -18.8359375 649.75390625 C-29.70876561 652.70546284 -40.54558342 655.06407036 -51.66772461 656.87158203 C-56.85400908 657.71920546 -62.01866941 658.6212172 -67.171875 659.65234375 C-81.50311673 662.50125282 -95.60719783 664.39793454 -110.19799805 665.21582031 C-112.31991674 665.38236246 -114.43468702 665.64241243 -116.54174805 665.94335938 C-122.0704821 666.6512821 -127.60151295 666.61463044 -133.16796875 666.63671875 C-134.34115662 666.6438237 -135.51434448 666.65092865 -136.7230835 666.6582489 C-170.56844054 666.8164635 -202.35131671 666.51054779 -234.97265625 656.43359375 C-235.77364746 656.18738281 -236.57463867 655.94117188 -237.39990234 655.6875 C-261.00666116 648.19429881 -283.2117692 633.77653768 -294.97265625 611.43359375 C-300.97265625 597.85499474 -300.97265625 597.85499474 -300.97265625 592.43359375 C-297.8680423 593.39454569 -295.00225505 594.41853259 -292.1015625 595.89453125 C-287.58807991 598.11464628 -282.93867386 599.44794602 -278.109375 600.82275391 C-276.60714623 601.25220733 -275.10733161 601.69015178 -273.609375 602.13427734 C-256.93479616 607.04252031 -240.2305447 609.55390542 -222.97265625 611.43359375 C-221.9347998 611.5521875 -220.89694336 611.67078125 -219.82763672 611.79296875 C-185.7684037 615.5779538 -148.46135295 615.62132035 -114.76953125 609.13671875 C-111.2511717 608.48517069 -107.7780162 608.06750586 -104.22265625 607.68359375 C-97.82717906 606.79346301 -91.80738263 605.04350652 -85.66015625 603.12109375 C-84.28102051 602.69521973 -84.28102051 602.69521973 -82.87402344 602.26074219 C-76.80948979 600.29037148 -71.42608772 597.73406898 -65.97265625 594.43359375 C-65.97265625 593.11359375 -65.97265625 591.79359375 -65.97265625 590.43359375 C-75.24067495 585.7995844 -92.08412729 589.71586377 -101.97265625 590.93359375 C-133.20308718 594.61340232 -166.8031933 594.31353752 -197.8125 588.9296875 C-201.852829 588.29542077 -205.90454138 587.90656414 -209.97265625 587.49609375 C-216.44625332 586.82498828 -222.63831579 585.73894895 -228.9609375 584.15234375 C-231.97689226 583.43258282 -234.9719372 582.90912581 -238.03515625 582.43359375 C-244.1266263 581.4551711 -250.00761773 579.99571577 -255.97265625 578.43359375 C-257.69501693 578.00531997 -259.41770279 577.57835291 -261.140625 577.15234375 C-289.9591543 569.94034473 -289.9591543 569.94034473 -300.97265625 564.43359375 C-300.51603742 555.91004233 -297.42674344 550.56287097 -291.34765625 544.62109375 C-279.71649009 535.04120267 -261.13526365 537.18419602 -246.97265625 537.43359375 C-245.66312988 537.45244629 -245.66312988 537.45244629 -244.32714844 537.47167969 C-234.31423261 537.64671817 -224.38579116 538.05491789 -214.453125 539.390625 C-191.88922676 542.38435132 -169.57498227 542.79980165 -146.84765625 542.74609375 C-146.05824017 542.7447707 -145.26882408 542.74344765 -144.4554863 542.7420845 C-119.75942086 542.69768935 -95.4560381 542.27481778 -70.97265625 538.74609375 C-70.0446521 538.61487122 -69.11664795 538.48364868 -68.16052246 538.34844971 C-41.44827661 534.55489648 -15.53273088 528.45196777 10.27734375 520.62109375 C11.35468781 520.29486023 11.35468781 520.29486023 12.45379639 519.96203613 C23.80379405 516.51531469 34.99562929 512.80587033 46.02734375 508.43359375 C46.70909668 508.16562988 47.39084961 507.89766602 48.09326172 507.62158203 C52.41596312 505.91982004 56.72281743 504.18087485 61.02734375 502.43359375 C62.8186959 501.72446538 64.6103271 501.01604118 66.40234375 500.30859375 C70.21309472 498.78429336 73.97137414 497.16551906 77.7109375 495.47436523 C79.10262593 494.84907352 80.4973318 494.23034738 81.89770508 493.62475586 C89.44445759 490.34964372 96.79493621 486.67113583 104.15234375 482.99609375 C104.85709839 482.64421997 105.56185303 482.29234619 106.28796387 481.92980957 C119.11246006 475.51140177 131.66489397 468.70698127 144.02734375 461.43359375 C144.8977832 460.92344727 145.76822266 460.41330078 146.66503906 459.88769531 C165.28350084 449.17831733 165.28350084 449.17831733 182.91943359 436.97216797 C187.53506706 433.41328777 187.53506706 433.41328777 190.12255859 433.52001953 C192.02734375 434.43359375 192.02734375 434.43359375 193.04467773 436.37280273 C193.28516846 437.21657471 193.52565918 438.06034668 193.7734375 438.9296875 C194.18952271 440.34314453 194.18952271 440.34314453 194.61401367 441.78515625 C194.8947876 442.80351563 195.17556152 443.821875 195.46484375 444.87109375 C195.76559814 445.91136719 196.06635254 446.95164062 196.3762207 448.0234375 C197.2770514 451.15559343 198.1543579 454.29357912 199.02734375 457.43359375 C199.50049406 459.10179189 199.97437993 460.7697817 200.44921875 462.4375 C202.42240486 469.41696666 204.29521802 476.42252226 206.15234375 483.43359375 C207.97152721 490.28827703 209.96203346 497.06721325 212.1015625 503.828125 C212.46894531 504.99730469 212.83632812 506.16648437 213.21484375 507.37109375 C213.55902344 508.45261719 213.90320312 509.53414062 214.2578125 510.6484375 C215.02734375 513.43359375 215.02734375 513.43359375 215.02734375 516.43359375 C215.52234375 516.26859375 216.01734375 516.10359375 216.52734375 515.93359375 C223.6307173 514.51291904 231.79246207 515.01034336 238.1640625 518.65625 C249.16025953 526.51067645 253.83325267 536.04718025 256.14941406 549.16601562 C261.26128822 581.56605763 248.93186905 615.21300198 236.02734375 644.43359375 C235.55425781 645.56796875 235.08117188 646.70234375 234.59375 647.87109375 C232.96191909 651.58238998 231.1468488 655.12321114 229.21484375 658.68359375 C228.68600586 659.66465088 228.68600586 659.66465088 228.14648438 660.66552734 C227.43665673 661.98115617 226.7255834 663.29611376 226.01318359 664.61035156 C225.15291514 666.2013582 224.30219537 667.79752047 223.453125 669.39453125 C211.73515826 691.28947184 197.07970489 713.29112733 180.02734375 731.43359375 C178.9183735 732.70023749 177.81427745 733.97116359 176.71484375 735.24609375 C165.8509674 747.65844116 154.62248446 759.75220234 142.02734375 770.43359375 C141.07085938 771.27921875 140.114375 772.12484375 139.12890625 772.99609375 C121.7212644 788.31773897 102.82945505 801.42061568 83.02734375 813.43359375 C81.82909426 814.17394076 80.63118469 814.91483819 79.43359375 815.65625 C48.71879168 834.55360009 14.12067123 848.49459752 -20.78833008 857.31762695 C-25.81530084 858.59049659 -30.74435126 859.9593242 -35.66015625 861.62109375 C-43.39118123 864.07313575 -51.35559082 865.00175317 -59.36962891 866.07470703 C-61.84017452 866.41532812 -64.30239614 866.79000986 -66.765625 867.1796875 C-90.8762877 870.94941692 -114.83624834 872.71688087 -139.22265625 872.74609375 C-140.15271484 872.74958832 -141.08277344 872.75308289 -142.04101562 872.75668335 C-154.72272162 872.78318771 -167.17600919 872.02865613 -179.78179932 870.6645813 C-182.58313634 870.3692293 -185.38752881 870.13129389 -188.1953125 869.90625 C-196.22187106 869.237436 -203.95717995 868.50839278 -211.73046875 866.2890625 C-217.10405492 864.87121266 -222.57283332 863.90291026 -228.03344727 862.87939453 C-232.24169028 862.06908872 -236.01909067 861.12995726 -239.97265625 859.43359375 C-241.71593691 858.98965271 -243.46681078 858.57489645 -245.22265625 858.18359375 C-262.86686851 853.88118731 -279.70018585 846.36836787 -295.97265625 838.43359375 C-296.62862793 838.11438965 -297.28459961 837.79518555 -297.96044922 837.46630859 C-310.67725688 831.19911454 -322.36830004 823.55297953 -333.97265625 815.43359375 C-335.07770508 814.66160645 -335.07770508 814.66160645 -336.20507812 813.87402344 C-346.98252896 806.26552483 -356.54623358 797.64254128 -365.97265625 788.43359375 C-367.09112367 787.35544576 -368.2096121 786.27731956 -369.328125 785.19921875 C-375.70802877 778.99295155 -381.49843248 772.45804018 -386.97265625 765.43359375 C-387.77316406 764.42683594 -388.57367187 763.42007813 -389.3984375 762.3828125 C-407.08249198 739.97886383 -421.08941616 714.79727985 -430.70703125 687.9140625 C-431.72648518 685.1105642 -432.83556544 682.41123475 -434.03515625 679.68359375 C-442.85667313 657.52044391 -447.04496085 629.93330479 -447.17578125 606.17578125 C-447.18284088 605.31862518 -447.18990051 604.46146912 -447.19717407 603.57833862 C-447.31122578 585.65277285 -447.30706897 568.10509672 -443.97265625 550.43359375 C-443.76334473 549.2537793 -443.5540332 548.07396484 -443.33837891 546.85839844 C-440.10668173 528.73070428 -436.10958811 511.75450079 -428.1640625 495.06640625 C-426.89977147 492.27253033 -425.87800329 489.44651985 -424.84765625 486.55859375 C-414.70749378 459.87729125 -397.29683912 436.05544961 -378.97265625 414.43359375 C-378.22628906 413.551875 -377.47992187 412.67015625 -376.7109375 411.76171875 C-372.62935358 407.04261634 -372.62935358 407.04261634 -370.97265625 405.43359375 C-370.31265625 405.43359375 -369.65265625 405.43359375 -368.97265625 405.43359375 C-365.98158282 399.65085178 -365.43842422 394.88395089 -365.97265625 388.43359375 C-367.01082 384.8436801 -367.01082 384.8436801 -368.97265625 381.43359375 C-369.35164062 380.70914062 -369.730625 379.9846875 -370.12109375 379.23828125 C-374.11283072 372.06238415 -379.30936071 366.1177138 -384.66796875 359.95605469 C-386.45529636 357.87039321 -388.15304132 355.71994584 -389.84765625 353.55859375 C-392.63566912 350.03241046 -395.53156098 346.63077843 -398.50073242 343.25805664 C-426.2608363 311.69150627 -449.01123753 275.92810067 -457.97265625 234.43359375 C-458.16480713 233.63904785 -458.35695801 232.84450195 -458.55493164 232.02587891 C-460.61602056 222.57561592 -460.41153403 212.93406066 -460.41015625 203.30859375 C-460.41155609 202.37695404 -460.41295593 201.44531433 -460.41439819 200.48544312 C-460.39560588 185.26677233 -459.19902427 171.13348591 -454.97265625 156.43359375 C-454.77510742 155.71365234 -454.57755859 154.99371094 -454.37402344 154.25195312 C-448.46336854 133.12059623 -437.75365631 112.45584876 -423.97265625 95.43359375 C-423.54726563 94.90137207 -423.121875 94.36915039 -422.68359375 93.82080078 C-406.87700696 74.12611717 -387.16596727 60.27318024 -363.97265625 50.43359375 C-363.19277344 50.09585938 -362.41289063 49.758125 -361.609375 49.41015625 C-355.25173139 46.87521063 -348.68615021 45.29748937 -342.03515625 43.74609375 C-341.12983154 43.53146484 -340.22450684 43.31683594 -339.29174805 43.09570312 C-316.0080276 37.86537784 -286.78469689 37.98135034 -263.42578125 43.45703125 C-251.42433148 46.23523605 -239.87172787 46.84592922 -227.59765625 46.87109375 C-226.78822571 46.87699524 -225.97879517 46.88289673 -225.14483643 46.88897705 C-214.34151122 46.94237346 -204.49407068 45.90889452 -193.97265625 43.43359375 C-191.86929289 43.01289069 -189.76523988 42.59560271 -187.66015625 42.18359375 C-179.11812129 40.19362774 -171.05570979 36.78360081 -162.97265625 33.43359375 C-161.84085938 32.96824219 -160.7090625 32.50289063 -159.54296875 32.0234375 C-146.88971855 26.38900333 -134.85134073 19.55148962 -123.21435547 12.06567383 C-83.25743003 -13.63749042 -42.74894279 -31.33513359 0 0 Z " fill="#FEDF1B" transform="translate(1141.97265625,469.56640625)"/>
<path d="M0 0 C14.75332558 12.90231744 26.05765847 29.00296982 33.56640625 47.1015625 C33.00469727 47.40747314 32.44298828 47.71338379 31.86425781 48.02856445 C27.13972137 50.60214308 22.4166778 53.17842037 17.6953125 55.7578125 C13.97883405 57.7878266 10.25831346 59.80980747 6.53125 61.8203125 C-35.27972523 84.46046545 -75.05363997 111.0850745 -113.43359375 139.1015625 C-114.23265137 139.68373535 -115.03170898 140.2659082 -115.85498047 140.86572266 C-126.20822766 148.41655612 -136.42232315 156.10280084 -146.43359375 164.1015625 C-147.68076172 165.0915625 -147.68076172 165.0915625 -148.953125 166.1015625 C-156.20215905 171.87193786 -163.38085634 177.73018841 -170.56494141 183.58105469 C-172.17950175 184.89480982 -173.79655139 186.2055046 -175.4140625 187.515625 C-181.64608793 192.57857033 -187.75954486 197.76860426 -193.83984375 203.01171875 C-196.1614378 205.01302809 -198.49394262 206.9999051 -200.83984375 208.97265625 C-208.82454203 215.70748585 -216.47004024 222.74717631 -224.03515625 229.94921875 C-227.31770623 233.07002753 -230.65436877 236.12481593 -234.00805664 239.16894531 C-240.04398891 244.68067394 -245.86793035 250.38920194 -251.640625 256.17578125 C-252.66031162 257.19479104 -253.68014635 258.21365263 -254.70011902 259.2323761 C-256.81333906 261.34413963 -258.92478573 263.4576551 -261.03491211 265.57250977 C-263.71859275 268.26191603 -266.40678052 270.94676551 -269.09630299 273.63032818 C-271.19409703 275.72448579 -273.2894756 277.82104735 -275.384161 279.91831398 C-276.37405052 280.90886275 -277.36466152 281.89869115 -278.35605812 282.88773155 C-283.39167389 287.91398752 -288.33096147 292.96680365 -292.95256042 298.37898254 C-295.52313111 301.36879612 -298.23712498 304.22568173 -300.93359375 307.1015625 C-307.87832215 314.55206115 -314.50909935 322.16136467 -320.9296875 330.0703125 C-323.14375418 332.75068028 -325.4006827 335.3810349 -327.68359375 338.00219727 C-333.31803399 344.47941918 -338.6163466 351.14887364 -343.7902832 357.99902344 C-346.73776803 361.8983509 -349.73234398 365.72750027 -352.87109375 369.4765625 C-369.13654989 389.17255121 -383.51988822 410.6994346 -397.43359375 432.1015625 C-397.93503906 432.87161621 -398.43648438 433.64166992 -398.953125 434.43505859 C-416.48828583 461.45448154 -433.48032383 489.25523438 -447.53613281 518.26708984 C-448.71922658 520.68541589 -449.94676251 523.08076533 -451.16992188 525.47900391 C-455.38800839 533.78309107 -459.32555286 542.21672133 -463.24609375 550.6640625 C-463.67310074 551.5834259 -463.67310074 551.5834259 -464.10873413 552.5213623 C-471.0629693 567.50914159 -477.24601313 582.78457865 -483.43359375 598.1015625 C-483.79066406 598.98473145 -484.14773438 599.86790039 -484.515625 600.77783203 C-489.0772562 612.11386099 -493.03734477 623.60385883 -496.78857422 635.23242188 C-497.43359375 637.1015625 -497.43359375 637.1015625 -498.43359375 639.1015625 C-500.54780187 639.43057471 -502.67746674 639.6607153 -504.80859375 639.8515625 C-518.82836701 641.41977746 -532.14171008 646.27670849 -544.43359375 653.1015625 C-545.79484375 653.80925781 -545.79484375 653.80925781 -547.18359375 654.53125 C-565.84898536 664.34118593 -582.58613359 677.83573678 -598.11328125 692 C-600.12757106 693.82439044 -602.17507989 695.59250052 -604.24609375 697.3515625 C-606.86303686 699.59008817 -609.25880236 701.94942351 -611.609375 704.4609375 C-612.4614856 705.3576416 -612.4614856 705.3576416 -613.33081055 706.27246094 C-614.4664186 707.4746618 -615.58702041 708.69125029 -616.69067383 709.92285156 C-618.20592829 711.51814932 -619.59850257 712.887046 -621.43359375 714.1015625 C-632.39547754 714.33865159 -644.33086742 702.04638746 -651.93359375 694.9765625 C-657.1334597 689.60418915 -661.28017191 683.29222836 -665.43359375 677.1015625 C-665.94148437 676.35132813 -666.449375 675.60109375 -666.97265625 674.828125 C-671.59421114 667.28455476 -673.95090361 658.5260303 -676.43359375 650.1015625 C-676.64967285 649.40401855 -676.86575195 648.70647461 -677.08837891 647.98779297 C-687.76204745 612.45693922 -680.49942118 563.44902264 -665.43359375 530.1015625 C-664.95001857 528.27984013 -664.51058657 526.44569175 -664.12109375 524.6015625 C-662.63959185 518.37145712 -660.35023742 512.5934969 -657.90625 506.69921875 C-656.65643531 503.64595793 -655.51716026 500.5912495 -654.43359375 497.4765625 C-652.57737318 492.27760446 -650.28378548 487.33373326 -647.9296875 482.34375 C-646.54976727 479.35332235 -645.28793066 476.34377845 -644.05859375 473.2890625 C-641.19869721 466.32783522 -637.793239 459.66388221 -634.37841797 452.96337891 C-633.08522393 450.41508492 -631.82364629 447.85142105 -630.55859375 445.2890625 C-617.57523288 419.4259314 -603.34830877 394.27640278 -587.43359375 370.1015625 C-587.05936279 369.53268311 -586.68513184 368.96380371 -586.29956055 368.37768555 C-572.32778943 347.15051829 -558.15491381 326.09655116 -542.76806641 305.86083984 C-540.7670152 303.222791 -538.78914686 300.56751807 -536.80859375 297.9140625 C-535.3519244 295.97531116 -533.89358784 294.03781135 -532.43359375 292.1015625 C-531.67949219 291.10125 -530.92539062 290.1009375 -530.1484375 289.0703125 C-524.82064318 282.0705437 -519.3041644 275.25172199 -513.68579102 268.4831543 C-509.93638177 263.95765354 -506.2793775 259.37469208 -502.68359375 254.7265625 C-498.62657019 249.49616601 -494.32333246 244.5835382 -489.81640625 239.73046875 C-487.49976137 237.17456383 -485.33521527 234.54704407 -483.18359375 231.8515625 C-478.88733676 226.52328649 -474.27493468 221.54362713 -469.56933594 216.57910156 C-466.01517396 212.82556473 -462.5747046 208.99668323 -459.18408203 205.0949707 C-456.33288918 201.84811023 -453.39009846 198.68990643 -450.43359375 195.5390625 C-449.79421875 194.85650391 -449.15484375 194.17394531 -448.49609375 193.47070312 C-443.27850148 187.93210665 -437.91919949 182.54825751 -432.5090332 177.19848633 C-429.42071108 174.13314707 -426.42983252 171.05495083 -423.62109375 167.7265625 C-421.31032565 165.00089339 -418.87075745 162.64549836 -416.18359375 160.2890625 C-409.96234087 154.82393112 -404.19417311 148.91433791 -398.38574219 143.01635742 C-394.15908756 138.74478477 -389.86902852 134.64245032 -385.30957031 130.72802734 C-382.33258148 128.14698887 -379.48661475 125.42985296 -376.62109375 122.7265625 C-371.57793557 118.00283141 -366.40668399 113.53321959 -361.01171875 109.2109375 C-358.40933085 107.08171104 -355.91783873 104.86706893 -353.43359375 102.6015625 C-344.48770447 94.47149331 -334.92865778 87.07497526 -325.40380859 79.64208984 C-323.32271185 78.01486302 -321.2471995 76.38067442 -319.171875 74.74609375 C-288.9996009 51.04143914 -256.99421431 29.70818878 -223.43359375 11.1015625 C-222.67804199 10.68245605 -221.92249023 10.26334961 -221.14404297 9.83154297 C-211.83992844 4.70606006 -202.3726422 0.15569752 -192.625 -4.0625 C-189.07430613 -5.6007355 -185.59931123 -7.26446497 -182.12109375 -8.9609375 C-173.20892809 -13.10639352 -163.78852662 -15.93455477 -154.43359375 -18.8984375 C-152.57927734 -19.48818359 -152.57927734 -19.48818359 -150.6875 -20.08984375 C-147.60970302 -21.05047806 -144.52290962 -21.97565484 -141.43359375 -22.8984375 C-139.85191406 -23.40503906 -139.85191406 -23.40503906 -138.23828125 -23.921875 C-90.80841012 -38.55800693 -38.29171629 -32.57733185 0 0 Z " fill="#FEDF1B" transform="translate(775.43359375,82.8984375)"/>
<path d="M0 0 C0.71285156 0.25201172 1.42570313 0.50402344 2.16015625 0.76367188 C11.47170246 4.1401195 19.9133519 8.22557049 28 14 C28.90363281 14.6084375 29.80726563 15.216875 30.73828125 15.84375 C61.97918044 37.82652074 80.77238145 71.96535262 92.7734375 107.42578125 C93.48239057 109.49167954 94.22850649 111.54708123 95.0703125 113.5625 C96.21481915 116.56322333 96.85201631 119.54266609 97.5 122.6875 C97.7371875 123.82574219 97.974375 124.96398437 98.21875 126.13671875 C98.79057295 128.96438323 99.35628863 131.79298124 99.91845703 134.62255859 C100.59650091 138.02946299 101.30838246 141.4261429 102.04833984 144.82006836 C105.17564592 159.75954637 105.71288335 174.33327715 105.625 189.5625 C105.62301605 190.79169159 105.6210321 192.02088318 105.61898804 193.287323 C105.55553545 211.90346499 104.51986649 229.1396465 99 247 C98.76555176 247.81001465 98.53110352 248.6200293 98.28955078 249.45458984 C97.05076184 253.72213993 95.6400317 257.86598906 94 262 C93.70867187 262.76699219 93.41734375 263.53398438 93.1171875 264.32421875 C88.07015775 276.62351198 80.94819227 288.20104581 72 298 C71.23042969 298.86238281 70.46085938 299.72476562 69.66796875 300.61328125 C63.53230289 307.14543602 56.80638864 311.65750697 49 316 C48.30261719 316.40992188 47.60523438 316.81984375 46.88671875 317.2421875 C40.7037269 320.6580588 33.79114058 322.21858012 27 324 C26.4126709 324.176521 25.8253418 324.35304199 25.22021484 324.53491211 C-4.58354378 330.77816702 -41.69346369 321.76774733 -68 308 C-69.28418179 307.3755051 -70.57066195 306.75571477 -71.859375 306.140625 C-88.93777371 297.88653538 -103.13086193 286.8917827 -117 274 C-117.66515625 273.38898438 -118.3303125 272.77796875 -119.015625 272.1484375 C-129.39083854 262.23715627 -137.65787661 250.26277594 -145 238 C-145.62503418 236.96335205 -145.62503418 236.96335205 -146.26269531 235.90576172 C-152.59264388 225.29990689 -157.3342801 214.78245945 -161 203 C-161.37769531 201.8346875 -161.75539062 200.669375 -162.14453125 199.46875 C-164.39264894 192.39602018 -166.45433005 185.26125169 -168 178 C-168.17208984 177.21931152 -168.34417969 176.43862305 -168.52148438 175.63427734 C-170.24026862 166.85838519 -170.3050387 158.21633843 -170.26074219 149.31103516 C-170.2500768 146.76830882 -170.26066256 144.22629796 -170.2734375 141.68359375 C-170.28550744 128.24297731 -169.23189887 115.08265121 -166.25 101.9375 C-166.08081055 101.19129395 -165.91162109 100.44508789 -165.73730469 99.67626953 C-163.92828986 92.11728662 -161.24101422 85.06762079 -158 78 C-157.55914062 77.02981934 -157.55914062 77.02981934 -157.109375 76.04003906 C-149.89112095 60.37245161 -138.47814403 37.44167061 -122 30 C-122 29.34 -122 28.68 -122 28 C-119.78714038 26.17711154 -117.57478393 24.48242311 -115.25 22.8125 C-114.5684082 22.31927246 -113.88681641 21.82604492 -113.18457031 21.31787109 C-82.32282243 -0.72932339 -37.02301887 -13.32978874 0 0 Z " fill="#FDDE1B" transform="translate(340,777)"/>
<path d="M0 0 C0.74056641 0.00451172 1.48113281 0.00902344 2.24414062 0.01367188 C4.05862899 0.02537825 5.87307534 0.04331102 7.6875 0.0625 C4.89941376 3.50660653 2.25273841 6.62535491 -1.1875 9.4375 C-4.66812263 12.39668104 -7.56589927 15.58611112 -10.5078125 19.0703125 C-13.02653579 21.85072132 -15.8279395 24.22396522 -18.7109375 26.6171875 C-20.42837815 27.99059017 -20.42837815 27.99059017 -21.3125 30.0625 C-21.9725 30.0625 -22.6325 30.0625 -23.3125 30.0625 C-23.3125 30.7225 -23.3125 31.3825 -23.3125 32.0625 C-22.45930176 32.06080811 -22.45930176 32.06080811 -21.58886719 32.05908203 C-7.19049403 32.12429719 6.64674094 33.58517796 20.8125 36 C21.59935181 36.13319641 22.38620361 36.26639282 23.19689941 36.40362549 C25.46856459 36.79168038 27.73852461 37.18813535 30.0078125 37.58984375 C30.67988739 37.70761673 31.35196228 37.82538971 32.04440308 37.94673157 C36.3491851 38.73162565 40.48870993 39.84162342 44.6875 41.0625 C46.27820802 41.38910925 47.87315959 41.69614127 49.47265625 41.9765625 C54.85671456 43.02100263 59.94643898 44.65154264 65.125 46.4375 C66.04949951 46.75275635 66.97399902 47.0680127 67.92651367 47.39282227 C69.73100963 48.01002003 71.53453007 48.63007962 73.33691406 49.25341797 C75.19614572 49.89337369 77.06184292 50.51454291 78.9296875 51.12890625 C93.21156578 55.96911728 111.3812597 63.99141812 121.6875 75.0625 C116.46522516 74.50448689 111.45286449 73.61438436 106.33398438 72.45043945 C44.51222525 58.5341527 -21.61534032 58.3424841 -84.1875 67 C-85.10882721 67.12715393 -86.03015442 67.25430786 -86.97940063 67.38531494 C-96.04788755 68.65441288 -104.97183008 70.01833415 -113.82617188 72.40405273 C-117.39899949 73.3502346 -120.98498494 73.98479635 -124.625 74.625 C-129.63604811 75.5075428 -134.42689209 76.64930763 -139.3125 78.0625 C-140.84976285 78.33828802 -142.39171186 78.58939656 -143.9375 78.8125 C-172.24532392 83.85518928 -202.38496462 94.80799619 -228.3125 107.0625 C-233.7691431 109.58520891 -239.22340965 112.03457476 -244.8125 114.25 C-252.04318038 117.2251237 -258.8592411 120.95350142 -265.74609375 124.63671875 C-270.2388825 127.03811665 -274.78712906 129.30927964 -279.37890625 131.515625 C-283.80110992 133.84743945 -288.04183116 136.46582676 -292.3125 139.0625 C-293.29178467 139.65353516 -294.27106934 140.24457031 -295.2800293 140.85351562 C-311.62690813 150.73402098 -327.96255189 160.66612907 -342.6484375 172.953125 C-344.3125 174.0625 -344.3125 174.0625 -347.3125 174.0625 C-340.05936827 165.65469661 -332.78228311 157.27926142 -325.3125 149.0625 C-324.53624268 148.20140625 -323.75998535 147.3403125 -322.96020508 146.453125 C-316.2944295 139.10548543 -309.4137693 132.00794054 -302.38647461 125.00610352 C-300.61258997 123.23762781 -298.84418223 121.46379956 -297.07617188 119.68945312 C-291.85843086 114.46865747 -286.64044033 109.31424001 -281.01879883 104.52368164 C-278.26495376 102.1654383 -275.64385927 99.66736989 -273 97.1875 C-268.18013923 92.70382731 -263.23746022 88.4462577 -258.1015625 84.32421875 C-255.62521944 82.31609181 -253.19770477 80.26112745 -250.78125 78.18164062 C-243.1949948 71.66452679 -235.29034201 65.60940821 -227.3125 59.58203125 C-225.51061061 58.21301763 -223.72074597 56.83066092 -221.9375 55.4375 C-208.43383689 44.90464277 -194.29548102 35.32362964 -180.0625 25.8125 C-179.11287888 25.17674042 -179.11287888 25.17674042 -178.14407349 24.52813721 C-169.64655635 18.84495722 -161.06242551 13.35011552 -152.3125 8.0625 C-151.40725586 7.49370117 -150.50201172 6.92490234 -149.56933594 6.33886719 C-147.3125 5.0625 -147.3125 5.0625 -145.3125 5.0625 C-145.98898783 9.24728521 -147.33721387 12.89308263 -148.9375 16.8125 C-149.19966309 17.45791748 -149.46182617 18.10333496 -149.73193359 18.76831055 C-150.58690709 20.86854967 -151.44889902 22.96579475 -152.3125 25.0625 C-152.61027344 25.78711426 -152.90804687 26.51172852 -153.21484375 27.25830078 C-154.71150994 30.89959969 -156.21102043 34.53972665 -157.7109375 38.1796875 C-157.98647461 38.84838867 -158.26201172 39.51708984 -158.54589844 40.20605469 C-159.20734771 41.80785731 -159.87282561 43.40799526 -160.5390625 45.0078125 C-162.20954457 49.0756276 -163.67728131 53.12792427 -164.921875 57.34765625 C-165.18452148 58.23461182 -165.44716797 59.12156738 -165.71777344 60.03540039 C-165.9140332 60.70434326 -166.11029297 61.37328613 -166.3125 62.0625 C-165.85625244 61.75135254 -165.40000488 61.44020508 -164.92993164 61.11962891 C-138.12999515 42.900887 -110.09688469 27.66368689 -79.75 16.1875 C-78.77522705 15.81810303 -77.8004541 15.44870605 -76.79614258 15.06811523 C-71.16884819 12.9837366 -65.53744413 11.21681681 -59.72558594 9.72021484 C-57.47208137 9.10599577 -55.31284516 8.37670508 -53.125 7.5625 C-41.6552217 3.68510592 -29.37840468 2.61988703 -17.39453125 1.4921875 C-15.1227624 1.27501628 -13.01556587 0.99788933 -10.78125 0.51171875 C-7.1957462 -0.14070678 -3.62973579 -0.04216851 0 0 Z " fill="#FBDD1B" transform="translate(901.3125,253.9375)"/>
<path d="M0 0 C1.00417969 0.55945313 2.00835937 1.11890625 3.04296875 1.6953125 C19.74118417 11.67086977 29.88373262 24.65119786 36 43 C37.28056168 57.38281493 35.82472171 70.46040235 31 84 C30.45206787 85.55062134 30.45206787 85.55062134 29.89306641 87.13256836 C27.74426701 93.18108772 25.5593532 99.21602566 23.359375 105.24609375 C22.71355469 107.0259668 22.71355469 107.0259668 22.0546875 108.84179688 C21.17430882 111.26810998 20.28876872 113.69255565 19.3984375 116.11523438 C18.76035156 117.88157227 18.76035156 117.88157227 18.109375 119.68359375 C17.72749023 120.73087646 17.34560547 121.77815918 16.95214844 122.85717773 C14.8204352 129.89347119 13.13566364 139.25076385 15.90625 146.30859375 C20.69826778 154.43352133 27.66210766 158.20669004 36 162 C36.84175781 162.39703125 37.68351563 162.7940625 38.55078125 163.203125 C44.31515266 165.74913041 48.70869978 166.40589034 55 166 C55.08886184 162.80097361 54.91058531 160.07322544 54 157 C56.61889148 158.85504813 56.99745565 159.9870238 57.625 163.1875 C56.63005485 169.25666539 52.67842779 172.65422491 48.17578125 176.59765625 C39.4088493 182.24815638 27.71685033 183.41995173 17.7109375 181.3046875 C10.05568444 179.21049183 3.13862195 176.6935902 -1.41577148 169.8828125 C-4.9097977 163.31595405 -5.75748082 158.00811538 -5.5625 150.625 C-5.55025391 149.54702148 -5.53800781 148.46904297 -5.52539062 147.35839844 C-5.29455241 138.02018721 -3.92265992 128.96849006 -2.43725586 119.76220703 C-1.09570076 110.97857715 -0.61586834 102.38282009 -0.625 93.5 C-0.62371094 92.32598633 -0.62242187 91.15197266 -0.62109375 89.94238281 C-0.80888496 75.03432138 -3.05281197 59.086053 -14 48 C-26.36953059 37.41168181 -43.96465107 29.73427103 -60.61328125 30.6953125 C-61.79470703 30.84613281 -61.79470703 30.84613281 -63 31 C-63.96292969 31.12117187 -64.92585938 31.24234375 -65.91796875 31.3671875 C-74.23511942 32.90622932 -79.68959325 36.43089823 -85 43 C-90.37023596 51.78489543 -94.26407494 61.12448748 -95.875 71.3125 C-96.99325606 78.02203633 -99.08776503 86.08776503 -104 91 C-106.9375 90.9375 -106.9375 90.9375 -110 90 C-113.29481545 85.933565 -113.47388225 82.03960469 -113.375 77 C-113.36412354 76.245979 -113.35324707 75.49195801 -113.34204102 74.71508789 C-112.60902264 48.60027087 -96.69830151 23.97560302 -78.53125 6.28515625 C-55.61548768 -14.40268473 -25.9396748 -14.56575547 0 0 Z " fill="#21201D" transform="translate(346,840)"/>
<path d="M0 0 C1.01163208 0.00031723 1.01163208 0.00031723 2.04370117 0.00064087 C28.76106079 0.08368982 57.15228217 5.40595835 77.25 24.375 C84.7144767 32.48787404 86.79803432 39.86500207 86.5390625 50.82421875 C85.94528647 58.11803513 85.01086063 64.46718989 79.25 69.375 C75.61637889 70.28340528 74.06392102 69.27531483 70.75 67.5 C66.49443435 64.67092546 62.4848645 61.51729734 58.44897461 58.38793945 C33.77242986 39.17837993 33.77242986 39.17837993 3.796875 33.046875 C-2.02767069 33.79727659 -7.79182064 34.83741782 -13.55566406 35.95166016 C-15.6576891 36.35719102 -17.76194932 36.74827032 -19.8671875 37.13671875 C-25.87630193 38.27929685 -31.62193191 39.53743168 -37.37109375 41.62109375 C-41.67306784 42.98444514 -46.10911744 43.78186611 -50.52734375 44.6796875 C-53.85812451 45.34274429 -53.85812451 45.34274429 -57.4375 46.5625 C-62.15226233 47.71895114 -66.92005513 47.9196704 -71.75 47.375 C-73.75 45.375 -73.75 45.375 -73.9375 43.34375 C-72.98164628 30.75834269 -65.16592295 22.85969975 -56.0390625 14.87890625 C-40.8921398 3.01997409 -18.57489154 -0.02424619 0 0 Z " fill="#20201D" transform="translate(858.75,684.625)"/>
<path d="M0 0 C13.41246483 11.02187541 17.63813001 29.60302743 19.62754822 46.16131592 C20.03464474 50.86396273 19.99505534 55.57574407 20 60.29296875 C20.0049926 61.96814827 20.0049926 61.96814827 20.01008606 63.6771698 C20.01513005 66.03127635 20.01749517 68.38539 20.01733398 70.73950195 C20.0195179 74.31408644 20.03769392 77.88836072 20.05664062 81.46289062 C20.0595757 83.76041562 20.06155973 86.05794207 20.0625 88.35546875 C20.06968552 89.4110347 20.07687103 90.46660065 20.08427429 91.55415344 C20.08119766 92.56858017 20.07812103 93.5830069 20.07495117 94.62817383 C20.07637619 95.50339188 20.07780121 96.37860992 20.07926941 97.28034973 C19.71390963 102.07286981 18.69183098 106.79453901 17.83203125 111.5234375 C6.94203125 111.5234375 -3.94796875 111.5234375 -15.16796875 111.5234375 C-17.44951909 106.38994922 -19.64607847 101.43823821 -21.60546875 96.2109375 C-23.21598124 91.96548868 -24.89079192 87.76425292 -26.66796875 83.5859375 C-31.6039762 71.77975039 -35.30268761 59.97302147 -38.16796875 47.5234375 C-38.34674561 46.84869385 -38.52552246 46.1739502 -38.7097168 45.47875977 C-40.33881451 39.01718376 -40.56950907 32.73048636 -40.60546875 26.0859375 C-40.63833984 25.01794922 -40.67121094 23.94996094 -40.70507812 22.84960938 C-40.76071967 14.56913527 -39.02721263 7.90150651 -33.45727539 1.58276367 C-24.71823421 -6.9245151 -9.77264917 -6.65596646 0 0 Z " fill="#20201D" transform="translate(1111.16796875,590.4765625)"/>
<path d="M0 0 C8.52628329 4.15390671 16.02895103 9.51568801 19.78369141 18.58374023 C20.661894 24.01634233 19.98114067 28.94826555 17.21728516 33.72045898 C13.52259256 38.52255263 9.47953637 41.14185055 3.47119141 42.12670898 C-7.56203227 42.5743288 -15.26905783 39.32307263 -23.65380859 32.33374023 C-28.99370051 27.21457517 -32.18149855 21.98033156 -32.77880859 14.52124023 C-31.85326587 8.04244119 -28.95348273 3.52271654 -23.71630859 -0.41625977 C-15.93419234 -4.64125199 -7.80735151 -3.45956126 0 0 Z " fill="#22211D" transform="translate(1051.21630859375,770.416259765625)"/>
<path d="M0 0 C6.07668821 4.09515945 9.56199759 8.87417308 11.4140625 15.98828125 C13.14961379 27.09286788 13.13119148 38.62825144 6.484375 47.91796875 C3.50779564 51.65314236 1.25397643 53.62527892 -3.4375 54.6875 C-4.324375 54.77 -5.21125 54.8525 -6.125 54.9375 C-6.125 53.6175 -6.125 52.2975 -6.125 50.9375 C-7.176875 50.855 -8.22875 50.7725 -9.3125 50.6875 C-13.58886466 49.84624794 -15.14858313 49.07480427 -18.125 45.9375 C-19.67957936 43.35733009 -20.94423171 40.70637586 -22.125 37.9375 C-22.48464844 37.18726563 -22.84429688 36.43703125 -23.21484375 35.6640625 C-24.37754836 32.18093882 -24.50859047 28.88419907 -24.5 25.25 C-24.49838867 24.54319092 -24.49677734 23.83638184 -24.49511719 23.1081543 C-24.3065041 15.00611277 -21.96873976 7.78123976 -16.125 1.9375 C-11.0964753 -2.11325601 -5.85621472 -1.99111301 0 0 Z " fill="#22211D" transform="translate(1127.125,735.0625)"/>
<path d="M0 0 C3.43760956 2.94851877 5.79095 5.36244163 6.375 9.9375 C6.25125 10.618125 6.1275 11.29875 6 12 C3.20181852 12.93272716 1.6753843 13.10126247 -1.19824219 13.03417969 C-2.04552887 13.01819733 -2.89281555 13.00221497 -3.76577759 12.98574829 C-4.68353973 12.9646701 -5.60130188 12.94359192 -6.546875 12.921875 C-8.51575849 12.89021425 -10.48467409 12.86050277 -12.45361328 12.83251953 C-13.48294983 12.81787659 -14.51228638 12.80323364 -15.57281494 12.78814697 C-33.04848778 12.57832476 -49.21496402 12.65318103 -66 18 C-67.85086782 18.5582978 -69.70245232 19.11422426 -71.5546875 19.66796875 C-74.19672459 20.4583933 -76.83043502 21.25663177 -79.44970703 22.11962891 C-84.17335699 23.64671846 -88.03286912 24.28402477 -93 24 C-93.33 22.68 -93.66 21.36 -94 20 C-86.97616425 13.83272959 -79.70145733 10.23407675 -71 7 C-70.31776367 6.73783691 -69.63552734 6.47567383 -68.93261719 6.20556641 C-50.62616531 -0.79534048 -18.18207276 -12.63875789 0 0 Z " fill="#26251D" transform="translate(935,757)"/>
<path d="M0 0 C0.66 0.33 1.32 0.66 2 1 C-3.94 6.94 -9.88 12.88 -16 19 C-16.66 18.67 -17.32 18.34 -18 18 C-6.66287016 5.33029613 -6.66287016 5.33029613 0 0 Z " fill="#DAC01B" transform="translate(740,542)"/>
</svg>
