<?xml version="1.0" encoding="UTF-8"?>
<svg version="1.1" xmlns="http://www.w3.org/2000/svg" width="128" height="128">
<path d="M0 0 C3.24810038 2.97831426 5.32032567 5.97758452 7.453125 9.82421875 C8.071875 10.93474609 8.690625 12.04527344 9.328125 13.18945312 C9.96234375 14.34380859 10.5965625 15.49816406 11.25 16.6875 C11.90567927 17.86555221 12.56192388 19.04328996 13.21875 20.22070312 C18 28.84402902 18 28.84402902 18 30 C6.78 30 -4.44 30 -16 30 C-15.18675515 26.74702059 -14.47648882 24.78626736 -12.890625 21.953125 C-12.25253906 20.8084375 -12.25253906 20.8084375 -11.6015625 19.640625 C-11.15554687 18.85171875 -10.70953125 18.0628125 -10.25 17.25 C-9.60417969 16.08984375 -9.60417969 16.08984375 -8.9453125 14.90625 C-6.10772402 9.84276877 -3.12216342 4.89284256 0 0 Z " fill="#FFFFFF" transform="translate(16,49)"/>
<path d="M0 0 C1.69142211 2.81903684 1.82026149 5.64477183 2.125 8.875 C1.135 9.205 0.145 9.535 -0.875 9.875 C-0.215 10.205 0.445 10.535 1.125 10.875 C1.125 11.535 1.125 12.195 1.125 12.875 C-3.12295269 15.70696846 -6.89029134 15.51134579 -11.875 14.875 C-14.5 13.375 -14.5 13.375 -15.875 10.875 C-16.54922128 7.00417663 -16.42782484 3.95300844 -14.625 0.4375 C-10.51088006 -3.23582137 -4.64792497 -2.78875498 0 0 Z M-8.875 2.875 C-9.205 3.535 -9.535 4.195 -9.875 4.875 C-7.895 4.875 -5.915 4.875 -3.875 4.875 C-4.535 4.215 -5.195 3.555 -5.875 2.875 C-6.865 2.875 -7.855 2.875 -8.875 2.875 Z M-9.875 8.875 C-9.545 9.535 -9.215 10.195 -8.875 10.875 C-7.225 10.545 -5.575 10.215 -3.875 9.875 C-3.875 9.545 -3.875 9.215 -3.875 8.875 C-5.855 8.875 -7.835 8.875 -9.875 8.875 Z " fill="#FFFFFF" transform="translate(119.875,58.125)"/>
<path d="M0 0 C2.4375 1.6875 2.4375 1.6875 4 4 C4.25 7.25 4.25 7.25 4 10 C3.01 10.495 3.01 10.495 2 11 C2 12.32 2 13.64 2 15 C-1.48389917 16.74194959 -5.19900139 16.57670324 -9 16 C-12.50811779 13.56579582 -13.77376734 12.20657416 -14.5625 8 C-13.87206143 4.31766096 -12.63186072 2.63186072 -10 0 C-6.19426871 -1.2685771 -3.89430952 -0.88817586 0 0 Z M-7 4 C-7.33 4.66 -7.66 5.32 -8 6 C-6.02 6 -4.04 6 -2 6 C-2.33 5.34 -2.66 4.68 -3 4 C-4.32 4 -5.64 4 -7 4 Z M-8 10 C-7.34 10.66 -6.68 11.32 -6 12 C-3.39719432 11.67958603 -3.39719432 11.67958603 -1 11 C-1 10.67 -1 10.34 -1 10 C-3.31 10 -5.62 10 -8 10 Z " fill="#FFFFFF" transform="translate(69,57)"/>
<path d="M0 0 C2.7578125 -0.375 2.7578125 -0.375 6 0 C8.1171875 2.625 8.1171875 2.625 9.875 6 C10.47054687 7.11375 11.06609375 8.2275 11.6796875 9.375 C12.33324219 10.674375 12.33324219 10.674375 13 12 C13.49371094 11.21753906 13.98742188 10.43507813 14.49609375 9.62890625 C15.13675781 8.61699219 15.77742188 7.60507812 16.4375 6.5625 C17.07558594 5.55316406 17.71367188 4.54382812 18.37109375 3.50390625 C20 1 20 1 21 0 C22.66617115 -0.04063832 24.33388095 -0.042721 26 0 C25.35571752 3.11968359 24.27757123 5.55873453 22.71484375 8.328125 C22.04291992 9.52695312 22.04291992 9.52695312 21.35742188 10.75 C20.65456055 11.9875 20.65456055 11.9875 19.9375 13.25 C19.46505859 14.09046875 18.99261719 14.9309375 18.50585938 15.796875 C17.34142039 17.86698876 16.1726855 19.93455014 15 22 C14.01 22 13.02 22 12 22 C9.99654339 18.52281278 7.99781651 15.04293033 6 11.5625 C5.42765625 10.56927734 4.8553125 9.57605469 4.265625 8.55273438 C3.72421875 7.60849609 3.1828125 6.66425781 2.625 5.69140625 C2.12226562 4.81685791 1.61953125 3.94230957 1.1015625 3.04125977 C0 1 0 1 0 0 Z " fill="#FFFFFF" transform="translate(33,51)"/>
<path d="M0 0 C0.99 0.66 1.98 1.32 3 2 C2.34 3.32 1.68 4.64 1 6 C-1.64 5.67 -4.28 5.34 -7 5 C-8.01111093 8.04913228 -8.01111093 8.04913228 -7 11 C-5.72125 10.814375 -4.4425 10.62875 -3.125 10.4375 C0.75 9.875 0.75 9.875 3 11 C3 11.99 3 12.98 3 14 C-1.05117637 16.70078425 -4.25065717 16.52388773 -9 16 C-11.5 15 -11.5 15 -13 13 C-13.89472817 10.28049728 -14.24504346 7.85698401 -14 5 C-10.28014085 -1.24404929 -6.78878334 -1.33351101 0 0 Z " fill="#FFFFFF" transform="translate(100,57)"/>
<path d="M0 0 C3.63 0 7.26 0 11 0 C11 1.65 11 3.3 11 5 C9.35 5.66 7.7 6.32 6 7 C5.67 9.97 5.34 12.94 5 16 C3.35 16 1.7 16 0 16 C0 10.72 0 5.44 0 0 Z " fill="#FFFFFF" transform="translate(75,57)"/>
<path d="M0 0 C1.65 0 3.3 0 5 0 C5 7.26 5 14.52 5 22 C3.35 22 1.7 22 0 22 C0 14.74 0 7.48 0 0 Z " fill="#FFFFFF" transform="translate(123,51)"/>
</svg>
