<?xml version="1.0" encoding="UTF-8"?>
<svg version="1.1" xmlns="http://www.w3.org/2000/svg" width="512" height="512">
<path d="M0 0 C0.98584076 0.00054382 1.97168152 0.00108765 2.98739624 0.00164795 C19.35690674 0.04301309 35.11789842 1.0175184 51.1875 4.375 C52.20424805 4.58398926 53.22099609 4.79297852 54.26855469 5.00830078 C95.75408557 13.82447138 133.95180041 32.92301299 166.1875 60.375 C166.92097656 60.97441406 167.65445312 61.57382812 168.41015625 62.19140625 C170.04291665 63.53851473 171.62281013 64.94939368 173.1875 66.375 C173.1875 67.035 173.1875 67.695 173.1875 68.375 C172.43726563 68.40078125 171.68703125 68.4265625 170.9140625 68.453125 C158.14182177 69.1609066 147.33003727 73.67059779 138.4375 83.0625 C130.72039257 92.46268887 127.56730582 104.33545581 127.88671875 116.35546875 C129.82590289 135.82286281 140.69015728 152.7958367 150.6550293 169.09277344 C171.37886829 203.22985454 178.46425276 237.76586672 169.03982544 276.97433472 C167.66025954 282.4786194 166.11539341 287.93094924 164.54296875 293.3828125 C164.19638718 294.58965698 163.8498056 295.79650146 163.49272156 297.03991699 C159.64532198 310.36421281 155.57901007 323.62019694 151.5 336.875 C149.92048576 342.01740704 148.34343618 347.16056094 146.76953125 352.3046875 C146.57481861 352.94089397 146.38010597 353.57710045 146.17949295 354.23258591 C143.4615537 363.12025026 140.80161815 372.02315929 138.19921875 380.9453125 C137.89558914 381.98455872 137.59195953 383.02380493 137.27912903 384.09454346 C135.86541539 388.93944656 134.46155604 393.78692004 133.0715332 398.63867188 C132.57916121 400.3347 132.08658037 402.03066751 131.59375 403.7265625 C131.37688034 404.49646515 131.16001068 405.2663678 130.93656921 406.05960083 C130.41267094 407.84977422 129.80810007 409.61601003 129.1875 411.375 C128.5275 411.705 127.8675 412.035 127.1875 412.375 C127.00561127 411.82711319 126.82372253 411.27922638 126.63632202 410.71473694 C115.25011095 376.41086187 115.25011095 376.41086187 103.625 342.1875 C97.01761378 322.95935081 90.60437628 303.66731757 84.1875 284.375 C74.75231048 255.99887411 74.75231048 255.99887411 65.125 227.6875 C59.13429203 210.2548033 53.26406167 192.78194399 47.41848755 175.30014038 C46.35238008 172.11213969 45.28416245 168.92485856 44.21408081 165.7381897 C42.95039705 161.97445891 41.69119953 158.20925676 40.43543434 154.44287682 C39.96551518 153.03580492 39.4940649 151.62924338 39.02103233 150.2232151 C38.36870203 148.28319461 37.72252188 146.34110934 37.07666016 144.39892578 C36.71029449 143.30347443 36.34392883 142.20802307 35.96646118 141.07937622 C35.1875 138.375 35.1875 138.375 35.1875 135.375 C35.89769287 135.3248877 36.60788574 135.27477539 37.33959961 135.22314453 C40.60193711 134.98900167 43.86342845 134.74457224 47.125 134.5 C48.24197266 134.42136719 49.35894531 134.34273437 50.50976562 134.26171875 C61.57407838 133.94015674 61.57407838 133.94015674 71.1875 129.5625 C72.82007112 125.99125067 73.51208735 123.61433353 72.5 119.75 C70.99684088 117.02999778 69.83253903 115.98257744 67.1875 114.375 C64.65476785 113.97372018 64.65476785 113.97372018 61.8828125 114.125 C60.28034668 114.16560547 60.28034668 114.16560547 58.64550781 114.20703125 C53.83558626 114.44066765 49.03380711 114.74778796 44.23022461 115.08691406 C10.60915595 117.44854019 -23.25580379 117.27837928 -56.86328125 114.8125 C-68.93757734 113.33304881 -68.93757734 113.33304881 -80.125 116.375 C-81.9531055 119.62496533 -82.40286572 121.65713957 -82.4765625 125.3125 C-81.4137069 128.61360446 -79.43694199 130.16383856 -76.8125 132.375 C-73.4558434 133.32539106 -73.4558434 133.32539106 -69.76171875 133.51953125 C-69.10291214 133.57904465 -68.44410553 133.63855804 -67.76533508 133.69987488 C-65.67804575 133.88358236 -63.58984653 134.03597107 -61.5 134.1875 C-60.07729864 134.30717858 -58.65476778 134.42890277 -57.23242188 134.55273438 C-53.76077172 134.85051098 -50.28760501 135.12027528 -46.8125 135.375 C-40.08376704 153.18675605 -33.51688384 171.05541816 -26.99890137 188.94500732 C-26.24907492 191.00253842 -25.49878093 193.05989833 -24.74829102 195.1171875 C-24.50100943 195.79507954 -24.25372784 196.47297157 -23.99895287 197.17140579 C-23.50219727 198.5328918 -23.00528162 199.89431942 -22.50820351 201.25568771 C-21.29520133 204.57883189 -20.08558007 207.90312428 -18.88363647 211.23028564 C-16.74042194 217.15446542 -14.56314699 223.05795476 -12.24658203 228.91699219 C-11.85986832 229.91483734 -11.4731546 230.9126825 -11.07472229 231.94076538 C-10.36900746 233.75468457 -9.64527645 235.56175962 -8.89878845 237.35928345 C-8.59066727 238.16030487 -8.28254608 238.96132629 -7.96508789 239.78662109 C-7.69225479 240.46147552 -7.41942169 241.13632996 -7.13832092 241.83163452 C-6.00636064 250.66774201 -11.09561951 260.65587051 -13.87304688 268.96069336 C-14.39262465 270.52513656 -14.91182527 272.08970506 -15.43067932 273.65438843 C-16.83342261 277.88048518 -18.24184683 282.10466745 -19.65166664 286.328408 C-20.82897238 289.85722752 -22.00351643 293.38696363 -23.17808294 296.91669565 C-25.94714662 305.23790568 -28.72086786 313.55755291 -31.49755859 321.8762207 C-34.36345636 330.46240322 -37.22164322 339.05112491 -40.07606268 347.64112943 C-42.52867134 355.02107485 -44.98590758 362.39946793 -47.44691706 369.77661616 C-48.91618034 374.18103016 -50.38368544 378.58601022 -51.8467865 382.99247551 C-53.22037408 387.12864782 -54.59971951 391.26285438 -55.98359489 395.39559555 C-56.49119829 396.91470495 -56.99674257 398.43450412 -57.50010872 399.95502281 C-58.18567909 402.02484058 -58.87854097 404.09207162 -59.57336426 406.15879822 C-59.95976326 407.31778594 -60.34616226 408.47677366 -60.74427032 409.67088223 C-61.8125 412.375 -61.8125 412.375 -63.8125 414.375 C-68.71434708 401.68997865 -73.0697769 388.84953733 -77.34375 375.94140625 C-78.06360996 373.77552523 -78.78379145 371.60975105 -79.50427246 369.44407654 C-81.39527253 363.75786082 -83.28293451 358.07054343 -85.16955566 352.38287354 C-88.51539813 342.29692558 -91.86578235 332.21248755 -95.21875 322.12890625 C-95.5843956 321.02895451 -95.9500412 319.92900276 -96.32676697 318.79571915 C-101.47603514 303.31155377 -106.69554341 287.8531849 -111.98770142 272.41731453 C-116.09686461 260.43098761 -120.15659693 248.4295798 -124.15625 236.40625 C-124.41054842 235.64182587 -124.66484684 234.87740173 -124.92685127 234.08981323 C-126.46253043 229.47185603 -127.99613093 224.85321021 -129.5292244 220.23439407 C-131.95244489 212.93513434 -134.37917546 205.63704289 -136.80859375 198.33984375 C-137.07053968 197.55297117 -137.33248562 196.76609859 -137.60236931 195.95538139 C-140.87015646 186.14397797 -144.16934749 176.34469782 -147.53515625 166.56640625 C-147.87529755 165.57760468 -148.21543884 164.5888031 -148.56588745 163.57003784 C-150.06899465 159.20716923 -151.58066292 154.84751863 -153.10546875 150.4921875 C-153.61334895 149.02736722 -154.12116644 147.5625252 -154.62890625 146.09765625 C-155.05631104 144.87828369 -155.48371582 143.65891113 -155.92407227 142.40258789 C-156.8125 139.375 -156.8125 139.375 -156.8125 135.375 C-156.10230713 135.3248877 -155.39211426 135.27477539 -154.66040039 135.22314453 C-151.39806289 134.98900167 -148.13657155 134.74457224 -144.875 134.5 C-143.75802734 134.42136719 -142.64105469 134.34273437 -141.49023438 134.26171875 C-130.51548113 133.87298079 -130.51548113 133.87298079 -120.75 129.75 C-119.36047188 126.22986211 -119.08461544 123.05081704 -119.8125 119.375 C-121.38998508 116.12899923 -121.38998508 116.12899923 -124.8125 114.375 C-132.52971821 113.63177882 -140.4694041 114.5575852 -148.18432617 115.08642578 C-170.06395037 116.58469436 -191.89123795 116.58582815 -213.8125 116.375 C-204.60591523 92.3562991 -177.80442421 68.6796608 -157.40917969 53.5703125 C-155.9110937 52.4488096 -154.44257411 51.28811665 -152.9765625 50.125 C-143.8291897 42.95058996 -133.86515641 37.17588393 -123.8125 31.375 C-123.16442383 30.99456543 -122.51634766 30.61413086 -121.84863281 30.22216797 C-96.7475475 15.56263792 -67.48207372 6.58479511 -38.8125 2.375 C-37.61004639 2.19839844 -36.40759277 2.02179687 -35.16870117 1.83984375 C-23.45224155 0.2358565 -11.81347836 -0.02463344 0 0 Z " fill="#2694B6" transform="translate(255.8125,-0.375)"/>
<path d="M0 0 C0.98584076 0.00054382 1.97168152 0.00108765 2.98739624 0.00164795 C19.35690674 0.04301309 35.11789842 1.0175184 51.1875 4.375 C52.71262207 4.68848389 52.71262207 4.68848389 54.26855469 5.00830078 C95.75408557 13.82447138 133.95180041 32.92301299 166.1875 60.375 C166.92097656 60.97441406 167.65445312 61.57382812 168.41015625 62.19140625 C170.04291665 63.53851473 171.62281013 64.94939368 173.1875 66.375 C173.1875 67.035 173.1875 67.695 173.1875 68.375 C172.49527344 68.40078125 171.80304688 68.4265625 171.08984375 68.453125 C158.10506788 69.20586563 146.41624162 73.18776011 134.36352539 77.73681641 C127.2079393 80.41989288 119.98693193 82.63679286 112.62841797 84.6875 C109.88341735 85.4606468 107.14707677 86.26123198 104.41015625 87.0625 C90.11893396 91.20876747 75.80534475 94.60392988 61.1875 97.375 C60.06939941 97.58898437 58.95129883 97.80296875 57.79931641 98.0234375 C41.65718627 101.08740079 25.53380268 103.70415667 9.1875 105.375 C7.94033203 105.51180176 6.69316406 105.64860352 5.40820312 105.78955078 C-46.88331781 111.43119473 -103.02333047 111.70819481 -154.94921875 102.9921875 C-158.20989404 102.47127072 -161.39721307 102.11035672 -164.6875 101.875 C-170.0282255 101.46481889 -175.14470995 100.31362427 -180.36328125 99.13671875 C-184.4261307 98.23948699 -188.50490913 97.50553277 -192.60546875 96.8046875 C-194.8125 96.375 -194.8125 96.375 -197.8125 95.375 C-197.33841346 91.05669004 -194.55604554 88.55707523 -191.6875 85.5625 C-191.15688965 85.00062988 -190.6262793 84.43875977 -190.07958984 83.85986328 C-188.33360779 82.02201401 -186.57409546 80.19788074 -184.8125 78.375 C-184.21501953 77.75028809 -183.61753906 77.12557617 -183.00195312 76.48193359 C-174.97872236 68.11833632 -166.72687359 60.50435919 -157.42529297 53.58642578 C-155.92152432 52.45689202 -154.44579997 51.29028759 -152.97265625 50.12109375 C-143.82536956 42.94951835 -133.86366164 37.17502138 -123.8125 31.375 C-123.16442383 30.99456543 -122.51634766 30.61413086 -121.84863281 30.22216797 C-96.7475475 15.56263792 -67.48207372 6.58479511 -38.8125 2.375 C-37.61004639 2.19839844 -36.40759277 2.02179687 -35.16870117 1.83984375 C-23.45224155 0.2358565 -11.81347836 -0.02463344 0 0 Z " fill="#3EB4D0" transform="translate(255.8125,-0.375)"/>
<path d="M0 0 C3.09068647 1.54534324 3.45176446 4.51836195 4.51953125 7.625 C4.89500343 8.68682243 4.89500343 8.68682243 5.27806091 9.77009583 C5.83220956 11.33856463 6.38319358 12.90815401 6.93151855 14.47866821 C8.48066135 18.91224963 10.05571484 23.33662521 11.62890625 27.76171875 C11.97186737 28.72784592 12.31482849 29.69397308 12.66818237 30.68937683 C16.65391295 41.88851111 20.78218262 53.03468727 24.90716553 64.18310547 C32.08793385 83.59118728 39.20159405 103.02090954 46.1875 122.5 C52.27160643 139.46039812 58.41329118 156.39838831 64.625 173.3125 C64.99136566 174.3113623 65.35773132 175.31022461 65.73519897 176.33935547 C66.79325819 179.22290754 67.85336467 182.10569886 68.9140625 184.98828125 C69.41632103 186.35746201 69.41632103 186.35746201 69.9287262 187.75430298 C71.6789406 192.50414816 73.47407826 197.23128416 75.33496094 201.93896484 C75.7121225 202.90062057 76.08928406 203.86227631 76.47787476 204.85307312 C77.19893951 206.68484846 77.9291323 208.51306554 78.66983032 210.33699036 C78.99067596 211.15415024 79.31152161 211.97131012 79.64208984 212.81323242 C79.92917816 213.52767014 80.21626648 214.24210785 80.51205444 214.97819519 C81.08048816 217.33350308 80.76443563 218.72797286 80 221 C68.05484608 224.52631053 56.1246836 228.0065141 43.875 230.3125 C43.09745361 230.45913086 42.31990723 230.60576172 41.51879883 230.75683594 C39.01701742 231.20491619 36.51092187 231.60636433 34 232 C32.95175049 232.17732666 31.90350098 232.35465332 30.82348633 232.53735352 C20.48512455 234.12966957 10.2942394 234.33933913 -0.14916992 234.31567383 C-3.0340827 234.31253096 -5.91794863 234.33600358 -8.80273438 234.36132812 C-26.32622139 234.42166133 -43.41826934 232.37848153 -60.5 228.4375 C-61.44746094 228.22931641 -62.39492187 228.02113281 -63.37109375 227.80664062 C-68.01245729 226.76835523 -72.51950225 225.62044669 -77 224 C-74.80774637 216.4765246 -72.37896257 209.04847701 -69.859375 201.62890625 C-69.26117699 199.86152603 -69.26117699 199.86152603 -68.65089417 198.05844116 C-67.5757186 194.88421227 -66.49881043 191.7105838 -65.42074966 188.53733444 C-64.74461333 186.54664047 -64.0691656 184.55571401 -63.39389038 182.56472778 C-57.48316299 165.14054688 -51.50634115 147.74114808 -45.41491699 130.37918091 C-39.98426162 114.89776313 -34.6907061 99.37195343 -29.42724609 83.83297729 C-23.71157224 66.96445436 -17.89934549 50.13191969 -11.99609375 33.328125 C-11.42040409 31.68755923 -10.84487913 30.04693566 -10.26953125 28.40625 C-9.99581696 27.62644775 -9.72210266 26.84664551 -9.44009399 26.04321289 C-7.17170632 19.55333684 -4.99681139 13.03374221 -2.8742218 6.49475098 C-1.10720429 1.10720429 -1.10720429 1.10720429 0 0 Z " fill="#1C769B" transform="translate(260,278)"/>
<path d="M0 0 C1.84632439 2.76948658 2.84735365 5.02115631 3.97338867 8.12402344 C4.55391243 9.71443451 4.55391243 9.71443451 5.14616394 11.3369751 C5.56585953 12.49936707 5.98555511 13.66175903 6.41796875 14.859375 C7.10079605 16.73511124 7.78362335 18.61084748 8.46645069 20.48658371 C9.200351 22.50507282 9.9322542 24.52427586 10.66357422 26.54370117 C12.20667958 30.80465545 13.75524697 35.06361165 15.3046875 39.32226562 C17.19397018 44.51602459 19.08199979 49.71023554 20.96839333 54.90504456 C24.24748673 63.93470316 27.53617454 72.96082241 30.83203125 81.984375 C31.06677343 82.62707588 31.30151562 83.26977676 31.5433712 83.93195343 C32.72330959 87.16233353 33.903436 90.39264491 35.08364868 93.6229248 C37.23348512 99.50738126 39.38163021 105.39245521 41.52992821 111.27747345 C42.7282186 114.56000671 43.92661456 117.84250144 45.125 121.125 C45.60416717 122.43749981 46.08333384 123.74999981 46.5625 125.0625 C46.7996875 125.7121875 47.036875 126.361875 47.28125 127.03125 C72.43749995 195.93749986 72.43749995 195.93749986 73.15626621 197.90629482 C73.63537848 199.21864554 74.11449111 200.53099613 74.59360409 201.8433466 C75.79235596 205.1268795 76.99110163 208.41041466 78.18983459 211.69395447 C80.33610477 217.57294631 82.48241545 223.45192335 84.62896442 229.33081341 C85.81387212 232.57599961 86.99874259 235.82119941 88.18359375 239.06640625 C88.41871611 239.71038424 88.65383846 240.35436222 88.89608574 241.01785469 C92.18165258 250.01693593 95.46547013 259.01665397 98.74807739 268.01681519 C100.59060292 273.06857623 102.43359584 278.12016673 104.27668953 283.1717205 C105.52974153 286.60619933 106.78253141 290.04077325 108.03466797 293.47558594 C109.41949671 297.27436272 110.8052926 301.0727856 112.19140625 304.87109375 C112.61769318 306.0399411 113.0439801 307.20878845 113.48318481 308.41305542 C116.27998894 316.06848067 119.13090599 323.70092113 122.05444336 331.30883789 C123 334 123 334 123 336 C118.16772278 334.5704203 113.91939865 332.48843054 109.5625 330 C108.86801758 329.60554688 108.17353516 329.21109375 107.45800781 328.8046875 C78.54845675 312.15781156 50.96893475 289.73586285 31.23730469 262.68164062 C29.96916005 260.95808492 28.66492414 259.26741609 27.3515625 257.578125 C0.25217184 222.29971638 -15.30277446 179.85672982 -21 136 C-21.08661896 135.33691833 -21.17323792 134.67383667 -21.26248169 133.99066162 C-21.94260085 128.41577198 -22.17382059 122.91799133 -22.203125 117.3046875 C-22.21018463 116.40286743 -22.21724426 115.50104736 -22.22451782 114.57189941 C-22.45190368 76.98659162 -22.45190368 76.98659162 -19 60 C-18.80132324 58.9898584 -18.60264648 57.9797168 -18.39794922 56.93896484 C-15.94391732 44.74233438 -12.83036538 32.81700094 -8.9375 21 C-8.62143799 20.039729 -8.30537598 19.07945801 -7.97973633 18.09008789 C-5.81547721 11.77817404 -3.12602139 5.89254632 0 0 Z " fill="#1C769B" transform="translate(22,151)"/>
<path d="M0 0 C3.69711896 3.23191856 5.67703456 6.85139547 7.6875 11.25 C8.0263623 11.98524902 8.36522461 12.72049805 8.71435547 13.47802734 C22.41723467 43.85180564 32.02700983 77.26438809 32.203125 110.79296875 C32.21018463 111.69337387 32.21724426 112.59377899 32.22451782 113.52146912 C32.45209392 151.06566405 32.45209392 151.06566405 29 168 C28.79600586 169.02609375 28.59201172 170.0521875 28.38183594 171.109375 C16.17889359 231.07609025 -16.16532181 289.16355606 -66.27001953 325.73632812 C-68.12894872 327.09419116 -69.96903055 328.47540672 -71.80859375 329.859375 C-92.04948638 345 -92.04948638 345 -96 345 C-93.7749093 335.94829603 -90.72646924 327.23124291 -87.62182617 318.45483398 C-85.95099139 313.72960669 -84.29419413 308.99945792 -82.63671875 304.26953125 C-82.27391815 303.23482697 -81.91111755 302.20012268 -81.537323 301.13406372 C-76.87073879 287.80491893 -72.2973353 274.44368112 -67.71533585 261.08529282 C-61.07281411 241.72151713 -54.40846122 222.36627621 -47.64031982 203.04595947 C-43.55680357 191.38522954 -39.51822204 179.70948437 -35.5078125 168.0234375 C-35.26626686 167.31975792 -35.02472122 166.61607834 -34.77585602 165.89107513 C-32.3583457 158.84802275 -29.94254931 151.80439065 -27.53234673 144.75883389 C-26.41101278 141.4819619 -25.28787733 138.20570938 -24.1640625 134.9296875 C-23.94615932 134.29409849 -23.72825615 133.65850948 -23.50374985 133.0036602 C-20.44960407 124.10362347 -17.29677256 115.24406212 -14.078125 106.40234375 C-11.11154063 98.23165901 -8.30432302 90.10903699 -6.125 81.6875 C-5.70323486 80.09023071 -5.70323486 80.09023071 -5.27294922 78.46069336 C-2.78627739 68.7414544 -1.07661397 58.97074649 0 49 C0.0942627 48.13777832 0.18852539 47.27555664 0.28564453 46.38720703 C0.94587043 39.82803157 1.15646329 33.33987392 1.125 26.75 C1.12306641 25.75798584 1.12113281 24.76597168 1.11914062 23.74389648 C1.07277781 15.79589291 0.70039946 7.91701528 0 0 Z " fill="#1C769B" transform="translate(480,133)"/>
<path d="M0 0 C22.38990246 26.86788295 32.58299981 62.50282669 30 97 C28.4637709 109.94193002 24.95885832 122.51424904 21.35546875 135.0078125 C21.00888718 136.21465698 20.6623056 137.42150146 20.30522156 138.66491699 C16.45782198 151.98921281 12.39151007 165.24519694 8.3125 178.5 C6.73298576 183.64240704 5.15593618 188.78556094 3.58203125 193.9296875 C3.38731861 194.56589397 3.19260597 195.20210045 2.99199295 195.85758591 C0.2740537 204.74525026 -2.38588185 213.64815929 -4.98828125 222.5703125 C-5.29191086 223.60955872 -5.59554047 224.64880493 -5.90837097 225.71954346 C-7.32208461 230.56444656 -8.72594396 235.41192004 -10.1159668 240.26367188 C-10.60833879 241.9597 -11.10091963 243.65566751 -11.59375 245.3515625 C-11.81061966 246.12146515 -12.02748932 246.8913678 -12.25093079 247.68460083 C-12.77482906 249.47477422 -13.37939993 251.24101003 -14 253 C-14.66 253.33 -15.32 253.66 -16 254 C-16.18188873 253.45211319 -16.36377747 252.90422638 -16.55117798 252.33973694 C-24.40266967 228.69409993 -32.26146439 205.05261228 -40.36065674 181.49050903 C-44.63936534 169.0301877 -48.83257293 156.54214869 -52.99609375 144.04296875 C-53.26179232 143.24536448 -53.52749088 142.4477602 -53.80124092 141.6259861 C-56.49616951 133.53453964 -59.18778865 125.4419985 -61.87468815 117.34788227 C-62.89233922 114.28305203 -63.91115514 111.21860964 -64.93011665 108.15421486 C-65.62745675 106.05540988 -66.32303838 103.95602812 -67.01853943 101.85661316 C-67.45816848 100.53391464 -67.89794986 99.21126675 -68.33789062 97.88867188 C-68.54897996 97.25091985 -68.76006929 96.61316782 -68.97755527 95.95608997 C-70.16241056 92.40405413 -71.40248058 88.87929532 -72.7019043 85.36743164 C-72.98409569 84.59703804 -73.26628708 83.82664444 -73.55702972 83.03290558 C-74.10417375 81.54621479 -74.66024427 80.06276951 -75.22647858 78.58324432 C-76.24379997 75.80976447 -77.05666968 73.57356211 -76.76295471 70.60083008 C-75.70100073 68.37264032 -74.42612949 67.65235453 -72.30859375 66.40625 C-71.53652588 65.93952881 -70.76445801 65.47280762 -69.96899414 64.99194336 C-69.13360107 64.49960205 -68.29820801 64.00726074 -67.4375 63.5 C-52.38111167 54.30052829 -38.90052844 43.90052844 -26.41796875 31.41796875 C-24.96856049 29.96856049 -23.50122447 28.53629462 -22 27.140625 C-13.56497783 19.1668931 -6.4316278 9.64744171 0 0 Z " fill="#1C769B" transform="translate(399,158)"/>
<path d="M0 0 C5.26992499 1.13141187 10.4839754 2.36999223 15.68066406 3.80151367 C42.12496262 11.0528187 74.97619582 16.84656533 102 11 C103.76977761 10.93540958 105.54170152 10.91388935 107.3125 10.9375 C108.63701172 10.95103516 108.63701172 10.95103516 109.98828125 10.96484375 C110.98408203 10.98224609 110.98408203 10.98224609 112 11 C110.40459254 19.14294775 107.84214182 26.90519653 105.21484375 34.75952148 C104.72482249 36.23529597 104.23517824 37.71119568 103.74588013 39.18721008 C102.42370973 43.17157837 101.09586525 47.15403317 99.76662064 51.13604617 C98.65641837 54.46355406 97.54897898 57.7919787 96.44151592 61.12039906 C93.8306643 68.96696951 91.21515815 76.81197756 88.59667969 84.65600586 C85.89437599 92.7514047 83.1997856 100.84934163 80.50895977 108.94856209 C78.19647763 115.90812905 75.87936736 122.86614291 73.55848408 129.82291275 C72.17305783 133.97581612 70.78938892 138.12928405 69.41012573 142.28423882 C68.11533291 146.18402876 66.8147813 150.08184982 65.50970078 153.97820854 C65.0311236 155.4102399 64.55460456 156.84296092 64.08026505 158.27640152 C63.4341065 160.22798801 62.78065563 162.17697813 62.12524414 164.12547302 C61.76096817 165.21809165 61.3966922 166.31071028 61.02137756 167.43643856 C60 170 60 170 58 172 C53.09815292 159.31497865 48.7427231 146.47453733 44.46875 133.56640625 C43.74889004 131.40052523 43.02870855 129.23475105 42.30822754 127.06907654 C40.41722747 121.38286082 38.52956549 115.69554343 36.64294434 110.00787354 C33.29710179 99.92192535 29.94645189 89.83757609 26.59375 79.75390625 C26.23092926 78.66209675 25.86810852 77.57028725 25.49429321 76.44539261 C19.89925454 59.61431942 14.22139536 42.81315427 8.43884277 26.04554749 C5.46514242 17.40725706 2.60954952 8.75692508 0 0 Z " fill="#1C769B" transform="translate(134,242)"/>
<path d="M0 0 C1.6875 1.32421875 1.6875 1.32421875 2.6875 4.32421875 C1.92566406 4.37320313 1.16382813 4.4221875 0.37890625 4.47265625 C-6.04220616 4.93760571 -12.06691373 5.76282218 -18.3125 7.32421875 C-15.18233678 4.77343671 -12.01265975 3.11666304 -8.3125 1.51171875 C-7.28125 1.05152344 -6.25 0.59132813 -5.1875 0.1171875 C-2.3125 -0.67578125 -2.3125 -0.67578125 0 0 Z " fill="#2590B2" transform="translate(426.3125,63.67578125)"/>
</svg>
