<?xml version="1.0" encoding="UTF-8"?>
<svg version="1.1" xmlns="http://www.w3.org/2000/svg" width="512" height="512">
<path d="M0 0 C4.10370242 0.00912864 8.20733908 -0.00495757 12.311028 -0.01591969 C20.33006082 -0.0336269 28.34894316 -0.02989991 36.36798167 -0.01826912 C42.89016763 -0.00920419 49.41231167 -0.00802397 55.93450212 -0.01236439 C56.86578682 -0.01297732 57.79707151 -0.01359025 58.75657696 -0.01422176 C60.64896672 -0.01550077 62.54135648 -0.01679762 64.43374622 -0.01811212 C82.14327876 -0.02949508 99.85272824 -0.01644017 117.56224716 0.00508934 C132.72975954 0.02295824 147.89714942 0.01985349 163.0646596 0.0014143 C180.71450517 -0.02003289 198.3642781 -0.02839665 216.01413488 -0.01613665 C217.89923206 -0.01486256 219.78432924 -0.01360508 221.66942644 -0.01236439 C223.06037355 -0.01143873 223.06037355 -0.01143873 224.4794206 -0.01049438 C230.98733348 -0.00705301 237.49519995 -0.01284355 244.00310564 -0.0222826 C251.94331001 -0.03354684 259.88335637 -0.03037011 267.82354283 -0.00915962 C271.86815673 0.00129163 275.91250802 0.00557501 279.95711946 -0.00775623 C316.61426762 -0.1186018 316.61426762 -0.1186018 332.11446428 8.27289867 C332.77269182 8.61723949 333.43091936 8.96158031 334.10909319 9.31635571 C354.48279075 20.2462803 368.05671653 36.90073994 375.87239122 58.47811413 C379.97139807 72.16050526 379.37386877 86.22478593 379.32486296 100.36824656 C379.31572774 104.27562935 379.32982371 108.18294337 379.34078264 112.090312 C379.35848301 119.7243318 379.35476598 127.35819346 379.34313208 134.99221921 C379.33406441 141.20166737 379.3328881 147.41107151 379.33722734 153.62052441 C379.33784028 154.50740332 379.33845321 155.39428223 379.33908471 156.30803627 C379.34036374 158.11023403 379.34166059 159.91243179 379.34297508 161.71462953 C379.35435603 178.57720173 379.34130631 195.43968666 379.31977361 212.30224454 C379.3019049 226.74205052 379.30500971 241.18172783 379.32344866 255.62153149 C379.34489942 272.42757468 379.35325762 289.23354158 379.3409996 306.03959656 C379.33972553 307.83482201 379.33846805 309.63004747 379.33722734 311.42527294 C379.33630169 312.7498814 379.33630169 312.7498814 379.33535734 314.10124964 C379.33191703 320.2965768 379.33770418 326.49185519 379.34714556 332.6871748 C379.35841381 340.24676496 379.35522479 347.80618919 379.33402258 355.36576056 C379.32357661 359.21595331 379.31927863 363.06587032 379.33261919 366.91606045 C379.44519243 402.33201077 379.44519243 402.33201077 371.05196428 417.83539867 C370.70762346 418.49362621 370.36328264 419.15185375 370.00850725 419.83002758 C358.61495099 441.06794805 340.50541755 455.65024168 317.48726702 462.62726879 C304.59224632 466.01353407 290.83974986 465.08942327 277.60392857 465.04579735 C273.50022615 465.03666871 269.39658949 465.05075492 265.29290056 465.06171703 C257.27386774 465.07942425 249.2549854 465.07569726 241.23594689 465.06406647 C234.71376094 465.05500154 228.1916169 465.05382132 221.66942644 465.05816174 C220.2724994 465.05908113 220.2724994 465.05908113 218.84735161 465.06001911 C216.95496184 465.06129812 215.06257209 465.06259497 213.17018235 465.06390947 C195.4606498 465.07529243 177.75120033 465.06223752 160.04168141 465.04070801 C144.87416903 465.02283911 129.70677914 465.02594386 114.53926897 465.04438305 C96.8894234 465.06583023 79.23965047 465.074194 61.58979368 465.06193399 C59.70469651 465.06065991 57.81959932 465.05940243 55.93450212 465.05816174 C54.54355502 465.05723608 54.54355502 465.05723608 53.12450796 465.05629173 C46.61659508 465.05285036 40.10872861 465.0586409 33.60082293 465.06807995 C25.66061856 465.07934419 17.72057219 465.07616745 9.78038573 465.05495697 C5.73577184 465.04450572 1.69142055 465.04022234 -2.3531909 465.05355358 C-39.01033905 465.16439915 -39.01033905 465.16439915 -54.51053572 456.77289867 C-55.16876326 456.42855785 -55.8269908 456.08421703 -56.50516462 455.72944164 C-76.87886218 444.79951704 -90.45278796 428.14505741 -98.26846266 406.56768322 C-102.3674695 392.88529208 -101.7699402 378.82101142 -101.72093439 364.67755079 C-101.71179918 360.770168 -101.72589514 356.86285398 -101.73685408 352.95548534 C-101.75455444 345.32146555 -101.75083741 337.68760389 -101.73920351 330.05357814 C-101.73013584 323.84412998 -101.72895953 317.63472584 -101.73329878 311.42527294 C-101.73391171 310.53839403 -101.73452464 309.65151511 -101.73515615 308.73776108 C-101.73643517 306.93556331 -101.73773203 305.13336556 -101.73904651 303.33116782 C-101.75042746 286.46859562 -101.73737774 269.60611069 -101.71584505 252.7435528 C-101.69797633 238.30374683 -101.70108114 223.86406952 -101.71952009 209.42426586 C-101.74097086 192.61822266 -101.74932906 175.81225577 -101.73707104 159.00620079 C-101.73579696 157.21097534 -101.73453948 155.41574988 -101.73329878 153.62052441 C-101.73268168 152.7374521 -101.73206457 151.85437979 -101.73142877 150.94454771 C-101.72798847 144.74922055 -101.73377561 138.55394216 -101.74321699 132.35862255 C-101.75448524 124.79903239 -101.75129623 117.23960816 -101.73009402 109.68003678 C-101.71964805 105.82984404 -101.71535006 101.97992703 -101.72869062 98.1297369 C-101.84126387 62.71378658 -101.84126387 62.71378658 -93.44803572 47.21039867 C-93.1036949 46.55217113 -92.75935408 45.8939436 -92.40457869 45.21576977 C-81.01102243 23.9778493 -62.90148898 9.39555567 -39.88333845 2.41852856 C-26.98831776 -0.96773672 -13.23582129 -0.04362592 0 0 Z " fill="#470137" transform="translate(117.1980357170105,23.47710132598877)"/>
<path d="M0 0 C13.2 0 26.4 0 40 0 C40.02187378 8.86516479 40.02187378 8.86516479 40.04418945 17.90942383 C40.09452385 37.43530114 40.16096721 56.96109908 40.23571491 76.48689747 C40.28064147 88.32548443 40.32006343 100.16404151 40.34643555 112.00268555 C40.36944099 122.32369182 40.40286758 132.64460332 40.44870156 142.96553439 C40.47259932 148.42816133 40.49135072 153.89069459 40.49761391 159.35337257 C40.5036803 164.50060157 40.52373642 169.64759099 40.55427551 174.79473114 C40.56303082 176.67839835 40.56678354 178.5620969 40.56500816 180.44578362 C40.52037282 193.36166691 40.52037282 193.36166691 43.34064007 205.91331005 C44.2040872 208.64587897 44.23036064 211.1588854 44 214 C17.20753484 227.93810266 -19.74275116 233.62698132 -48.82421875 224.4765625 C-59.41644361 220.84453238 -67.75829137 215.57452269 -76 208 C-76.97066406 207.11248047 -76.97066406 207.11248047 -77.9609375 206.20703125 C-93.05227472 190.74011776 -96.40838759 167.75036898 -96.36791992 147.22070312 C-96.0550317 125.49943912 -87.78578553 106.53416647 -72.859375 90.703125 C-56.41723207 75.15945982 -36.6919183 67.7676224 -14.25 67.875 C-13.42628906 67.87113281 -12.60257812 67.86726563 -11.75390625 67.86328125 C-10.55314453 67.86521484 -10.55314453 67.86521484 -9.328125 67.8671875 C-8.25933105 67.86887939 -8.25933105 67.86887939 -7.16894531 67.87060547 C-5 68 -5 68 0 69 C0 46.23 0 23.46 0 0 Z " fill="#FD60F4" transform="translate(380,144)"/>
<path d="M0 0 C6.1929597 -0.12360058 12.38520159 -0.21434054 18.57910156 -0.2746582 C20.68599961 -0.29980212 22.79281043 -0.33392207 24.89941406 -0.37719727 C27.9279532 -0.43785368 30.9553393 -0.46621083 33.984375 -0.48828125 C35.39707672 -0.52699089 35.39707672 -0.52699089 36.83831787 -0.56648254 C43.37587457 -0.56928621 43.37587457 -0.56928621 46.48681641 2.26831055 C47.23584229 3.62049683 47.23584229 3.62049683 48 5 C48.40041504 5.69367676 48.80083008 6.38735352 49.21337891 7.10205078 C49.54772949 7.79282715 49.88208008 8.48360352 50.2265625 9.1953125 C50.61263672 9.98236572 50.99871094 10.76941895 51.39648438 11.58032227 C51.80189453 12.42006592 52.20730469 13.25980957 52.625 14.125 C53.52179352 15.9500275 54.42026826 17.77422971 55.3203125 19.59765625 C55.99755371 20.97074951 55.99755371 20.97074951 56.68847656 22.37158203 C58.56592965 26.13417695 60.52569232 29.85005798 62.5 33.5625 C67.1583567 42.35750084 71.74989586 51.18680207 76.31738281 60.02926636 C77.14446309 61.62895719 77.97306599 63.22786174 78.80322266 64.82595825 C79.97835727 67.08892384 81.1480186 69.35463889 82.31640625 71.62109375 C82.85165672 72.64805862 82.85165672 72.64805862 83.39772034 73.69577026 C84.97924853 76.77705233 86.24631175 79.62410413 87 83 C87.66 83 88.32 83 89 83 C89.24806396 82.17411377 89.49612793 81.34822754 89.75170898 80.49731445 C91.18591656 76.47912091 93.00688248 72.82172386 94.97265625 69.04296875 C95.36799057 68.27450119 95.76332489 67.50603363 96.17063904 66.71427917 C97.46372904 64.20316275 98.76290856 61.69525704 100.0625 59.1875 C100.96127097 57.4469495 101.85970489 55.70622492 102.7578125 53.96533203 C104.13578168 51.29479622 105.51425075 48.62452645 106.89456177 45.9552002 C109.93832913 40.06761464 112.95868179 34.16858011 115.96484375 28.26171875 C117.11147657 26.01436611 118.2586962 23.76731433 119.40621948 21.52041626 C120.13049011 20.09978208 120.85294892 18.67822262 121.57351685 17.25570679 C122.57501936 15.27972508 123.58356257 13.30748991 124.59375 11.3359375 C125.15771484 10.22782715 125.72167969 9.1197168 126.30273438 7.97802734 C129.62408542 2.15037486 129.62408542 2.15037486 132 0 C135.05584759 -0.68009324 138.02352656 -0.58244092 141.140625 -0.48828125 C142.02280701 -0.48120651 142.90498901 -0.47413177 143.81390381 -0.46684265 C146.62680481 -0.43889178 149.43770252 -0.37615381 152.25 -0.3125 C154.15882538 -0.28741794 156.06768202 -0.26460461 157.9765625 -0.24414062 C162.65181152 -0.18906299 167.32556633 -0.10278694 172 0 C171.42159926 3.64565305 170.44948511 6.37138509 168.62109375 9.5703125 C168.12053467 10.45227295 167.61997559 11.3342334 167.10424805 12.24291992 C166.55422119 13.19400635 166.00419434 14.14509277 165.4375 15.125 C164.57282104 16.63767456 164.57282104 16.63767456 163.69067383 18.1809082 C158.60780755 27.03543609 153.39227182 35.8111423 148.16479492 44.58081055 C142.57607808 53.97367367 137.13891692 63.44739948 131.75683594 72.95996094 C128.68501749 78.37206643 125.57500477 83.74347654 122.29296875 89.03125 C121.72416992 89.95107666 121.15537109 90.87090332 120.56933594 91.81860352 C119.51405174 93.51220519 118.44645498 95.19822353 117.36425781 96.87475586 C116.90245117 97.61604736 116.44064453 98.35733887 115.96484375 99.12109375 C115.5587085 99.7545874 115.15257324 100.38808105 114.73413086 101.04077148 C113.72302107 103.73919384 114.16302866 105.26717171 115 108 C116.08230597 110.28238514 116.08230597 110.28238514 117.484375 112.52734375 C118.00032227 113.38980713 118.51626953 114.25227051 119.04785156 115.14086914 C119.60956055 116.06375732 120.17126953 116.98664551 120.75 117.9375 C121.94808123 119.93479713 123.14599345 121.93219565 124.34375 123.9296875 C125.26220703 125.45287598 125.26220703 125.45287598 126.19921875 127.00683594 C128.90859152 131.51021313 131.57978991 136.03583013 134.25 140.5625 C134.7749707 141.4505835 135.29994141 142.33866699 135.84082031 143.25366211 C140.41290685 150.99130054 144.95769142 158.74486367 149.5 166.5 C154.71533496 175.40403122 159.93833389 184.30334797 165.1875 193.1875 C165.94353516 194.46753906 165.94353516 194.46753906 166.71484375 195.7734375 C167.194375 196.58425781 167.67390625 197.39507812 168.16796875 198.23046875 C168.6273584 199.0095459 169.08674805 199.78862305 169.56005859 200.59130859 C170.58879683 202.3121515 171.63545482 204.02233306 172.69384766 205.72509766 C173.24476074 206.61632324 173.79567383 207.50754883 174.36328125 208.42578125 C174.86770752 209.23055908 175.37213379 210.03533691 175.8918457 210.86450195 C177 213 177 213 177 216 C170.70188412 216.22867356 164.40484122 216.3859904 158.10351562 216.49438477 C155.96150721 216.53957687 153.81977541 216.60094654 151.67871094 216.67895508 C148.59500985 216.78847371 145.51498181 216.83923294 142.4296875 216.87890625 C141.47633514 216.92535782 140.52298279 216.97180939 139.54074097 217.01966858 C133.03691218 217.02457836 133.03691218 217.02457836 130.14889526 214.1709137 C128.56734425 211.8474128 127.25961356 209.5110228 126 207 C125.35337402 205.86925049 124.70674805 204.73850098 124.04052734 203.57348633 C123.4780127 202.50380615 122.91549805 201.43412598 122.3359375 200.33203125 C122.02191986 199.73867477 121.70790222 199.1453183 121.3843689 198.53398132 C120.71946408 197.27651519 120.05665772 196.01793739 119.39587402 194.75830078 C117.64082717 191.41315588 115.86968854 188.07652537 114.1015625 184.73828125 C113.74980957 184.07301422 113.39805664 183.40774719 113.03564453 182.72232056 C109.06073353 175.20965993 104.98582894 167.75269099 100.8984375 160.30078125 C98.80051587 156.47528686 96.72705072 152.63741217 94.6640625 148.79296875 C93.83890137 147.2615625 93.83890137 147.2615625 92.99707031 145.69921875 C91.93730732 143.73154321 90.88177887 141.7615795 89.83105469 139.7890625 C89.35829102 138.91378906 88.88552734 138.03851563 88.3984375 137.13671875 C87.98255371 136.36030029 87.56666992 135.58388184 87.13818359 134.78393555 C86.1149983 132.84354655 86.1149983 132.84354655 84 132 C83.73767578 132.85819336 83.47535156 133.71638672 83.20507812 134.60058594 C81.97248234 138.07762477 80.46410965 141.14226355 78.71875 144.390625 C78.23007195 145.30528282 78.23007195 145.30528282 77.73152161 146.23841858 C76.65857564 148.24457617 75.57926078 150.24723368 74.5 152.25 C73.7445142 153.66012106 72.9895595 155.07052677 72.23510742 156.48120117 C71.05143893 158.69425588 69.86741168 160.90711082 68.6816864 163.11906433 C65.79832631 168.49892849 62.93431043 173.88875424 60.08203125 179.28515625 C59.68100189 180.04386017 59.27997253 180.80256409 58.86679077 181.58425903 C57.30281011 184.54400046 55.73940677 187.50404645 54.17626953 190.4642334 C52.10153742 194.39212207 50.02221542 198.31749639 47.93511963 202.23883057 C47.0256893 203.95161773 46.12285376 205.6679014 45.22021484 207.38427734 C44.68734863 208.38539551 44.15448242 209.38651367 43.60546875 210.41796875 C43.1468042 211.28574951 42.68813965 212.15353027 42.21557617 213.04760742 C41 215 41 215 39 216 C37.64154807 216.08902493 36.27884026 216.11760132 34.91748047 216.11352539 C33.65639969 216.11341209 33.65639969 216.11341209 32.36984253 216.11329651 C31.00727829 216.10555458 31.00727829 216.10555458 29.6171875 216.09765625 C28.68778351 216.0962413 27.75837952 216.09482635 26.80081177 216.09336853 C23.82550876 216.08776053 20.85028036 216.07520668 17.875 216.0625 C15.86067817 216.05748603 13.84635516 216.05292295 11.83203125 216.04882812 C6.88799198 216.0377885 1.94400865 216.02051849 -3 216 C-2.42191055 212.15617483 -1.3185408 209.47132395 0.7109375 206.16796875 C1.28650391 205.22115234 1.86207031 204.27433594 2.45507812 203.29882812 C3.08865234 202.27208984 3.72222656 201.24535156 4.375 200.1875 C5.39160541 198.51757465 6.40817082 196.84762435 7.42327881 195.17678833 C8.14465111 193.98981723 8.8668802 192.80336648 9.58990479 191.61740112 C13.54530351 185.12454224 17.41910518 178.58385244 21.29153442 172.04129028 C27.47707003 161.59293827 33.68867729 151.16063627 39.9375 140.75 C40.53691406 139.74815674 41.13632813 138.74631348 41.75390625 137.71411133 C44.67589272 132.83675918 47.625051 127.97976547 50.62890625 123.15234375 C51.19810791 122.22905273 51.76730957 121.30576172 52.35375977 120.35449219 C53.42067907 118.62602912 54.49742015 116.90357504 55.58569336 115.18847656 C56.28577515 114.04910645 56.28577515 114.04910645 57 112.88671875 C57.4125 112.22889404 57.825 111.57106934 58.25 110.89331055 C59.21856365 108.44825484 58.92142378 107.44035386 58 105 C57.27705693 103.48986373 56.50494726 102.00279374 55.69921875 100.53515625 C55.22323242 99.6642334 54.74724609 98.79331055 54.25683594 97.89599609 C53.73895508 96.96094238 53.22107422 96.02588867 52.6875 95.0625 C52.14770508 94.08104004 51.60791016 93.09958008 51.05175781 92.08837891 C46.02405551 82.97804212 40.86976888 73.94193344 35.68066406 64.92285156 C32.48757746 59.36973814 29.30572643 53.81019827 26.125 48.25 C25.78903809 47.66311401 25.45307617 47.07622803 25.10693359 46.47155762 C21.37677908 39.9536364 17.66675125 33.42539465 14.0078125 26.8671875 C13.37472168 25.73249023 12.74163086 24.59779297 12.08935547 23.42871094 C10.89578621 21.28491226 9.70456368 19.1398047 8.51611328 16.99316406 C5.2603131 11.12074651 5.2603131 11.12074651 1.609375 5.4921875 C0 3 0 3 0 0 Z " fill="#FD60F4" transform="translate(91,152)"/>
<path d="M0 0 C1.91064299 1.91064299 1.12014611 4.73827895 1.12442017 7.28016663 C1.11902725 8.63530617 1.11902725 8.63530617 1.11352539 10.01782227 C1.11367142 10.96406464 1.11381744 11.91030701 1.1139679 12.88522339 C1.11326836 16.02897392 1.10547409 19.17266601 1.09765625 22.31640625 C1.09579221 24.48974068 1.09436824 26.66307552 1.09336853 28.83641052 C1.08954221 34.56901195 1.07971097 40.30158823 1.06866455 46.03417969 C1.05845287 51.87890279 1.05387143 57.72362993 1.04882812 63.56835938 C1.0380888 75.045584 1.02101102 86.52278991 1 98 C-0.419 98.49572779 -1.84006605 98.98554385 -3.26196289 99.47290039 C-4.44865318 99.88301109 -4.44865318 99.88301109 -5.65931702 100.30140686 C-13.77427209 102.72337173 -23.13926795 101.86738154 -30.73828125 98.25 C-31.48464844 97.8375 -32.23101562 97.425 -33 97 C-33.75667969 96.5875 -34.51335937 96.175 -35.29296875 95.75 C-45.34180706 89.66189142 -52.11129582 81.01037027 -56 70 C-56.47759766 68.66582031 -56.47759766 68.66582031 -56.96484375 67.3046875 C-61.78839564 51.34473239 -59.69169266 35.05033047 -52.3125 20.3125 C-41.67932092 2.07659788 -20.73931766 -9.93222905 0 0 Z " fill="#470137" transform="translate(379,243)"/>
</svg>
